<svg width="340" height="285" viewBox="0 0 340 285" fill="none" xmlns="http://www.w3.org/2000/svg">
<rect width="340" height="285" rx="20" fill="#0385B6" fill-opacity="0.2"/>
<g clip-path="url(#clip0)">
<path d="M72.7363 258.504C79.1991 258.504 84.4383 240.795 84.4383 218.95C84.4383 197.105 79.1991 179.396 72.7363 179.396C66.2734 179.396 61.0342 197.105 61.0342 218.95C61.0342 240.795 66.2734 258.504 72.7363 258.504Z" fill="#E6E6E6"/>
<path d="M73.8169 283.693C69.1301 237.11 73.7697 190.696 73.8171 190.233L74.7288 190.489C74.6816 190.95 70.0686 237.12 74.729 283.442L73.8169 283.693Z" fill="#3F3D56"/>
<path d="M83.0388 210.444L72.457 219.821L72.8932 221.172L83.475 211.795L83.0388 210.444Z" fill="#3F3D56"/>
<path d="M61.7251 215.141L61.2887 216.492L71.8693 225.874L72.3057 224.523L61.7251 215.141Z" fill="#3F3D56"/>
<path d="M308.745 2.64H289.566V112.623H308.745V2.64Z" fill="#3F3D56"/>
<path d="M321.412 91.9327L274.763 0L181.126 1.4183L124.324 93.0699L125.472 94.2923H125.062V284.929H321.286V94.2923L321.412 91.9327Z" fill="#3F3D56"/>
<path d="M274.812 0.195862L216.535 113.379V284.929H321.286V91.8481L274.812 0.195862Z" fill="#0385B6"/>
<path d="M279.976 190.059H258.583V221.383H279.976V190.059Z" fill="#3F3D56"/>
<path d="M279.976 135.841H258.583V166.668H279.976V135.841Z" fill="#3F3D56"/>
<path d="M279.976 190.059H258.583V221.383H279.976V190.059Z" fill="white"/>
<path d="M279.976 135.841H258.583V166.668H279.976V135.841Z" fill="white"/>
<path d="M202.008 279.339C202.008 279.339 202.466 263.42 211.868 265.27L202.008 279.339Z" fill="#E6E6E6"/>
<path d="M199.351 264.19C201.95 264.19 204.057 260.7 204.057 256.395C204.057 252.09 201.95 248.6 199.351 248.6C196.752 248.6 194.646 252.09 194.646 256.395C194.646 260.7 196.752 264.19 199.351 264.19Z" fill="#FF005C"/>
<path d="M199.914 269.521H198.585V284.924H199.914V269.521Z" fill="#E6E6E6"/>
<path d="M44.6197 235.312C57.2603 235.312 67.5075 200.675 67.5075 157.949C67.5075 115.222 57.2603 80.5858 44.6197 80.5858C31.9791 80.5858 21.7319 115.222 21.7319 157.949C21.7319 200.675 31.9791 235.312 44.6197 235.312Z" fill="#00D49C"/>
<path d="M47.1691 284.459C38.0145 193.469 47.0767 102.81 47.1693 101.905L48.0809 102.161C47.9886 103.064 38.953 193.479 48.0812 284.208L47.1691 284.459Z" fill="#3F3D56"/>
<path d="M64.979 141.958L44.2817 160.298L44.7179 161.649L65.4152 143.309L64.979 141.958Z" fill="#3F3D56"/>
<path d="M22.8748 151.145L22.4384 152.496L43.1326 170.845L43.569 169.494L22.8748 151.145Z" fill="#3F3D56"/>
<path d="M98.8277 217.251C116.125 217.251 130.148 169.853 130.148 111.386C130.148 52.9181 116.125 5.52077 98.8277 5.52077C81.53 5.52077 67.5075 52.9181 67.5075 111.386C67.5075 169.853 81.53 217.251 98.8277 217.251Z" fill="#00D49C"/>
<path d="M102.484 284.459C89.9618 159.992 102.358 35.9796 102.485 34.7416L103.396 34.9974C103.27 36.2331 90.9003 160.002 103.397 284.208L102.484 284.459Z" fill="#3F3D56"/>
<path d="M126.768 89.7532L98.4457 114.849L98.8819 116.2L127.204 91.1041L126.768 89.7532Z" fill="#3F3D56"/>
<path d="M68.9911 102.325L68.5547 103.676L96.8733 128.784L97.3097 127.433L68.9911 102.325Z" fill="#3F3D56"/>
<path d="M338 283.668H0V285H338V283.668Z" fill="#3F3D56"/>
<path d="M184.905 181.748H163.512V213.072H184.905V181.748Z" fill="#3F3D56"/>
<path d="M184.905 127.53H163.512V158.357H184.905V127.53Z" fill="#3F3D56"/>
<path d="M184.905 181.748H163.512V213.072H184.905V181.748Z" fill="white"/>
<path d="M184.905 127.53H163.512V158.357H184.905V127.53Z" fill="white"/>
<path d="M278.958 192.872V200.976H262.575V193.368H262.101V290.481H262.575V273.095H278.958V290.481H279.433V192.872H278.958ZM278.958 201.856V215.224H262.575V201.856L278.958 201.856ZM262.575 243.72V230.352H278.958V243.72H262.575ZM278.958 244.599V257.968H262.575V244.599H278.958ZM262.575 229.472V216.104H278.958V229.472H262.575ZM262.575 272.216V258.847H278.958V272.216H262.575Z" fill="#2F2E41"/>
<path d="M257.41 194.802V196.017C257.41 196.017 256.941 196.364 256.941 197.752C256.941 199.14 256.566 204.346 256.566 204.346C256.566 204.346 257.222 205.387 257.785 205.04C258.096 204.865 258.383 204.57 258.628 204.173L258.722 198.793L258.347 197.405V194.975L257.41 194.802Z" fill="#0385B6"/>
<path d="M275.338 146.559C275.338 146.559 273.708 146.906 273.708 148.295C273.708 149.683 272.404 154.889 272.404 154.889C272.404 154.889 274.686 155.93 276.642 155.583C278.598 155.236 279.576 154.715 279.576 154.715L279.902 149.336L278.598 147.948L275.338 146.559Z" fill="#0385B6"/>
<path d="M275.497 158.707V155.41C275.497 155.41 273.529 148.121 275.122 148.121C276.715 148.121 276.903 154.716 276.903 154.716V159.401L275.497 158.707Z" fill="#FFB8B8"/>
<path d="M258.628 193.24C258.628 193.24 257.597 192.199 257.41 193.24C257.222 194.281 256.66 196.537 257.41 196.711C258.16 196.884 258.909 195.67 258.909 195.67L258.628 193.24Z" fill="#FFB8B8"/>
<path d="M263.702 200.269C263.702 200.269 263.137 201.649 263.956 215.113C264.775 228.576 264.303 238.38 265.857 238.245C265.857 238.245 265.452 241.165 266.772 241.272C268.093 241.38 268.697 241.55 268.799 240.875C268.902 240.201 269.063 237.081 268.705 237.112C268.705 237.112 268.727 237.997 268.877 234.434C269.027 230.871 268.602 214.046 269.144 211.78L271.264 219.806C271.264 219.806 271.359 223.57 271.762 225.31C272.165 227.05 273.02 237.182 273.02 237.182L272.939 238.742C272.939 238.742 275.831 239.38 275.929 238.484C276.026 237.588 275.992 236.26 275.862 235.827C275.731 235.395 275.731 235.395 275.948 234.489C276.044 234.148 276.099 233.773 276.11 233.389C276.121 233.006 276.087 232.622 276.011 232.264C275.875 231.61 275.512 217.22 275.512 217.22C275.512 217.22 274.832 199.751 273.375 198.989C271.918 198.228 263.702 200.269 263.702 200.269Z" fill="#2F2E41"/>
<path d="M266.25 239.543L265.371 242.725C265.371 242.725 263.852 241.858 264.215 244.378C265.674 244.462 267.133 244.299 268.576 243.89C268.576 243.89 269.185 244.281 269.288 243.606C269.391 242.932 268.914 240.643 268.555 240.674C268.196 240.705 266.25 239.543 266.25 239.543Z" fill="#2F2E41"/>
<path d="M273.162 238.057C273.162 238.057 272.306 242.125 272.67 242.316C273.034 242.506 276.285 243.112 276.53 243.313C276.774 243.514 277.976 243.632 278.062 242.293C278.148 240.955 277.419 240.574 277.419 240.574C277.419 240.574 276.093 240.245 275.678 238.062C275.264 235.879 273.162 238.057 273.162 238.057Z" fill="#2F2E41"/>
<path d="M265.045 167.265C266.428 167.265 267.549 165.19 267.549 162.63C267.549 160.069 266.428 157.994 265.045 157.994C263.663 157.994 262.542 160.069 262.542 162.63C262.542 165.19 263.663 167.265 265.045 167.265Z" fill="#FFB8B8"/>
<path d="M263.728 164.825C263.728 164.825 264.387 171.169 264.123 172.389C263.86 173.608 267.812 171.901 267.812 171.901C267.812 171.901 267.022 165.557 267.154 164.093C267.285 162.63 263.728 164.825 263.728 164.825Z" fill="#FFB8B8"/>
<path d="M264.969 156.904C264.761 156.834 264.547 156.852 264.343 156.955C264.18 157.089 264.029 157.272 263.898 157.496C263.66 157.848 263.405 158.16 263.137 158.429C262.913 158.608 262.712 158.869 262.545 159.198C262.475 159.377 262.418 159.575 262.378 159.784C262.121 160.998 262.052 162.321 262.179 163.603C262.193 163.786 262.223 163.963 262.266 164.128C262.403 164.595 262.706 164.779 262.961 165.024C263.444 165.489 263.811 166.272 264.208 166.964C264.355 167.236 264.521 167.473 264.701 167.667C265.267 168.239 265.958 168.052 266.594 167.85C266.639 167.85 266.683 167.833 266.725 167.801C266.767 167.769 266.804 167.722 266.836 167.662C266.868 167.603 266.893 167.533 266.909 167.456C266.926 167.378 266.935 167.296 266.934 167.212L267.436 163.035C267.527 162.416 267.57 161.777 267.564 161.136C267.529 160.122 267.233 158.717 266.831 157.997C266.363 157.158 265.581 157.024 264.969 156.904Z" fill="#2F2E41"/>
<path d="M263.126 172.763C263.126 172.763 263.314 170.334 264.439 170.16C265.075 170.049 265.703 169.816 266.313 169.466C266.407 169.466 267.625 169.639 268.187 170.681C268.187 170.681 268.562 171.722 268.749 171.028C268.937 170.334 268.937 169.986 269.312 170.334C269.687 170.681 269.687 169.292 270.343 169.466C270.999 169.639 272.686 177.448 272.686 177.448L272.123 178.663C272.123 178.663 271.374 188.034 272.686 192.025C273.998 196.017 274.56 200.355 273.248 201.223C271.936 202.09 262.752 209.899 263.126 205.04C263.501 200.181 263.22 192.546 262.845 192.372C262.47 192.199 260.409 178.49 260.409 178.49C260.492 177.619 260.689 176.8 260.983 176.104C261.277 175.408 261.659 174.857 262.096 174.498C263.595 173.284 263.126 172.763 263.126 172.763Z" fill="#575A88"/>
<path d="M269.874 170.16L270.343 169.466C270.343 169.466 271.186 169.466 271.28 169.119C271.374 168.772 271.842 168.772 272.217 168.425C272.592 168.078 272.123 167.557 272.592 167.21C273.061 166.863 273.061 167.21 273.061 166.342C273.061 165.475 274.279 164.607 274.373 163.566C274.466 162.524 275.403 157.666 275.403 157.666L277.184 158.707L276.715 164.954C276.715 164.954 276.715 168.078 275.872 170.16C275.029 172.242 273.154 177.448 272.217 177.622C271.28 177.795 269.874 170.16 269.874 170.16Z" fill="#575A88"/>
<path d="M260.971 177.622L260.409 178.49C260.409 178.49 260.221 182.307 260.221 182.481C260.221 182.654 260.409 184.737 260.221 184.91C260.034 185.084 259.659 188.555 259.753 188.728V189.249L258.441 193.067V196.711L261.533 193.067C261.533 193.067 263.314 192.719 263.033 189.769C262.752 186.819 260.971 177.622 260.971 177.622Z" fill="#575A88"/>
</g>
<defs>
<clipPath id="clip0">
<rect width="338" height="285" rx="20" fill="white"/>
</clipPath>
</defs>
</svg>
