<svg width="1440" height="725" viewBox="0 0 1440 725" fill="none" xmlns="http://www.w3.org/2000/svg">
<path d="M12.1769 0C8.94008 0.00676709 5.84021 0.731023 3.55737 2.01388C1.27453 3.29673 -0.0048099 5.03341 1.5249e-05 6.84292V561.167C-0.00509456 562.977 1.27417 564.714 3.55706 565.997C5.83996 567.28 8.93999 568.004 12.1769 568.01H1427.82C1431.06 568.004 1434.16 567.279 1436.44 565.997C1438.72 564.714 1440 562.977 1440 561.167V6.84292C1440 5.03351 1438.72 3.29684 1436.44 2.01396C1434.16 0.73109 1431.06 0.00680206 1427.82 0H12.1769Z" fill="#0385B6" fill-opacity="0.85"/>
<path d="M7.48894 325.816C50.6551 325.746 91.4071 334.33 126.95 347.678C164.257 361.688 195.787 380.251 223.485 399.909C254.093 421.634 280.319 445.14 308.472 467.846C334.471 488.815 362.33 509.201 395.839 526.624C427.541 543.109 464.257 556.968 505.666 564.485C510.71 565.4 515.811 566.209 520.955 566.932C526.752 567.746 529.225 562.736 523.423 561.922C480.9 555.95 442.88 543.017 410.195 526.897C376.089 510.077 347.734 490.117 321.666 469.371C293.283 446.784 267.167 423.3 237.157 401.358C209.39 381.056 178.165 361.968 141.075 346.883C106.658 332.884 66.7904 322.914 24.0519 320.968C18.5409 320.717 13.0176 320.611 7.48879 320.62C6.28529 320.643 5.14505 320.927 4.30842 321.412C3.47179 321.896 3.00415 322.544 3.00415 323.218C3.00415 323.891 3.47179 324.539 4.30842 325.024C5.14505 325.508 6.28529 325.792 7.48879 325.815L7.48894 325.816Z" fill="#FF005C"/>
<path d="M11.9264 565.261C87.8783 522.361 191.71 502.081 294.819 488.926C402.662 475.167 513.922 467.781 616.387 443.235C665.315 431.829 710.227 415.662 749.033 395.487C785.264 376.16 815.32 353.519 837.903 328.542C883.993 277.908 898.328 220.102 878.612 164.379C857.754 107.729 806.041 56.0647 730.557 16.4643C721.359 11.636 711.836 7.01339 701.987 2.5965C697.374 0.521862 690.762 4.16932 695.419 6.26398C775.648 42.3883 833.743 91.5655 861.64 146.968C888.896 201.62 881.842 259.835 841.65 311.939C822.149 337.25 795.161 360.548 761.816 380.858C726.439 402.042 684.37 419.402 637.72 432.067C538.328 459.47 427.078 467.952 319.766 480.571C218.584 492.469 115.373 509.44 34.2497 546.824C24.1794 551.472 14.5368 556.401 5.35884 561.593C1.15217 563.969 7.71595 567.639 11.9264 565.261Z" fill="#0385B6"/>
<path d="M5.72827 240.188C122.315 222.482 245.688 224.854 359.844 246.997C393.008 253.384 427.023 260.806 454.767 273.153C478.635 283.775 499.593 299.855 493.63 317.909C488.134 334.551 460.87 347.697 431.527 350.103C401.263 352.583 373.688 342.243 359.807 327.589C352.72 320.322 349.483 312.068 350.477 303.802C351.471 295.535 356.655 287.601 365.417 280.934C382.961 267.667 412.129 260.09 440.793 257.989C473.559 255.588 505.786 261.011 534.127 270.078C598.181 290.572 639.085 326.3 692.878 353.536C718.659 367.001 748.93 377.468 781.948 384.335C813.882 390.533 847.568 393.393 881.338 392.775C952.124 391.763 1020 377.405 1077.83 354.883C1135.84 332.291 1183.76 302.628 1225.71 270.971C1248.14 254.044 1267.64 235.856 1291.11 219.375C1314.22 203.153 1342.81 188.731 1379.37 183.3C1396.01 180.716 1413.57 180.661 1430.26 183.142C1431.44 183.299 1432.67 183.195 1433.71 182.85C1434.75 182.506 1435.5 181.949 1435.82 181.297C1436.14 180.645 1436 179.948 1435.42 179.354C1434.85 178.76 1433.88 178.315 1432.73 178.112C1397.19 172.67 1359.82 179.04 1330.35 190.656C1298.82 203.081 1276.24 221.09 1254.81 238.728C1211.99 273.965 1165.89 308.114 1107.36 335.68C1048.93 363.202 978.614 382.924 901.957 386.875C865.288 388.951 828.25 386.925 792.983 380.914C756.119 374.411 724.151 362.666 695.894 348.027C640.375 319.263 597.191 281.508 527.704 262.254C498.416 254.139 466.364 250.246 433.907 253.336C405.329 256.056 377.221 263.968 359.204 276.966C350.077 283.501 344.123 291.252 341.921 299.464C339.72 307.676 341.346 316.068 346.642 323.822C356.906 338.954 379.81 352.023 408.896 355.003C438.254 358.011 468.928 350.409 487.26 337.47C496.437 330.978 502.01 323.113 503.286 314.856C504.562 306.598 501.484 298.312 494.435 291.029C479.355 274.662 449.936 263.346 421.28 255.361C385.28 245.657 347.492 238.2 308.596 233.123C228.775 222.194 145.862 220.361 64.7579 227.733C44.0504 229.63 23.525 232.108 3.25857 235.158C2.1087 235.36 1.14368 235.805 0.56698 236.399C-0.00971805 236.994 -0.153066 237.69 0.167197 238.342C0.487461 238.995 1.24632 239.552 2.28373 239.896C3.32114 240.24 4.55606 240.345 5.72817 240.188H5.72827Z" fill="#FF005C"/>
<path d="M975.515 567.889C1008.42 543.21 1042.07 517.033 1056.27 486.841C1063.35 472.429 1064.38 457.301 1059.31 442.629C1054.39 429.836 1044.82 417.745 1031.19 407.106C1003.22 384.921 961.984 368.433 918.106 357.303C863.768 343.519 805.17 336.451 748.457 326.512C696.18 317.35 642.582 305.395 603.53 283.127C566.633 262.088 545.728 230.421 566.307 201.937C584.979 176.092 630.484 158.953 675.909 149.905C731.603 138.812 791.254 136.815 848.007 128.022C895.454 120.672 944.012 108.138 973.389 85.125C998.286 65.6225 1006.28 37.4986 986.377 15.7009C981.524 10.4168 974.992 5.66907 967.1 1.68891C962.674 -0.551313 956.076 3.11128 960.523 5.36185C994.082 22.3464 994.481 51.4052 975.574 72.9161C953.374 98.173 905.44 112.56 859.303 120.732C804.388 130.459 746.276 132.535 691.096 141.686C643.934 149.508 597.799 163.532 570.046 186.97C556.57 198.195 549.179 211.353 548.761 224.866C548.906 239.326 555.814 253.513 568.802 266.023C595.039 292.037 641.802 308.866 689.93 320.222C791.114 344.096 911.15 347.742 994.514 391.515C1030.31 410.313 1054.62 435.279 1053.22 463.247C1051.67 494.094 1022.14 522.16 991.432 546.808C983.66 553.046 975.61 559.173 967.484 565.267C963.907 567.95 971.977 570.542 975.515 567.889V567.889Z" fill="#00D49C"/>
<path d="M216.61 6.77191C229.407 12.0154 239.764 18.9177 246.801 26.8927C253.839 34.8678 257.348 43.6798 257.032 52.5805C256.529 61.5921 252.068 70.3937 244.048 78.2013C236.027 86.0088 224.696 92.5798 211.064 97.3289C185.242 105.898 148.95 106.976 128.389 92.9738C119.884 87.2942 115.644 79.9765 116.567 72.5701C117.298 68.9957 119.551 65.573 123.133 62.5916C126.716 59.6102 131.523 57.1577 137.148 55.4419C163.231 47.0752 194.493 52.001 218.598 60.0179C233.518 64.9801 247.17 71.0167 261.435 76.5293C275.065 81.8414 289.619 86.361 304.873 90.0186C365.605 104.44 436.863 104.612 496.73 88.6704C523.855 81.369 548.149 71.1282 568.217 58.5354C588.285 45.9427 603.732 31.246 613.671 15.2888C616.07 11.3437 618.091 7.32918 619.727 3.2626C621.051 -0.0128003 612.088 -1.41124 610.761 1.87301C596.79 36.4352 554.108 66.3218 498.18 82.4539C437.22 100.038 361.954 99.5462 300.338 83.1949C284.542 78.8204 269.485 73.6486 255.354 67.7431C240.819 61.8871 226.325 55.8399 210.077 51.5414C184.537 44.7843 151.107 42.8827 127.156 52.8765C121.539 55.1739 116.858 58.1193 113.429 61.5155C109.999 64.9118 107.899 68.6807 107.269 72.5701C106.364 80.5335 110.589 88.4139 119.17 94.7701C139.091 109.878 174.953 112.017 204.368 105.042C235.306 97.7059 257.595 81.0956 264.21 62.7393C268.173 51.4058 266.233 39.6701 258.621 28.9415C251.01 18.2129 238.052 8.94763 221.303 2.25834C216.437 0.291311 211.79 4.82345 216.61 6.77191H216.61Z" fill="#00D49C"/>
<path d="M1201.73 567.133C1211.58 542.086 1231.24 518.571 1259.28 498.282C1287.2 477.933 1322.5 461.116 1362.86 448.935C1385.52 442.115 1409.66 436.953 1434.68 433.576C1440.49 432.793 1438.03 427.781 1432.21 428.565C1386.54 434.873 1343.92 446.754 1307.42 463.358C1270.76 479.857 1240.76 500.512 1219.39 523.964C1207.36 537.198 1198.41 551.242 1192.77 565.752C1191.52 569.013 1200.47 570.406 1201.73 567.133H1201.73Z" fill="#FF005C"/>
<path d="M1152.68 2.96875C1132.88 3.08013 1116.18 10.7375 1108.07 20.5008C1098.87 31.5805 1101.39 43.7733 1111.25 54.4483C1134.27 79.3519 1184.51 88.1775 1220.69 105.396C1237.48 113.384 1252.11 123.55 1255.96 135.989C1259.72 148.113 1251.97 160.609 1239.27 170.366C1225.41 181.02 1204.5 188.344 1182.72 192.963C1160.32 197.722 1136.66 200.373 1112.71 200.806C1089.57 201.172 1065.11 198.913 1045.95 191.201C1037.99 188.025 1031.31 183.961 1026.31 179.265C1021.32 174.57 1018.12 169.346 1016.93 163.925C1015.95 159.023 1017.44 154.065 1021.23 149.61C1025.02 145.155 1030.96 141.379 1038.38 138.708C1053.35 133.763 1071.1 132.154 1088.1 134.2C1130.44 138.876 1152.38 162.353 1161.74 183.875C1173.67 211.281 1168.93 240.415 1187.27 267.045C1202.9 289.579 1231.37 308.616 1268.27 321.222C1310.57 335.598 1356.12 340.252 1404.12 333.229C1416.35 331.405 1428.23 328.934 1439.62 325.851C1445.01 324.41 1440.3 319.934 1434.93 321.37C1387.21 334.132 1338.39 334.539 1290.37 321.964C1250.58 311.415 1218.69 293.387 1200.27 271.032C1178.55 244.61 1182.87 214.943 1172.52 187.034C1164.2 164.571 1143.98 139.531 1102.67 131.084C1069.43 124.288 1024.88 129.563 1011.04 149.564C1003.81 160.019 1007.99 171.974 1017.93 181.412C1029.14 191.752 1046.84 199.386 1067.58 202.825C1090.88 206.962 1116.02 206.615 1139.91 204.509C1163.96 202.632 1187.21 198.364 1208.57 191.908C1229.02 185.701 1245.66 176.197 1256.31 164.632C1266.24 153.328 1269.43 140.172 1261.89 128.126C1245.21 101.511 1194.79 90.5212 1157.15 75.1321C1138.6 67.5499 1121.2 57.5902 1114.29 45.0401C1111.05 39.6646 1110.61 33.8863 1113.01 28.3762C1115.42 22.8662 1120.57 17.8504 1127.87 13.9113C1134.56 10.3212 1143.41 8.26724 1152.68 8.15744C1153.88 8.13412 1155.02 7.85057 1155.86 7.36658C1156.7 6.88258 1157.17 6.23598 1157.17 5.56307C1157.17 4.89016 1156.7 4.24355 1155.86 3.75956C1155.02 3.27556 1153.88 2.99201 1152.68 2.96869L1152.68 2.96875Z" fill="#00D49C"/>
<path d="M1076.99 554C1160.23 554 1227.7 498.259 1227.7 429.5C1227.7 360.741 1160.23 305 1076.99 305C993.759 305 926.285 360.741 926.285 429.5C926.285 498.259 993.759 554 1076.99 554Z" fill="#FF005C"/>
<path d="M1012.9 151.403C1052.45 151.403 1084.5 133.682 1084.5 111.821C1084.5 89.96 1052.45 72.2383 1012.9 72.2383C973.362 72.2383 941.306 89.96 941.306 111.821C941.306 133.682 973.362 151.403 1012.9 151.403Z" fill="#0385B6"/>
<path d="M143.199 181.09C182.465 181.09 214.297 163.147 214.297 141.013C214.297 118.879 182.465 100.936 143.199 100.936C103.932 100.936 72.1 118.879 72.1 141.013C72.1 163.147 103.932 181.09 143.199 181.09Z" fill="#0385B6"/>
<path d="M1470.07 613.319C1478.36 660.138 1398.61 719.443 1258.29 659.729C1145.32 611.65 1046.51 638.95 1046.51 613.319C1046.51 587.688 1141.33 566.91 1258.29 566.91C1375.25 566.91 1465.7 588.643 1470.07 613.319Z" fill="#00D49C"/>
<path opacity="0.1" d="M1251.4 646.894C1265.15 646.894 1276.3 642.866 1276.3 637.896C1276.3 632.927 1265.15 628.898 1251.4 628.898C1237.66 628.898 1226.51 632.927 1226.51 637.896C1226.51 642.866 1237.66 646.894 1251.4 646.894Z" fill="black"/>
<path opacity="0.1" d="M1352.89 646.894C1366.64 646.894 1377.79 642.866 1377.79 637.896C1377.79 632.927 1366.64 628.898 1352.89 628.898C1339.15 628.898 1328 632.927 1328 637.896C1328 642.866 1339.15 646.894 1352.89 646.894Z" fill="black"/>
<path d="M1350.26 304.962V332.605H1251.17V306.652H1248.3V637.896H1251.17V578.596H1350.26V637.896H1353.13V304.962H1350.26ZM1350.26 335.604V381.203H1251.17V335.604L1350.26 335.604ZM1251.17 478.399V432.801H1350.26V478.399H1251.17ZM1350.26 481.399V526.997H1251.17V481.399H1350.26ZM1251.17 429.802V384.202H1350.26V429.802H1251.17ZM1251.17 575.596V529.997H1350.26V575.596H1251.17Z" fill="black"/>
<path d="M1219.92 311.544V315.687C1219.92 315.687 1217.09 316.871 1217.09 321.606C1217.09 326.342 1214.82 344.099 1214.82 344.099C1214.82 344.099 1218.79 347.65 1222.19 346.467C1224.07 345.87 1225.81 344.861 1227.29 343.507L1227.86 325.158L1225.59 320.423V312.136L1219.92 311.544Z" fill="black"/>
<path d="M1328.36 146.993C1328.36 146.993 1318.5 148.177 1318.5 152.912C1318.5 157.647 1310.62 175.405 1310.62 175.405C1310.62 175.405 1324.42 178.956 1336.25 177.772C1348.08 176.589 1353.99 174.813 1353.99 174.813L1355.96 156.464L1348.08 151.728L1328.36 146.993Z" fill="#FF005C"/>
<path d="M1329.32 188.427V177.18C1329.32 177.18 1317.42 152.32 1327.06 152.32C1336.69 152.32 1337.83 174.813 1337.83 174.813V190.794L1329.32 188.427Z" fill="#FFB8B8"/>
<path d="M1227.29 306.217C1227.29 306.217 1221.06 302.665 1219.92 306.217C1218.79 309.768 1215.39 317.463 1219.92 318.055C1224.46 318.647 1228.99 314.503 1228.99 314.503L1227.29 306.217Z" fill="#FFB8B8"/>
<path d="M1257.98 330.193C1257.98 330.193 1254.57 334.9 1259.52 380.823C1264.47 426.746 1261.62 460.184 1271.02 459.725C1271.02 459.725 1268.57 469.683 1276.55 470.051C1284.54 470.418 1288.19 470.997 1288.81 468.696C1289.44 466.395 1290.41 455.753 1288.24 455.859C1288.24 455.859 1288.37 458.879 1289.28 446.726C1290.19 434.574 1287.62 377.183 1290.9 369.455L1303.72 396.831C1303.72 396.831 1304.29 409.669 1306.73 415.604C1309.17 421.539 1314.34 456.1 1314.34 456.1L1313.85 461.421C1313.85 461.421 1331.34 463.596 1331.93 460.54C1332.52 457.484 1332.32 452.953 1331.53 451.478C1330.74 450.003 1330.74 450.003 1332.05 446.912C1332.63 445.75 1332.96 444.471 1333.03 443.162C1333.1 441.853 1332.89 440.545 1332.43 439.325C1331.61 437.095 1329.41 388.011 1329.41 388.011C1329.41 388.011 1325.3 328.425 1316.49 325.827C1307.68 323.23 1257.98 330.193 1257.98 330.193Z" fill="black"/>
<path d="M1273.39 464.15L1268.08 475.004C1268.08 475.004 1258.89 472.047 1261.08 480.643C1269.91 480.93 1278.74 480.373 1287.46 478.979C1287.46 478.979 1291.14 480.313 1291.77 478.012C1292.39 475.711 1289.5 467.906 1287.33 468.011C1285.16 468.117 1273.39 464.15 1273.39 464.15Z" fill="black"/>
<path d="M1315.2 459.085C1315.2 459.085 1310.02 472.96 1312.22 473.609C1314.43 474.258 1334.09 476.327 1335.57 477.012C1337.05 477.696 1344.31 478.099 1344.83 473.533C1345.35 468.967 1340.95 467.668 1340.95 467.668C1340.95 467.668 1332.93 466.545 1330.42 459.1C1327.91 451.654 1315.2 459.085 1315.2 459.085Z" fill="black"/>
<path d="M1266.11 217.619C1274.47 217.619 1281.25 210.54 1281.25 201.807C1281.25 193.075 1274.47 185.996 1266.11 185.996C1257.75 185.996 1250.97 193.075 1250.97 201.807C1250.97 210.54 1257.75 217.619 1266.11 217.619Z" fill="#FFB8B8"/>
<path d="M1258.14 209.297C1258.14 209.297 1262.12 230.933 1260.53 235.094C1258.94 239.255 1282.84 233.43 1282.84 233.43C1282.84 233.43 1278.06 211.793 1278.86 206.8C1279.66 201.807 1258.14 209.297 1258.14 209.297Z" fill="#FFB8B8"/>
<path d="M1265.65 182.278C1264.39 182.04 1263.09 182.099 1261.86 182.453C1260.87 182.909 1259.96 183.532 1259.17 184.296C1257.73 185.496 1256.19 186.562 1254.57 187.481C1253.21 188.089 1251.99 188.981 1250.98 190.102C1250.56 190.714 1250.22 191.387 1249.97 192.1C1248.42 196.241 1248 200.753 1248.77 205.128C1248.85 205.75 1249.03 206.354 1249.3 206.918C1250.13 208.511 1251.96 209.139 1253.5 209.974C1256.42 211.56 1258.64 214.231 1261.04 216.591C1261.93 217.52 1262.93 218.326 1264.02 218.99C1267.45 220.939 1271.63 220.303 1275.47 219.614C1275.75 219.613 1276.02 219.556 1276.27 219.446C1276.52 219.337 1276.75 219.176 1276.94 218.974C1277.13 218.772 1277.28 218.532 1277.38 218.268C1277.48 218.005 1277.54 217.723 1277.53 217.438L1280.57 203.191C1281.12 201.08 1281.38 198.899 1281.34 196.711C1281.13 193.253 1279.34 188.462 1276.91 186.005C1274.08 183.143 1269.35 182.687 1265.65 182.278Z" fill="black"/>
<path d="M1254.5 236.371C1254.5 236.371 1255.63 228.085 1262.44 227.493C1266.28 227.114 1270.08 226.32 1273.77 225.125C1274.34 225.125 1281.71 225.717 1285.11 229.269C1285.11 229.269 1287.38 232.82 1288.51 230.452C1289.64 228.085 1289.64 226.901 1291.91 228.085C1294.18 229.269 1294.18 224.533 1298.15 225.125C1302.12 225.717 1312.32 252.353 1312.32 252.353L1308.92 256.496C1308.92 256.496 1304.38 288.459 1312.32 302.073C1320.25 315.687 1323.65 330.485 1315.72 333.445C1307.78 336.404 1252.23 363.04 1254.5 346.467C1256.77 329.893 1255.07 303.849 1252.8 303.257C1250.53 302.665 1238.06 255.904 1238.06 255.904C1238.56 252.936 1239.76 250.141 1241.54 247.767C1243.32 245.393 1245.63 243.512 1248.27 242.291C1257.34 238.147 1254.5 236.371 1254.5 236.371Z" fill="#0385B6"/>
<path d="M1295.31 227.493L1298.15 225.125C1298.15 225.125 1303.25 225.125 1303.82 223.941C1304.38 222.758 1307.22 222.758 1309.48 221.574C1311.75 220.39 1308.92 218.614 1311.75 217.43C1314.59 216.247 1314.59 217.43 1314.59 214.471C1314.59 211.511 1321.95 208.552 1322.52 205C1323.09 201.449 1328.76 184.875 1328.76 184.875L1339.53 188.427L1336.69 209.736C1336.69 209.736 1336.69 220.39 1331.59 227.493C1326.49 234.596 1315.15 252.353 1309.48 252.945C1303.82 253.537 1295.31 227.493 1295.31 227.493Z" fill="#0385B6"/>
<path d="M1241.46 252.945L1238.06 255.904C1238.06 255.904 1236.93 268.926 1236.93 269.518C1236.93 270.11 1238.06 277.213 1236.93 277.805C1235.8 278.397 1233.53 290.235 1234.1 290.827V292.603L1226.16 305.625V318.055L1244.87 305.625C1244.87 305.625 1255.63 304.441 1253.93 294.379C1252.23 284.316 1241.46 252.945 1241.46 252.945Z" fill="#0385B6"/>
</svg>
