<svg width="340" height="285" viewBox="0 0 340 285" fill="none" xmlns="http://www.w3.org/2000/svg">
<rect width="340" height="285" rx="20" fill="#00D49C" fill-opacity="0.2"/>
<path d="M340 267.524C340 269.098 338.716 270.627 336.312 272.079C323.983 279.523 282.173 285 232.487 285C230.532 285 228.591 284.991 226.663 284.973C169.993 284.481 124.975 276.857 124.975 267.524C124.975 257.871 173.109 250.047 232.487 250.047C248.748 250.047 264.162 250.635 277.978 251.683C281.45 251.948 284.817 252.242 288.079 252.563C289.435 252.694 290.771 252.832 292.088 252.978C298.296 253.65 304.048 254.426 309.253 255.29C311.78 255.709 314.173 256.147 316.433 256.604C322.319 257.798 327.256 259.12 331.07 260.537C336.812 262.68 340 265.042 340 267.524Z" fill="#00D49C"/>
<path d="M215.025 178.989C215.025 185.354 166.891 190.512 107.513 190.512C97.6995 190.512 88.1946 190.37 79.1621 190.105C44.3267 189.091 16.5343 186.241 5.34142 182.584C1.87633 181.455 0 180.245 0 178.989C0 177.553 2.45838 176.174 6.94723 174.906C9.56653 174.165 12.8775 173.462 16.7946 172.801C16.8254 172.798 16.8596 172.794 16.8939 172.786C25.8646 171.284 38.0026 170.017 52.2976 169.103C68.4349 168.062 87.3249 167.466 107.513 167.466C166.891 167.466 215.025 172.625 215.025 178.989Z" fill="#00D49C"/>
<path d="M210.14 122.414L202.29 119.962C202.29 119.962 199.215 119.273 201.094 112.537C202.973 105.8 206.699 107.685 206.699 107.685L213.663 109.955L216.413 110.907L212.544 116.996L212.22 121.054L210.14 122.414Z" fill="#00D49C"/>
<path d="M225.309 104.614L227.773 115.65L215.153 129.371L214.068 129.676L211.173 128.764L208.71 117.728L211.205 114.785L208.655 114.035L214.097 108.108L216.937 108.777L219.215 106.24L217.677 105.55L217.532 104.901L219.395 103.257L225.309 104.614Z" fill="#00D49C"/>
<path d="M213.486 120.181L215.116 127.484L222.637 119.508L220.754 112.103L213.486 120.181Z" fill="#00D49C"/>
<path d="M225.309 104.614L225.655 106.162L213.106 119.856L212.021 120.161L209.217 119.31L209.062 119.306L208.71 117.728L211.205 114.785L208.655 114.035L214.097 108.108L216.937 108.777L219.215 106.24L217.677 105.55L217.532 104.901L219.395 103.257L225.309 104.614Z" stroke="#00D49C" stroke-miterlimit="10"/>
<path d="M219.685 105.245C220.244 105.088 220.62 104.616 220.525 104.19C220.43 103.764 219.9 103.546 219.341 103.703C218.781 103.86 218.405 104.333 218.5 104.759C218.595 105.185 219.125 105.402 219.685 105.245Z" fill="#00D49C"/>
<path d="M211.712 117.057C212.272 116.9 212.648 116.427 212.553 116.001C212.458 115.576 211.927 115.358 211.368 115.515C210.809 115.672 210.432 116.145 210.527 116.57C210.622 116.996 211.153 117.214 211.712 117.057Z" fill="#00D49C"/>
<path d="M204.924 136.162L206.636 129.633C206.636 129.633 202.185 117.726 207.321 116.573C212.457 115.421 212.8 127.712 212.8 127.712L210.745 135.01L204.924 136.162Z" fill="#FFB6B6"/>
<path d="M236.71 123.466C244.221 123.466 250.311 116.635 250.311 108.209C250.311 99.7824 244.221 92.9515 236.71 92.9515C229.198 92.9515 223.109 99.7824 223.109 108.209C223.109 116.635 229.198 123.466 236.71 123.466Z" fill="#FFB6B6"/>
<path d="M232.309 118.979C232.309 118.979 231.509 130.197 229.509 131.095C227.509 131.992 251.111 138.275 251.111 138.275L245.11 130.646C245.11 130.646 243.91 118.979 246.71 116.286L232.309 118.979Z" fill="#FFB6B6"/>
<path d="M213.142 132.706L207.664 131.937C207.664 131.937 201.158 135.778 201.158 140.772C201.158 145.765 197.392 153.831 197.392 153.831C197.392 153.831 194.653 164.586 200.816 165.354C206.979 166.122 212.457 153.831 212.457 153.831L213.142 132.706Z" fill="#FF005C"/>
<path d="M210.06 193.777C210.06 193.777 198.077 181.102 194.653 181.87C191.229 182.638 184.381 183.79 184.381 189.552C184.381 195.313 195.68 208.757 195.68 208.757C195.68 208.757 204.24 229.882 212.457 230.65C217.863 231.2 223.236 232.098 228.55 233.339C228.55 233.339 224.783 248.703 226.838 252.928C228.892 257.153 236.767 262.146 237.452 261.762C238.137 261.378 247.724 251.392 251.833 237.18C255.942 222.968 258.681 212.214 254.914 211.445C251.148 210.677 210.06 193.777 210.06 193.777Z" fill="#2F2E41"/>
<path d="M185.408 188.4C185.408 188.4 183.011 188.015 183.353 194.545C183.696 201.075 184.723 224.505 186.435 229.114C188.147 233.723 188.489 239.1 187.805 241.021C187.12 242.941 185.75 246.014 188.147 246.398C190.544 246.782 200.473 245.246 201.501 244.862C202.528 244.478 203.555 237.948 202.87 237.948C202.185 237.948 200.473 237.564 201.158 234.875C201.843 232.187 202.185 232.187 201.158 231.418C200.131 230.65 197.392 229.498 198.077 228.73C198.761 227.962 199.446 209.909 199.446 209.909L185.408 188.4Z" fill="#2F2E41"/>
<path d="M188.832 245.246C188.832 245.246 183.011 243.326 182.326 247.551C182.326 247.551 181.299 254.08 185.75 256.385C188.623 257.908 191.372 259.707 193.968 261.762C193.968 261.762 201.158 264.835 201.5 260.994C201.843 257.153 200.131 243.326 200.131 243.326L188.832 245.246Z" fill="#2F2E41"/>
<path d="M227.523 249.855L238.479 239.869C238.479 239.869 236.425 252.16 239.164 254.464L240.415 258.568L236.912 261.783C236.912 261.783 226.153 259.842 227.523 249.855Z" fill="#2F2E41"/>
<path d="M242.93 232.955C242.93 232.955 235.74 235.259 236.767 243.325C237.795 251.391 239.112 260.155 239.112 260.155C239.112 260.155 239.507 281.735 244.642 283.272C249.778 284.808 251.148 281.735 251.148 281.735C251.148 281.735 256.986 264.872 255.257 259.842C253.163 253.753 250.147 246.917 251.148 244.862C252.133 242.839 250.463 231.803 242.93 232.955Z" fill="#2F2E41"/>
<path d="M247.039 126.944C247.039 126.944 244.3 127.328 239.849 128.096C235.398 128.865 232.316 125.024 229.919 125.792C227.523 126.56 207.664 131.937 207.664 131.937L210.745 158.44C210.745 158.44 206.979 189.168 207.664 194.545C208.348 199.923 199.446 199.154 204.582 205.684C209.718 212.214 218.62 217.975 236.767 216.055C254.914 214.134 257.311 214.518 257.311 211.445C257.311 208.373 253.202 182.254 254.572 179.949C255.942 177.645 258.681 174.956 257.311 172.268C255.942 169.579 254.572 168.042 256.626 165.738C258.681 163.433 259.708 161.129 259.708 159.976C259.708 158.824 264.502 140.003 264.502 140.003C264.502 140.003 262.447 130.785 260.05 130.401C257.654 130.017 255.599 128.096 253.887 128.096C252.175 128.096 251.148 128.48 250.121 128.096L247.039 126.944Z" fill="#FF005C"/>
<path d="M217.163 105.467C218.741 105.234 220.368 104.173 221.242 103.524C222.236 104.601 228.355 110.815 238.871 112.618C238.871 112.618 238.895 112.384 238.955 111.989L242.559 112.679L249.224 111.951C249.191 112.078 249.17 112.148 249.17 112.148C249.17 112.148 250.123 111.859 250.454 109.443C250.517 108.98 250.594 108.519 250.684 108.061C251.22 105.318 252.52 95.43 245.141 88.8221C239.768 84.0112 233.575 85.5293 229.66 87.3653C228.069 88.104 226.628 89.1955 225.422 90.5743C224.216 91.9531 223.271 93.5908 222.643 95.3893C222.323 96.2887 222.109 97.2313 222.008 98.193L221.854 98.6813C220.666 98.867 218.279 97.7477 216.996 98.2774C215.243 99.0016 214.381 101.97 214.205 102.857C214.029 103.745 214.852 105.808 217.163 105.467ZM239.866 108.257C240.815 105.517 242.606 102.524 245.888 102.673C249.292 102.828 249.889 105.86 249.769 108.453L241.301 108.798L239.866 108.257Z" fill="#2F2E41"/>
<path d="M240.66 86.2824C240.713 85.9362 240.094 85.529 239.279 85.3729C238.463 85.2167 237.759 85.3708 237.706 85.717C237.654 86.0631 238.272 86.4704 239.088 86.6265C239.903 86.7826 240.607 86.6286 240.66 86.2824Z" fill="#2F2E41"/>
<path d="M127.029 19.973C131.946 19.973 135.932 15.5019 135.932 9.98652C135.932 4.47112 131.946 0 127.029 0C122.113 0 118.127 4.47112 118.127 9.98652C118.127 15.5019 122.113 19.973 127.029 19.973Z" fill="#0385B6"/>
<path d="M112.317 73.4557C112.286 73.3209 109.306 59.8094 108.797 45.5789C108.497 37.2002 109.1 30.209 110.588 24.799C112.469 17.9629 115.776 13.6317 120.417 11.9261L120.63 12.6561C110.575 16.3513 109.017 32.5824 109.481 45.5481C109.987 59.7006 112.951 73.1354 112.981 73.2693L112.317 73.4557Z" fill="#2F2E41"/>
<path d="M150.115 148.996C145.383 155.96 150.807 169.521 150.807 169.521C150.807 169.521 163.901 171.792 168.632 164.829C173.364 157.865 167.941 144.303 167.941 144.303C167.941 144.303 154.846 142.032 150.115 148.996Z" fill="#0385B6"/>
<path d="M60.1148 160.394C64.0323 165.517 74.0198 163.116 74.0198 163.116C74.0198 163.116 77.6557 152.408 73.7383 147.285C69.8208 142.162 59.8333 144.563 59.8333 144.563C59.8333 144.563 56.1974 155.271 60.1148 160.394Z" fill="#0385B6"/>
<path d="M167.269 178.943C128.984 155.589 98.8132 156.829 80.2459 161.982C60.1468 167.559 48.9611 178.777 48.8504 178.889L48.3903 178.321C48.502 178.207 59.8165 166.86 80.0814 161.236C91.976 157.935 104.587 157.218 117.566 159.103C133.779 161.459 150.611 167.907 167.596 178.268L167.269 178.943Z" fill="#2F2E41"/>
<path d="M108.369 110.236H107.684V158.461H108.369V110.236Z" fill="#2F2E41"/>
<path d="M108.197 151.718C121.813 151.718 132.85 139.337 132.85 124.063C132.85 108.79 121.813 96.4084 108.197 96.4084C94.5821 96.4084 83.5448 108.79 83.5448 124.063C83.5448 139.337 94.5821 151.718 108.197 151.718Z" fill="#0385B6"/>
<path d="M108.197 98.3289C118.409 98.3289 126.687 89.0427 126.687 77.5876C126.687 66.1325 118.409 56.8464 108.197 56.8464C97.986 56.8464 89.708 66.1325 89.708 77.5876C89.708 89.0427 97.986 98.3289 108.197 98.3289Z" fill="#0385B6"/>
<path d="M108.197 59.1509C116.14 59.1509 122.578 51.9284 122.578 43.0189C122.578 34.1094 116.14 26.8868 108.197 26.8868C100.255 26.8868 93.8167 34.1094 93.8167 43.0189C93.8167 51.9284 100.255 59.1509 108.197 59.1509Z" fill="#0385B6"/>
</svg>
