<svg width="340" height="285" viewBox="0 0 340 285" fill="none" xmlns="http://www.w3.org/2000/svg">
<rect width="340" height="285" rx="20" fill="#0385B6" fill-opacity="0.2"/>
<path opacity="0.1" d="M158.506 248.126C235.393 248.126 297.721 242.843 297.721 236.326C297.721 229.809 235.393 224.525 158.506 224.525C81.6202 224.525 19.2916 229.809 19.2916 236.326C19.2916 242.843 81.6202 248.126 158.506 248.126Z" fill="#0385B6"/>
<g opacity="0.1">
<path opacity="0.1" d="M281.808 169.084C280.976 166.327 277.602 165.058 274.274 166.252C273.795 166.423 273.331 166.642 272.889 166.906C272.676 166.842 272.456 166.785 272.233 166.742C272.415 165.949 272.485 165.13 272.44 164.314C273.588 163.475 274.519 162.329 275.144 160.985C275.77 159.64 276.068 158.143 276.01 156.636C277.155 155.796 278.083 154.648 278.706 153.304C279.329 151.96 279.626 150.464 279.568 148.959C280.721 148.129 281.652 146.979 282.264 145.626C283.869 142.157 283.204 138.26 280.776 136.919C278.349 135.578 275.077 137.305 273.472 140.774C272.835 142.112 272.538 143.612 272.61 145.118C271.465 145.959 270.537 147.106 269.914 148.451C269.292 149.795 268.995 151.291 269.053 152.796C267.908 153.637 266.98 154.784 266.357 156.128C265.734 157.472 265.438 158.968 265.496 160.473C264.348 161.313 263.417 162.46 262.792 163.805C262.167 165.15 261.868 166.648 261.925 168.154C260.771 168.984 259.841 170.135 259.229 171.487C258.927 172.139 258.699 172.828 258.548 173.54C258.146 172.898 257.655 172.327 257.093 171.848C257.029 171.302 256.92 170.764 256.766 170.239C255.672 166.602 252.737 164.385 250.215 165.294C247.692 166.202 246.526 169.882 247.62 173.518C248.068 175.078 248.93 176.457 250.097 177.48C250.161 178.027 250.271 178.565 250.424 179.09C251.06 181.199 252.314 182.83 253.749 183.649C253.622 184.104 253.531 184.571 253.477 185.044C252.124 186.464 251.254 188.344 251.007 190.375C249.653 191.796 248.782 193.678 248.537 195.711C247.867 196.413 247.313 197.237 246.9 198.146C245.291 201.614 245.956 205.516 248.384 206.853C250.811 208.191 254.083 206.471 255.691 202.998C256.115 202.093 256.393 201.114 256.51 200.105C257.863 198.685 258.734 196.805 258.98 194.774C260.334 193.353 261.205 191.471 261.45 189.438C262.794 188.015 263.654 186.135 263.89 184.107C265.249 182.686 266.123 180.801 266.367 178.764C266.783 178.333 267.156 177.853 267.477 177.334C268.816 177.634 270.203 177.539 271.496 177.058C271.976 176.888 272.44 176.669 272.882 176.404C274.331 176.821 275.86 176.761 277.278 176.232C280.596 175.049 282.637 171.845 281.808 169.084Z" fill="#3F3D56"/>
<g opacity="0.1">
<path opacity="0.1" d="M275.935 158.213C275.591 158.582 275.214 158.912 274.808 159.197C274.86 160.218 274.736 161.24 274.445 162.211C274.702 161.822 274.932 161.412 275.132 160.985C275.539 160.116 275.81 159.179 275.935 158.213Z" fill="black"/>
<path opacity="0.1" d="M279.492 150.536C279.149 150.905 278.771 151.234 278.365 151.519C278.417 152.54 278.294 153.562 278.002 154.534C278.26 154.144 278.49 153.733 278.69 153.304C279.094 152.435 279.366 151.5 279.492 150.536Z" fill="black"/>
<path opacity="0.1" d="M271.424 147.679C271.394 147.152 271.413 146.624 271.48 146.102C270.844 146.786 270.315 147.58 269.914 148.451C269.717 148.881 269.55 149.327 269.416 149.785C269.959 148.951 270.64 148.237 271.424 147.679Z" fill="black"/>
<path opacity="0.1" d="M248.845 194.141C249.132 193.705 249.455 193.301 249.812 192.932C249.867 192.447 249.963 191.968 250.097 191.502C249.812 191.919 249.561 192.363 249.347 192.828C249.149 193.251 248.981 193.69 248.845 194.141Z" fill="black"/>
<path opacity="0.1" d="M251.315 188.813C251.601 188.377 251.925 187.972 252.282 187.604C252.335 187.131 252.426 186.665 252.553 186.209C252.281 186.615 252.04 187.044 251.833 187.493C251.63 187.918 251.457 188.359 251.315 188.813Z" fill="black"/>
<path opacity="0.1" d="M272.374 165.891C272.033 166.26 271.656 166.588 271.251 166.871C271.296 167.687 271.226 168.506 271.044 169.299C271.265 169.34 271.484 169.395 271.7 169.463C272.142 169.199 272.606 168.979 273.085 168.809C276.42 167.614 279.79 168.884 280.619 171.641C280.825 172.334 280.861 173.074 280.724 173.787C281.821 172.378 282.277 170.661 281.805 169.088C280.973 166.331 277.599 165.061 274.271 166.256C273.791 166.426 273.328 166.645 272.885 166.91C272.672 166.846 272.453 166.788 272.23 166.746C272.292 166.459 272.338 166.177 272.374 165.891Z" fill="black"/>
<path opacity="0.1" d="M247.627 196.819C247.342 197.237 247.091 197.681 246.877 198.146C246.678 198.577 246.509 199.024 246.372 199.483C246.665 199.046 246.994 198.639 247.355 198.267C247.405 197.777 247.496 197.292 247.627 196.819Z" fill="black"/>
<path opacity="0.1" d="M267.851 155.356C267.821 154.83 267.839 154.302 267.906 153.779C267.27 154.464 266.741 155.257 266.341 156.129C266.143 156.558 265.976 157.004 265.843 157.462C266.385 156.629 267.066 155.914 267.851 155.356Z" fill="black"/>
<path opacity="0.1" d="M262.711 186.667C262.647 187.199 262.537 187.723 262.384 188.233C262.64 187.843 262.869 187.431 263.068 187.003C263.283 186.544 263.462 186.065 263.602 185.573C263.334 185.964 263.036 186.33 262.711 186.667Z" fill="black"/>
<path opacity="0.1" d="M257.772 197.33C257.707 197.863 257.597 198.387 257.444 198.897C257.702 198.507 257.932 198.096 258.132 197.667C258.345 197.206 258.524 196.728 258.666 196.236C258.397 196.629 258.098 196.995 257.772 197.33Z" fill="black"/>
<path opacity="0.1" d="M260.241 191.995C260.177 192.527 260.067 193.052 259.914 193.561C260.175 193.178 260.409 192.774 260.615 192.353C260.83 191.893 261.008 191.415 261.149 190.922C260.874 191.307 260.571 191.666 260.241 191.995Z" fill="black"/>
<path opacity="0.1" d="M265.181 181.335C265.117 181.866 265.007 182.389 264.853 182.898C265.11 182.509 265.339 182.099 265.538 181.671C265.755 181.204 265.935 180.717 266.075 180.216C265.808 180.618 265.509 180.992 265.181 181.335Z" fill="black"/>
<path opacity="0.1" d="M249.009 167.851C251.538 166.946 254.473 169.159 255.56 172.796C255.714 173.322 255.823 173.862 255.888 174.409C256.45 174.888 256.94 175.458 257.342 176.1C257.493 175.387 257.722 174.697 258.024 174.044C258.138 173.801 258.263 173.568 258.391 173.329C258.019 172.767 257.578 172.264 257.08 171.834C257.016 171.288 256.906 170.749 256.753 170.225C255.659 166.588 252.724 164.371 250.202 165.279C248.76 165.794 247.764 167.214 247.378 169.009C247.821 168.476 248.383 168.077 249.009 167.851Z" fill="black"/>
<path opacity="0.1" d="M260.736 170.711C260.707 170.186 260.727 169.659 260.795 169.138C260.157 169.821 259.627 170.615 259.226 171.487C259.028 171.915 258.861 172.36 258.728 172.817C259.272 171.985 259.953 171.271 260.736 170.711Z" fill="black"/>
<path opacity="0.1" d="M264.293 163.03C264.264 162.505 264.284 161.978 264.352 161.457C263.713 162.138 263.183 162.931 262.783 163.803C262.585 164.232 262.419 164.678 262.285 165.136C262.827 164.303 263.509 163.588 264.293 163.03Z" fill="black"/>
<path opacity="0.1" d="M255.302 202.662C255.237 203.195 255.128 203.721 254.974 204.232C255.513 203.418 255.925 202.513 256.196 201.554C255.928 201.951 255.629 202.322 255.302 202.662Z" fill="black"/>
</g>
<path opacity="0.1" d="M286.663 133.604C287.817 132.775 288.748 131.624 289.359 130.271C290.967 126.802 290.302 122.901 287.875 121.56C285.447 120.219 282.175 121.946 280.567 125.419C279.93 126.761 279.633 128.265 279.709 129.774C278.564 130.615 277.635 131.762 277.013 133.106C276.39 134.45 276.093 135.947 276.151 137.452C274.996 138.28 274.065 139.43 273.455 140.784C273.258 141.209 273.093 141.65 272.961 142.104C273.816 140.752 275.056 139.746 276.489 139.243C276.652 139.794 276.913 140.304 277.258 140.744C277.603 141.183 278.024 141.544 278.498 141.805C278.971 142.066 279.487 142.221 280.016 142.263C280.545 142.304 281.076 142.231 281.579 142.047C282.063 143.601 282.063 145.287 281.579 146.842C281.835 146.457 282.063 146.05 282.26 145.626C282.896 144.287 283.192 142.787 283.118 141.281C284.265 140.442 285.194 139.295 285.817 137.95C286.44 136.606 286.736 135.109 286.676 133.604H286.663Z" fill="#3F3D56"/>
<path opacity="0.1" d="M325.761 84.3848C326.748 83.8818 327.703 83.3046 328.617 82.6576L318.027 74.2112L330.474 81.2093C332.993 79.0256 335.076 76.3036 336.597 73.2101C338.117 70.1166 339.044 66.7168 339.319 63.2188L318.165 63.4548L339.365 59.5857C339.145 56.0843 338.273 52.6688 336.8 49.5489C335.328 46.4291 333.287 43.6708 330.802 41.4436C328.318 39.2163 325.442 37.567 322.353 36.5971C319.263 35.6272 316.024 35.3571 312.836 35.8034C309.647 36.2497 306.575 37.403 303.81 39.1924C301.044 40.9819 298.643 43.3696 296.753 46.2091C294.864 49.0486 293.526 52.2797 292.822 55.7042C292.118 59.1286 292.063 62.674 292.66 66.1225C291.123 66.903 289.666 67.8621 288.317 68.9832L299.372 85.7651L286.099 71.0751C283.298 74.0779 281.227 77.7958 280.073 81.8923C278.92 85.9889 278.72 90.3348 279.492 94.5368C275.483 96.5799 272.081 99.8131 269.674 103.867C267.268 107.921 265.955 112.632 265.886 117.462C265.816 122.292 266.993 127.046 269.281 131.18C271.569 135.315 274.876 138.663 278.824 140.843C282.773 143.023 287.204 143.946 291.61 143.507C296.017 143.068 300.222 141.285 303.744 138.361C307.266 135.437 309.963 131.491 311.528 126.972C313.093 122.454 313.462 117.546 312.593 112.81C317.391 110.372 321.298 106.243 323.687 101.087C326.075 95.9314 326.806 90.0486 325.761 84.3848Z" fill="#0385B6"/>
<path opacity="0.1" d="M281.579 77.8336C279.183 82.9869 278.45 88.8722 279.499 94.5368C275.489 96.5799 272.087 99.8131 269.681 103.867C267.275 107.921 265.962 112.632 265.892 117.462C265.823 122.292 266.999 127.046 269.287 131.18C271.575 135.315 274.882 138.663 278.831 140.843C282.78 143.023 287.21 143.946 291.617 143.507C296.024 143.068 300.228 141.285 303.75 138.361C307.272 135.437 309.97 131.491 311.535 126.972C313.1 122.454 313.468 117.546 312.599 112.81C317.228 110.464 282.765 75.2554 281.579 77.8336Z" fill="black"/>
<path opacity="0.1" d="M308.157 40.5546C310.091 40.5546 311.659 38.8431 311.659 36.7319C311.659 34.6207 310.091 32.9093 308.157 32.9093C306.224 32.9093 304.656 34.6207 304.656 36.7319C304.656 38.8431 306.224 40.5546 308.157 40.5546Z" fill="#0385B6"/>
<path opacity="0.1" d="M328.611 43.0077C330.544 43.0077 332.112 41.2962 332.112 39.185C332.112 37.0738 330.544 35.3624 328.611 35.3624C326.677 35.3624 325.109 37.0738 325.109 39.185C325.109 41.2962 326.677 43.0077 328.611 43.0077Z" fill="#0385B6"/>
<path opacity="0.1" d="M336.498 77.358C338.432 77.358 340 75.6466 340 73.5354C340 71.4242 338.432 69.7127 336.498 69.7127C334.564 69.7127 332.997 71.4242 332.997 73.5354C332.997 75.6466 334.564 77.358 336.498 77.358Z" fill="#0385B6"/>
<path opacity="0.1" d="M325.853 94.5118C327.786 94.5118 329.354 92.8003 329.354 90.6891C329.354 88.5779 327.786 86.8665 325.853 86.8665C323.919 86.8665 322.351 88.5779 322.351 90.6891C322.351 92.8003 323.919 94.5118 325.853 94.5118Z" fill="#0385B6"/>
<path opacity="0.1" d="M311.309 130.139C313.243 130.139 314.81 128.427 314.81 126.316C314.81 124.205 313.243 122.493 311.309 122.493C309.375 122.493 307.807 124.205 307.807 126.316C307.807 128.427 309.375 130.139 311.309 130.139Z" fill="#0385B6"/>
<path opacity="0.1" d="M311.309 130.139C313.243 130.139 314.81 128.427 314.81 126.316C314.81 124.205 313.243 122.493 311.309 122.493C309.375 122.493 307.807 124.205 307.807 126.316C307.807 128.427 309.375 130.139 311.309 130.139Z" fill="black"/>
<path opacity="0.1" d="M278.971 89.788C280.905 89.788 282.473 88.0765 282.473 85.9653C282.473 83.8541 280.905 82.1426 278.971 82.1426C277.038 82.1426 275.47 83.8541 275.47 85.9653C275.47 88.0765 277.038 89.788 278.971 89.788Z" fill="#0385B6"/>
<path opacity="0.1" d="M278.971 89.788C280.905 89.788 282.473 88.0765 282.473 85.9653C282.473 83.8541 280.905 82.1426 278.971 82.1426C277.038 82.1426 275.47 83.8541 275.47 85.9653C275.47 88.0765 277.038 89.788 278.971 89.788Z" fill="black"/>
<path opacity="0.1" d="M275.237 148.841C272.908 147.557 272.204 143.92 273.563 140.566C273.491 140.702 273.423 140.842 273.357 140.988C271.749 144.457 272.414 148.355 274.841 149.696C277.268 151.036 280.541 149.309 282.146 145.841C282.214 145.698 282.273 145.551 282.332 145.408C280.665 148.594 277.563 150.128 275.237 148.841Z" fill="black"/>
<path opacity="0.1" d="M271.778 156.307C269.452 155.024 268.745 151.387 270.108 148.029C270.036 148.169 269.963 148.308 269.898 148.451C268.29 151.92 268.955 155.821 271.382 157.158C273.809 158.496 277.081 156.776 278.69 153.304C278.755 153.161 278.818 153.018 278.876 152.871C277.206 156.057 274.107 157.591 271.778 156.307Z" fill="black"/>
<path opacity="0.1" d="M268.319 163.77C265.993 162.487 265.286 158.85 266.649 155.496C266.576 155.632 266.504 155.771 266.439 155.918C264.831 159.386 265.499 163.284 267.926 164.625C270.353 165.966 273.622 164.239 275.231 160.77C275.296 160.627 275.358 160.481 275.417 160.337C273.75 163.524 270.648 165.058 268.319 163.77Z" fill="black"/>
<path opacity="0.1" d="M264.873 171.255C262.544 169.971 261.84 166.334 263.199 162.98C263.127 163.116 263.058 163.255 262.99 163.398C261.385 166.867 262.05 170.768 264.477 172.109C266.904 173.45 270.176 171.723 271.781 168.251C271.85 168.108 271.909 167.965 271.968 167.818C270.291 170.987 267.189 172.521 264.873 171.255Z" fill="black"/>
<path opacity="0.1" d="M261.404 178.7C259.075 177.416 258.371 173.779 259.73 170.425C259.658 170.561 259.589 170.701 259.524 170.847C257.916 174.316 258.581 178.214 261.008 179.555C263.435 180.895 266.707 179.168 268.316 175.7C268.381 175.557 268.444 175.41 268.503 175.267C266.838 178.453 263.73 179.987 261.404 178.7Z" fill="black"/>
<path opacity="0.1" d="M257.945 186.166C255.619 184.883 254.912 181.246 256.275 177.892C256.203 178.028 256.13 178.167 256.065 178.31C254.457 181.779 255.122 185.68 257.552 187.021C259.983 188.362 263.235 186.631 264.873 183.163C264.939 183.02 265.001 182.877 265.06 182.73C263.373 185.916 260.287 187.45 257.945 186.166Z" fill="black"/>
<path opacity="0.1" d="M254.486 193.629C252.16 192.346 251.453 188.709 252.815 185.355C252.743 185.494 252.675 185.63 252.606 185.777C251.001 189.245 251.666 193.143 254.093 194.484C256.52 195.825 259.793 194.098 261.398 190.629C261.466 190.486 261.525 190.339 261.584 190.196C259.917 193.383 256.815 194.917 254.486 193.629Z" fill="black"/>
<path opacity="0.1" d="M251.03 201.096C248.701 199.812 247.997 196.175 249.356 192.821C249.284 192.957 249.216 193.097 249.15 193.24C247.542 196.708 248.207 200.61 250.634 201.951C253.061 203.292 256.334 201.564 257.942 198.092C258.007 197.949 258.066 197.806 258.125 197.659C256.458 200.846 253.356 202.365 251.03 201.096Z" fill="black"/>
<path opacity="0.1" d="M248.757 206.002C246.431 204.715 245.724 201.082 247.086 197.724C247.014 197.863 246.942 198.003 246.877 198.146C245.268 201.614 245.933 205.516 248.361 206.853C250.788 208.191 254.06 206.471 255.669 202.998C255.734 202.855 255.796 202.712 255.855 202.566C254.185 205.752 251.083 207.286 248.757 206.002Z" fill="black"/>
<path opacity="0.1" d="M311.253 172.778C311.614 171.648 311.834 170.471 311.908 169.277C312.149 169.277 312.387 169.222 312.607 169.116C312.827 169.011 313.025 168.857 313.189 168.664C313.352 168.471 313.477 168.244 313.556 167.996C313.635 167.748 313.667 167.484 313.648 167.223C313.63 166.961 313.562 166.706 313.45 166.474C313.337 166.242 313.182 166.037 312.994 165.874C312.805 165.71 312.588 165.591 312.356 165.523C312.123 165.455 311.881 165.44 311.643 165.48C311.253 163.544 310.474 161.728 309.361 160.162C308.248 158.597 306.83 157.321 305.209 156.429C305.419 155.977 305.455 155.452 305.31 154.97C305.165 154.489 304.851 154.09 304.436 153.861C304.022 153.633 303.541 153.593 303.1 153.752C302.659 153.91 302.294 154.253 302.084 154.705C302.009 154.866 301.956 155.039 301.927 155.217C300.005 154.826 298.026 154.942 296.153 155.554C294.28 156.167 292.568 157.259 291.16 158.739C290.097 158.551 289.015 158.516 287.943 158.635L286.525 165.683L286.44 158.889C284.812 159.279 283.274 160.027 281.92 161.087C280.566 162.148 279.424 163.498 278.564 165.057C277.704 166.616 277.145 168.349 276.919 170.152C276.694 171.955 276.808 173.788 277.254 175.541C277.7 177.294 278.469 178.93 279.514 180.347C280.558 181.765 281.857 182.935 283.33 183.786C284.803 184.637 286.419 185.152 288.08 185.298C289.741 185.444 291.412 185.219 292.991 184.636C293.16 184.969 293.417 185.238 293.728 185.408C294.049 185.586 294.412 185.652 294.768 185.596C295.124 185.54 295.456 185.366 295.718 185.097C295.981 184.828 296.16 184.478 296.233 184.093C296.306 183.708 296.269 183.309 296.126 182.948C296.685 182.529 297.211 182.06 297.698 181.546C300.256 182 302.879 181.559 305.192 180.285C307.505 179.011 309.389 176.97 310.575 174.455L303.974 173.243L311.253 172.778Z" fill="#0385B6"/>
<g opacity="0.1">
<path opacity="0.1" d="M301.056 176.2C298.619 172.689 297.125 168.53 295.405 164.539C294.715 162.901 293.942 161.306 293.09 159.762L291.799 158.12C291.583 158.321 291.367 158.528 291.144 158.746C290.08 158.558 288.999 158.523 287.927 158.642L286.509 165.691L286.424 158.896C284.796 159.286 283.258 160.034 281.903 161.094C280.549 162.155 279.407 163.506 278.548 165.064C277.688 166.623 277.128 168.356 276.903 170.159C276.678 171.962 276.792 173.796 277.238 175.549C277.684 177.302 278.453 178.937 279.497 180.354C280.542 181.772 281.84 182.942 283.313 183.793C284.786 184.645 286.403 185.159 288.064 185.305C289.725 185.451 291.396 185.226 292.975 184.643C293.144 184.976 293.401 185.245 293.712 185.415C294.033 185.593 294.396 185.659 294.752 185.603C295.108 185.548 295.44 185.373 295.702 185.104C295.964 184.835 296.144 184.485 296.217 184.1C296.29 183.715 296.252 183.316 296.11 182.955C296.668 182.536 297.194 182.067 297.682 181.553C300.186 181.996 302.753 181.581 305.033 180.366C303.511 179.219 302.169 177.812 301.056 176.2Z" fill="black"/>
</g>
<path opacity="0.1" d="M257.899 161.11C258.034 160.818 258.099 160.494 258.086 160.167C258.073 159.841 257.984 159.524 257.827 159.246C257.67 158.968 257.45 158.738 257.189 158.579C256.927 158.421 256.633 158.338 256.334 158.339C255.837 155.465 254.491 152.848 252.501 150.89C252.822 149.525 252.943 148.113 252.861 146.706L246.425 145.508L252.675 145.079C252.562 144.438 252.408 143.807 252.213 143.191C252.456 143.008 252.654 142.762 252.789 142.476C252.947 142.134 253.007 141.748 252.962 141.369C252.917 140.989 252.768 140.633 252.536 140.347C252.303 140.06 251.998 139.857 251.658 139.762C251.318 139.667 250.96 139.686 250.631 139.815C248.975 137.262 246.553 135.422 243.784 134.616C241.016 133.81 238.076 134.088 235.476 135.402C232.875 136.716 230.779 138.983 229.551 141.809C228.323 144.636 228.04 147.842 228.753 150.872C228.374 151.047 228.064 151.364 227.881 151.766C227.721 152.112 227.66 152.504 227.709 152.888C227.757 153.273 227.912 153.632 228.152 153.919C228.392 154.205 228.706 154.404 229.053 154.491C229.4 154.577 229.762 154.546 230.092 154.401C230.721 155.553 231.503 156.596 232.415 157.495C231.751 160.319 231.951 163.302 232.985 165.991L241.616 163.545L233.918 167.965C235.279 170.326 237.282 172.164 239.647 173.221C242.012 174.278 244.62 174.502 247.107 173.861C249.594 173.221 251.836 171.747 253.518 169.648C255.201 167.548 256.24 164.927 256.491 162.15C256.787 162.122 257.072 162.012 257.319 161.83C257.565 161.648 257.765 161.4 257.899 161.11Z" fill="#0385B6"/>
<path opacity="0.1" d="M257.899 161.11C258.034 160.818 258.099 160.494 258.086 160.167C258.073 159.841 257.984 159.524 257.827 159.246C257.67 158.968 257.45 158.738 257.189 158.579C256.927 158.421 256.633 158.338 256.334 158.339C255.837 155.465 254.491 152.848 252.501 150.89C252.553 150.665 252.599 150.443 252.639 150.218C252.41 150.398 252.198 150.603 252.006 150.829C250.844 152.22 250.247 154.09 249.098 155.496C247.742 157.155 245.711 158.02 243.683 158.253C241.655 158.485 239.615 158.145 237.613 157.72C235.956 157.362 234.275 156.948 232.595 157.123C232.431 157.123 232.267 157.162 232.117 157.191C232.215 157.294 232.313 157.398 232.415 157.498C231.751 160.322 231.951 163.306 232.985 165.995L241.616 163.545L233.918 167.965C235.279 170.326 237.282 172.164 239.647 173.221C242.012 174.278 244.62 174.502 247.107 173.861C249.594 173.221 251.836 171.747 253.518 169.648C255.201 167.548 256.24 164.927 256.491 162.15C256.787 162.122 257.072 162.012 257.319 161.83C257.565 161.648 257.765 161.4 257.899 161.11Z" fill="black"/>
</g>
<g opacity="0.1">
<path opacity="0.1" d="M34.3137 182.816C34.733 181.425 36.4331 180.785 38.1102 181.385C38.3514 181.472 38.585 181.582 38.8079 181.714C38.916 181.682 39.0274 181.654 39.1355 181.632C39.0435 181.233 39.0081 180.82 39.0307 180.409C38.4549 179.984 37.9882 179.406 37.6746 178.729C37.3611 178.051 37.2111 177.298 37.2389 176.54C36.6581 176.123 36.19 175.544 35.8828 174.863C35.5627 174.188 35.4123 173.433 35.4471 172.674C34.8667 172.255 34.3988 171.675 34.091 170.994C33.2852 169.249 33.6127 167.285 34.8411 166.606C36.0695 165.927 37.7139 166.803 38.5229 168.548C38.8425 169.224 38.9917 169.98 38.9553 170.74C39.5326 171.162 40.0006 171.74 40.3144 172.417C40.6282 173.094 40.7772 173.847 40.7471 174.605C41.3242 175.029 41.792 175.607 42.1057 176.285C42.4194 176.962 42.5686 177.716 42.5389 178.475C43.1161 178.897 43.5841 179.475 43.8979 180.152C44.2117 180.828 44.3607 181.582 44.3306 182.34C44.9122 182.759 45.3814 183.339 45.69 184.021C45.8373 184.351 45.9473 184.699 46.0176 185.058C46.2194 184.734 46.4658 184.445 46.7481 184.203C46.7817 183.927 46.8388 183.656 46.9184 183.391C47.472 181.561 48.9493 180.445 50.2235 180.888C51.4978 181.332 52.0808 183.202 51.5338 185.033C51.3077 185.819 50.8734 186.515 50.2858 187.032C50.2517 187.306 50.1947 187.577 50.1154 187.84C49.8466 188.81 49.2477 189.632 48.4416 190.136C48.5048 190.37 48.5508 190.609 48.5792 190.851C48.9173 191.205 49.1976 191.62 49.4079 192.077C49.6222 192.534 49.7619 193.028 49.8206 193.536C50.1601 193.89 50.4415 194.305 50.6526 194.763C50.8665 195.22 51.0062 195.713 51.0654 196.222C51.4056 196.576 51.6871 196.993 51.8974 197.452C52.7065 199.197 52.3723 201.164 51.1505 201.836C49.9287 202.508 48.2778 201.643 47.4687 199.894C47.2554 199.438 47.1158 198.944 47.056 198.435C46.3735 197.721 45.9345 196.773 45.8112 195.75C45.1288 195.035 44.6897 194.088 44.5665 193.064C44.2273 192.71 43.9459 192.295 43.7345 191.838C43.5226 191.38 43.3831 190.887 43.3217 190.379C42.9836 190.024 42.7033 189.61 42.493 189.152C42.2787 188.696 42.139 188.202 42.0803 187.693C41.8694 187.479 41.6815 187.239 41.5201 186.978C40.8462 187.129 40.1478 187.082 39.4958 186.842C39.2537 186.754 39.0191 186.643 38.7948 186.51C38.0663 186.721 37.2967 186.691 36.5838 186.424C34.923 185.82 33.8977 184.207 34.3137 182.816Z" fill="#3F3D56"/>
<g opacity="0.1">
<path opacity="0.1" d="M37.2716 177.334C37.4453 177.521 37.6363 177.687 37.8416 177.831C37.8139 178.344 37.8761 178.859 38.025 179.347C37.8934 179.152 37.7773 178.945 37.6778 178.728C37.4729 178.291 37.3357 177.82 37.2716 177.334Z" fill="black"/>
<path opacity="0.1" d="M35.4799 173.472C35.6544 173.657 35.8453 173.822 36.0498 173.965C36.0223 174.48 36.0845 174.996 36.2333 175.485C35.8365 174.891 35.5779 174.2 35.4799 173.472Z" fill="black"/>
<path opacity="0.1" d="M39.5515 172.031C39.5671 171.766 39.5583 171.5 39.5253 171.237C39.8455 171.582 40.1121 171.982 40.3147 172.421C40.4136 172.637 40.4968 172.862 40.5636 173.093C40.2907 172.672 39.9472 172.312 39.5515 172.031Z" fill="black"/>
<path opacity="0.1" d="M50.918 195.439C50.7748 195.219 50.6124 195.016 50.4332 194.831C50.4033 194.589 50.3551 194.349 50.2891 194.116C50.4312 194.326 50.5572 194.548 50.6658 194.781C50.7651 194.993 50.8495 195.213 50.918 195.439Z" fill="black"/>
<path opacity="0.1" d="M49.6634 192.753C49.5202 192.534 49.3578 192.33 49.1786 192.145C49.1518 191.903 49.1058 191.664 49.041 191.43C49.3109 191.829 49.5189 192.274 49.6568 192.746L49.6634 192.753Z" fill="black"/>
<path opacity="0.1" d="M39.0667 181.21C39.2386 181.396 39.4287 181.56 39.6334 181.7C39.6089 182.111 39.6443 182.524 39.7382 182.923C39.6278 182.944 39.5185 182.972 39.4106 183.005C39.1863 182.873 38.9517 182.763 38.7096 182.676C37.0325 182.076 35.3325 182.716 34.9164 184.107C34.8122 184.453 34.793 184.823 34.8608 185.179C34.5913 184.87 34.3996 184.49 34.3043 184.076C34.2091 183.661 34.2134 183.228 34.317 182.816C34.7363 181.425 36.4364 180.785 38.1135 181.385C38.3547 181.472 38.5882 181.582 38.8112 181.714C38.9193 181.682 39.0307 181.654 39.1388 181.632C39.1073 181.493 39.0832 181.352 39.0667 181.21Z" fill="black"/>
<path opacity="0.1" d="M51.5338 196.787C51.6767 196.998 51.8027 197.221 51.9105 197.456C52.0105 197.672 52.0948 197.897 52.1627 198.128C52.0195 197.908 51.8572 197.703 51.6779 197.516C51.6487 197.269 51.6005 197.025 51.5338 196.787Z" fill="black"/>
<path opacity="0.1" d="M41.3433 175.903C41.3589 175.639 41.3502 175.373 41.3171 175.11C41.6381 175.454 41.9048 175.854 42.1065 176.293C42.2054 176.509 42.2886 176.732 42.3555 176.962C42.0824 176.542 41.7389 176.183 41.3433 175.903Z" fill="black"/>
<path opacity="0.1" d="M43.9343 191.673C43.9649 191.94 44.0187 192.204 44.0948 192.46C43.8218 192.051 43.6137 191.596 43.479 191.112C43.6151 191.314 43.7675 191.501 43.9343 191.673Z" fill="black"/>
<path opacity="0.1" d="M46.4205 197.044C46.4536 197.311 46.5084 197.575 46.5843 197.831C46.4527 197.636 46.3365 197.429 46.2371 197.212C46.1293 196.983 46.0395 196.743 45.9685 196.497C46.1057 196.692 46.2568 196.875 46.4205 197.044Z" fill="black"/>
<path opacity="0.1" d="M45.179 194.359C45.2097 194.626 45.2634 194.889 45.3395 195.146C45.2091 194.95 45.093 194.743 44.9923 194.527C44.8842 194.297 44.7943 194.058 44.7237 193.812C44.8604 194.008 45.0128 194.191 45.179 194.359Z" fill="black"/>
<path opacity="0.1" d="M42.6895 188.984C42.7198 189.253 42.7736 189.517 42.8501 189.774C42.7258 189.578 42.6163 189.371 42.5225 189.156C42.4127 188.927 42.3217 188.687 42.2506 188.441C42.3815 188.636 42.5284 188.818 42.6895 188.984Z" fill="black"/>
<path opacity="0.1" d="M50.8361 182.194C49.5619 181.736 48.0845 182.852 47.5342 184.697C47.4546 184.961 47.3976 185.233 47.3639 185.508C47.0806 185.749 46.8331 186.036 46.6302 186.359C46.5541 186 46.4386 185.652 46.2862 185.322C46.2305 185.201 46.1683 185.083 46.1028 184.965C46.2887 184.683 46.5091 184.43 46.7579 184.214C46.7916 183.938 46.8486 183.666 46.9282 183.402C47.4818 181.571 48.9591 180.456 50.2334 180.899C50.5988 181.052 50.9217 181.306 51.1708 181.635C51.4199 181.965 51.5867 182.359 51.655 182.78C51.4324 182.511 51.1505 182.309 50.8361 182.194Z" fill="black"/>
<path opacity="0.1" d="M44.9268 183.635C44.9424 183.37 44.9336 183.104 44.9006 182.841C45.2216 183.185 45.4883 183.585 45.69 184.024C45.7889 184.241 45.8722 184.466 45.939 184.697C45.6669 184.275 45.3233 183.915 44.9268 183.635Z" fill="black"/>
<path opacity="0.1" d="M43.135 179.765C43.1506 179.501 43.1418 179.235 43.1088 178.972C43.4283 179.317 43.6948 179.717 43.8983 180.155C43.9971 180.372 44.0804 180.597 44.1472 180.828C43.8742 180.407 43.5308 180.047 43.135 179.765Z" fill="black"/>
<path opacity="0.1" d="M47.6653 199.73C47.6967 199.998 47.7515 200.263 47.829 200.52C47.6981 200.323 47.582 200.115 47.4818 199.898C47.3741 199.668 47.2842 199.429 47.2132 199.183C47.3504 199.378 47.5016 199.561 47.6653 199.73Z" fill="black"/>
</g>
<path opacity="0.1" d="M31.8668 164.94C31.2861 164.522 30.8179 163.943 30.5107 163.263C29.7016 161.514 30.0357 159.551 31.2575 158.875C32.4794 158.199 34.1303 159.068 34.9394 160.817C35.2594 161.491 35.4087 162.247 35.3718 163.005C35.9488 163.429 36.4166 164.007 36.7303 164.684C37.0441 165.362 37.1932 166.116 37.1635 166.874C37.7446 167.292 38.2138 167.871 38.5229 168.551C38.6212 168.766 38.7044 168.988 38.7719 169.216C38.338 168.54 37.7133 168.038 36.9932 167.786C36.913 168.065 36.7826 168.325 36.6096 168.548C36.4366 168.772 36.2245 168.956 35.9857 169.089C35.7469 169.222 35.4862 169.302 35.2188 169.324C34.9514 169.346 34.6827 169.309 34.4284 169.216C34.1855 169.999 34.1855 170.848 34.4284 171.63C34.3053 171.436 34.1958 171.231 34.1008 171.019C33.7807 170.344 33.6304 169.589 33.6651 168.83C33.0888 168.406 32.6215 167.828 32.3078 167.15C31.9942 166.473 31.8446 165.719 31.8734 164.961L31.8668 164.94Z" fill="#3F3D56"/>
<path opacity="0.1" d="M12.1737 140.144C11.6768 139.891 11.1963 139.6 10.7357 139.275L16.0684 135.02L9.79884 138.542C8.5312 137.442 7.48258 136.071 6.71715 134.513C5.95172 132.955 5.48557 131.242 5.34724 129.481L16.0062 129.602L5.32431 127.65C5.41629 125.871 5.84285 124.132 6.57743 122.541C7.31201 120.95 8.33886 119.541 9.59401 118.402C10.8492 117.263 12.3057 116.418 13.8729 115.92C15.4401 115.423 17.0844 115.283 18.7033 115.509C20.3223 115.736 21.8811 116.324 23.2828 117.237C24.6845 118.149 25.899 119.368 26.8506 120.815C27.8022 122.263 28.4705 123.909 28.8139 125.651C29.1573 127.393 29.1685 129.193 28.8467 130.94C29.6204 131.331 30.3539 131.81 31.0348 132.37L25.4662 140.824L32.1518 133.429C33.5626 134.941 34.6057 136.814 35.1868 138.878C35.7679 140.941 35.8686 143.13 35.4799 145.247C37.5023 146.275 39.2188 147.904 40.4331 149.948C41.6474 151.991 42.3105 154.366 42.3465 156.801C42.3825 159.236 41.79 161.633 40.6368 163.718C39.4836 165.803 37.8161 167.492 35.8252 168.591C33.8342 169.69 31.6001 170.156 29.3784 169.934C27.1566 169.712 25.0368 168.812 23.2615 167.337C21.4861 165.862 20.1268 163.871 19.3391 161.593C18.5513 159.314 18.3669 156.839 18.8069 154.451C16.393 153.223 14.427 151.146 13.2241 148.552C12.0213 145.958 11.6514 142.999 12.1737 140.148V140.144Z" fill="#0385B6"/>
<path opacity="0.1" d="M34.4316 136.847C35.6397 139.443 36.0091 142.408 35.4799 145.261C37.5023 146.29 39.2188 147.919 40.4331 149.962C41.6474 152.005 42.3104 154.38 42.3465 156.815C42.3825 159.251 41.79 161.648 40.6368 163.733C39.4835 165.818 37.8161 167.506 35.8252 168.605C33.8342 169.705 31.6001 170.17 29.3783 169.948C27.1566 169.726 25.0368 168.826 23.2614 167.351C21.4861 165.876 20.1268 163.886 19.3391 161.607C18.5513 159.328 18.3669 156.854 18.8068 154.466C16.4713 153.282 33.8322 135.549 34.4316 136.847Z" fill="black"/>
<path opacity="0.1" d="M21.0408 118.066C22.0159 118.066 22.8064 117.203 22.8064 116.139C22.8064 115.075 22.0159 114.212 21.0408 114.212C20.0657 114.212 19.2752 115.075 19.2752 116.139C19.2752 117.203 20.0657 118.066 21.0408 118.066Z" fill="#0385B6"/>
<path opacity="0.1" d="M10.7357 119.304C11.7108 119.304 12.5012 118.441 12.5012 117.376C12.5012 116.312 11.7108 115.449 10.7357 115.449C9.76057 115.449 8.97009 116.312 8.97009 117.376C8.97009 118.441 9.76057 119.304 10.7357 119.304Z" fill="#0385B6"/>
<path opacity="0.1" d="M6.76557 136.608C7.74067 136.608 8.53114 135.745 8.53114 134.68C8.53114 133.616 7.74067 132.753 6.76557 132.753C5.79047 132.753 5 133.616 5 134.68C5 135.745 5.79047 136.608 6.76557 136.608Z" fill="#0385B6"/>
<path opacity="0.1" d="M12.1278 145.251C13.1029 145.251 13.8934 144.388 13.8934 143.323C13.8934 142.259 13.1029 141.396 12.1278 141.396C11.1527 141.396 10.3622 142.259 10.3622 143.323C10.3622 144.388 11.1527 145.251 12.1278 145.251Z" fill="#0385B6"/>
<path opacity="0.1" d="M19.4522 163.198C20.4273 163.198 21.2177 162.335 21.2177 161.271C21.2177 160.206 20.4273 159.343 19.4522 159.343C18.4771 159.343 17.6866 160.206 17.6866 161.271C17.6866 162.335 18.4771 163.198 19.4522 163.198Z" fill="#0385B6"/>
<path opacity="0.1" d="M19.4522 163.198C20.4273 163.198 21.2177 162.335 21.2177 161.271C21.2177 160.206 20.4273 159.343 19.4522 159.343C18.4771 159.343 17.6866 160.206 17.6866 161.271C17.6866 162.335 18.4771 163.198 19.4522 163.198Z" fill="black"/>
<path opacity="0.1" d="M35.7419 142.869C36.717 142.869 37.5075 142.006 37.5075 140.942C37.5075 139.877 36.717 139.014 35.7419 139.014C34.7668 139.014 33.9763 139.877 33.9763 140.942C33.9763 142.006 34.7668 142.869 35.7419 142.869Z" fill="#0385B6"/>
<path opacity="0.1" d="M35.7419 142.869C36.717 142.869 37.5075 142.006 37.5075 140.942C37.5075 139.877 36.717 139.014 35.7419 139.014C34.7668 139.014 33.9763 139.877 33.9763 140.942C33.9763 142.006 34.7668 142.869 35.7419 142.869Z" fill="black"/>
<path opacity="0.1" d="M37.6254 172.617C38.7981 171.97 39.1519 170.139 38.4672 168.448C38.5033 168.519 38.5393 168.587 38.5721 168.659C39.3811 170.407 39.047 172.37 37.8219 173.046C36.5969 173.722 34.9525 172.853 34.1434 171.105C34.1106 171.033 34.0779 170.962 34.0484 170.886C34.8902 172.492 36.4527 173.264 37.6254 172.617Z" fill="black"/>
<path opacity="0.1" d="M39.3648 176.379C40.5375 175.732 40.8945 173.897 40.2099 172.21C40.2459 172.278 40.282 172.349 40.3147 172.421C41.1238 174.169 40.7897 176.132 39.5646 176.808C38.3395 177.484 36.6951 176.615 35.886 174.866C35.85 174.795 35.8205 174.72 35.791 174.648C36.6329 176.261 38.1986 177.026 39.3648 176.379Z" fill="black"/>
<path opacity="0.1" d="M41.1074 180.137C42.2801 179.49 42.6371 177.659 41.9493 175.968C41.9886 176.039 42.0213 176.107 42.0574 176.182C42.8664 177.927 42.529 179.894 41.3072 180.566C40.0854 181.239 38.4378 180.373 37.6287 178.625C37.5927 178.553 37.5632 178.482 37.5337 178.407C38.3723 180.012 39.9347 180.785 41.1074 180.137Z" fill="black"/>
<path opacity="0.1" d="M42.85 183.899C44.0227 183.252 44.3798 181.421 43.6919 179.73C43.7279 179.798 43.7639 179.869 43.7967 179.941C44.6091 181.689 44.2717 183.653 43.0499 184.328C41.828 185.004 40.1771 184.135 39.368 182.387C39.3353 182.315 39.3058 182.24 39.2763 182.169C40.1149 183.771 41.6774 184.547 42.85 183.899Z" fill="black"/>
<path opacity="0.1" d="M44.5927 187.658C45.7654 187.01 46.1191 185.179 45.4345 183.492C45.4706 183.56 45.5066 183.631 45.5393 183.703C46.3484 185.451 46.0143 187.414 44.7925 188.09C43.5707 188.766 41.9198 187.894 41.1107 186.149C41.0779 186.073 41.0484 186.002 41.0157 185.93C41.8575 187.532 43.42 188.305 44.5927 187.658Z" fill="black"/>
<path opacity="0.1" d="M46.3353 191.419C47.508 190.772 47.8618 188.941 47.1772 187.25C47.2132 187.321 47.2492 187.389 47.282 187.461C48.0911 189.21 47.757 191.173 46.5351 191.849C45.3133 192.524 43.6624 191.655 42.8533 189.907C42.8206 189.835 42.7878 189.764 42.7583 189.689C43.6002 191.28 45.1627 192.067 46.3353 191.419Z" fill="black"/>
<path opacity="0.1" d="M48.078 195.181C49.2474 194.534 49.6044 192.7 48.9198 191.012C48.9558 191.08 48.9919 191.151 49.0246 191.223C49.8337 192.971 49.4996 194.935 48.2745 195.61C47.0494 196.286 45.4051 195.414 44.596 193.669C44.5632 193.594 44.5305 193.522 44.501 193.451C45.3428 195.053 46.9053 195.829 48.078 195.181Z" fill="black"/>
<path opacity="0.1" d="M49.8173 198.94C50.99 198.292 51.3471 196.461 50.6592 194.77C50.6985 194.842 50.7312 194.91 50.7673 194.985C51.5764 196.73 51.239 198.696 50.0172 199.369C48.7953 200.041 47.1477 199.176 46.3386 197.427C46.3026 197.355 46.2731 197.284 46.2436 197.209C47.0855 198.814 48.6447 199.587 49.8173 198.94Z" fill="black"/>
<path opacity="0.1" d="M50.9737 201.411C52.1464 200.763 52.5001 198.932 51.8155 197.241C51.8515 197.313 51.8876 197.381 51.9203 197.456C52.7294 199.201 52.3953 201.167 51.1735 201.84C49.9517 202.512 48.3007 201.647 47.4917 199.898C47.4589 199.826 47.4261 199.755 47.3967 199.68C48.2287 201.293 49.7912 202.058 50.9737 201.411Z" fill="black"/>
<path opacity="0.1" d="M19.4816 184.675C19.2997 184.107 19.1895 183.513 19.1541 182.912C19.0329 182.912 18.9132 182.884 18.8023 182.831C18.6915 182.778 18.5919 182.7 18.5097 182.603C18.4275 182.506 18.3646 182.391 18.3249 182.266C18.2851 182.141 18.2694 182.009 18.2786 181.877C18.2879 181.745 18.3219 181.617 18.3786 181.5C18.4354 181.383 18.5136 181.28 18.6083 181.198C18.7031 181.115 18.8124 181.055 18.9294 181.021C19.0464 180.987 19.1686 180.979 19.2884 180.999C19.4849 180.025 19.8776 179.11 20.4379 178.321C20.9982 177.533 21.7121 176.89 22.528 176.44C22.4224 176.212 22.4042 175.947 22.4773 175.704C22.5504 175.462 22.7089 175.261 22.9178 175.145C23.1267 175.03 23.369 175.01 23.5914 175.09C23.8138 175.17 23.998 175.343 24.1036 175.571C24.1419 175.652 24.1684 175.739 24.1822 175.828C25.1514 175.634 26.1492 175.695 27.0926 176.006C28.0359 176.317 28.8978 176.869 29.6067 177.616C30.1481 177.52 30.6989 177.503 31.2445 177.566L31.9586 181.114L31.9749 177.691C32.7871 177.896 33.5529 178.279 34.226 178.816C34.8992 179.352 35.4659 180.032 35.8918 180.814C36.3178 181.597 36.5943 182.465 36.7046 183.367C36.8149 184.269 36.7567 185.186 36.5336 186.063C36.3105 186.94 35.9271 187.758 35.4065 188.469C34.8858 189.18 34.2388 189.768 33.5043 190.198C32.7698 190.628 31.9631 190.892 31.1328 190.973C30.3025 191.054 29.4658 190.95 28.6731 190.668C28.5869 190.835 28.4583 190.97 28.3029 191.058C28.141 191.147 27.9579 191.18 27.7784 191.152C27.5989 191.124 27.4317 191.036 27.2994 190.901C27.1671 190.765 27.0762 190.589 27.0389 190.395C27.0016 190.201 27.0198 189.999 27.091 189.817C26.8101 189.603 26.546 189.364 26.3015 189.102C25.0131 189.33 23.6916 189.107 22.5265 188.464C21.3614 187.822 20.4125 186.794 19.8158 185.526L23.1405 184.915L19.4816 184.675Z" fill="#0385B6"/>
<g opacity="0.1">
<path opacity="0.1" d="M24.6178 186.399C25.8462 184.611 26.5996 182.537 27.4643 180.527C27.8107 179.7 28.2 178.895 28.6305 178.117L29.2856 177.291C29.397 177.395 29.5051 177.498 29.6132 177.606C30.1546 177.509 30.7055 177.492 31.251 177.556L31.9651 181.103L31.9749 177.691C32.7871 177.896 33.5528 178.279 34.226 178.815C34.8992 179.352 35.4658 180.032 35.8918 180.814C36.3178 181.597 36.5942 182.465 36.7045 183.367C36.8148 184.269 36.7567 185.186 36.5336 186.063C36.3105 186.94 35.9271 187.758 35.4064 188.469C34.8858 189.179 34.2387 189.768 33.5042 190.198C32.7697 190.628 31.963 190.892 31.1327 190.973C30.3024 191.054 29.4657 190.95 28.6731 190.668C28.5868 190.835 28.4583 190.97 28.3029 191.058C28.141 191.147 27.9579 191.18 27.7784 191.152C27.5989 191.124 27.4317 191.036 27.2994 190.901C27.1671 190.765 27.0761 190.589 27.0389 190.395C27.0016 190.201 27.0197 189.999 27.0909 189.817C26.8101 189.603 26.546 189.364 26.3015 189.102C25.0397 189.323 23.7462 189.115 22.5967 188.505C23.3699 187.926 24.0523 187.215 24.6178 186.399Z" fill="black"/>
</g>
<path opacity="0.1" d="M46.3583 178.796C46.3059 178.684 46.2744 178.561 46.2656 178.435C46.2569 178.309 46.271 178.182 46.3073 178.062C46.3435 177.942 46.4011 177.832 46.4767 177.736C46.5524 177.64 46.6446 177.562 46.7481 177.505C46.8717 177.436 47.0088 177.401 47.1477 177.402C47.3976 175.954 48.0753 174.635 49.0771 173.647C48.9151 172.96 48.8543 172.249 48.8969 171.541L52.1365 170.947L48.9886 170.729C49.0456 170.406 49.1245 170.088 49.2245 169.778C49.1007 169.688 49.0003 169.565 48.9329 169.42C48.8542 169.248 48.8244 169.054 48.8474 168.863C48.8704 168.672 48.9451 168.493 49.062 168.349C49.1789 168.205 49.3327 168.102 49.5034 168.054C49.6742 168.006 49.8543 168.015 50.0204 168.079C50.599 167.181 51.372 166.452 52.2708 165.959C53.3294 165.372 54.5205 165.132 55.7012 165.266C56.882 165.4 58.0023 165.902 58.9278 166.714C59.8534 167.525 60.5449 168.611 60.9195 169.841C61.2941 171.071 61.3358 172.392 61.0397 173.647C61.1937 173.719 61.3256 173.838 61.4201 173.989C61.5146 174.14 61.5677 174.317 61.5732 174.5C61.5787 174.682 61.5364 174.863 61.4512 175.021C61.366 175.178 61.2414 175.306 61.0921 175.389C60.9802 175.45 60.8574 175.486 60.732 175.492C60.6067 175.498 60.4815 175.475 60.3649 175.424C60.0488 176.003 59.6546 176.526 59.1955 176.976C59.5312 178.402 59.4312 179.909 58.9105 181.267L54.5769 180.023L58.4519 182.251C57.8702 183.264 57.0519 184.091 56.0812 184.645C55.1104 185.2 54.022 185.462 52.9275 185.406C51.8331 185.35 50.772 184.978 49.8531 184.326C48.9341 183.675 48.1903 182.769 47.698 181.7C47.3552 180.956 47.1399 180.15 47.0625 179.322C46.9138 179.307 46.771 179.251 46.6477 179.159C46.5244 179.067 46.4248 178.942 46.3583 178.796Z" fill="#0385B6"/>
<path opacity="0.1" d="M46.3583 178.796C46.3059 178.684 46.2744 178.561 46.2656 178.435C46.2569 178.309 46.271 178.182 46.3073 178.062C46.3435 177.943 46.4011 177.832 46.4767 177.736C46.5524 177.64 46.6446 177.562 46.7481 177.506C46.8717 177.436 47.0088 177.401 47.1477 177.402C47.3976 175.954 48.0753 174.635 49.077 173.647C49.0508 173.536 49.0279 173.422 49.0083 173.311C49.1258 173.402 49.2354 173.505 49.3358 173.618C49.9222 174.334 50.2235 175.26 50.8 175.968C51.5224 176.781 52.4936 177.276 53.5286 177.359C54.5539 177.436 55.584 177.346 56.5848 177.091C57.4102 176.859 58.2617 176.756 59.1136 176.787L59.356 176.823L59.2053 176.976C59.5411 178.402 59.441 179.909 58.9204 181.267L54.5769 180.023L58.4519 182.251C57.8701 183.264 57.0519 184.091 56.0811 184.645C55.1104 185.2 54.022 185.462 52.9275 185.406C51.8331 185.35 50.772 184.978 49.8531 184.326C48.9341 183.675 48.1903 182.769 47.698 181.7C47.3552 180.956 47.1399 180.15 47.0625 179.322C46.9138 179.307 46.771 179.251 46.6477 179.159C46.5244 179.067 46.4248 178.942 46.3583 178.796Z" fill="black"/>
</g>
<path opacity="0.1" d="M118.452 18.5626C117.157 18.2943 115.818 18.4536 114.606 19.0204C113.879 19.3739 113.093 19.5567 112.297 19.5567C111.501 19.5567 110.714 19.3739 109.988 19.0204C109.129 18.6093 108.198 18.4069 107.26 18.4273C106.322 18.4477 105.4 18.6903 104.557 19.1384C104.075 19.4161 103.539 19.5621 102.994 19.5639C100.793 19.5639 98.9618 17.143 98.5819 13.9497C99.0208 13.5985 99.3943 13.1592 99.6825 12.6552C100.973 10.3845 102.958 8.92552 105.215 8.92552C107.472 8.92552 109.437 10.3559 110.728 12.6123C111.114 13.2899 111.652 13.8478 112.293 14.2324C112.933 14.6169 113.653 14.8151 114.384 14.8079H114.443C116.179 14.7972 117.695 16.3313 118.452 18.5626Z" fill="#0385B6"/>
<path opacity="0.1" d="M125.141 8.55004L121.583 11.0139L123.742 6.72274C123.13 6.19024 122.373 5.89578 121.59 5.88598H121.534C121.287 5.88927 121.041 5.86893 120.797 5.82518L119.589 6.66195L120.106 5.63566C119.254 5.31207 118.517 4.70562 117.997 3.90134L115.831 5.37819L117.194 2.67122C115.933 1.01556 114.23 0 112.359 0C110.115 0 108.101 1.45898 106.823 3.72969C106.441 4.40794 105.901 4.96369 105.259 5.34052C104.616 5.71735 103.894 5.90184 103.164 5.87525H103.056C100.58 5.87525 98.5687 8.93982 98.5687 12.7267C98.5687 16.5136 100.58 19.5746 103.056 19.5746C103.601 19.5728 104.137 19.4268 104.619 19.1491C105.462 18.7007 106.385 18.4581 107.323 18.4384C108.261 18.4186 109.191 18.6221 110.05 19.0347C110.777 19.3872 111.564 19.5693 112.359 19.5693C113.155 19.5693 113.941 19.3872 114.669 19.0347C115.521 18.6308 116.442 18.4321 117.371 18.4518C118.3 18.4715 119.213 18.7094 120.05 19.1491C120.528 19.4194 121.058 19.5616 121.597 19.5639C124.076 19.5639 126.084 16.4993 126.084 12.716C126.093 11.2632 125.769 9.83109 125.141 8.55004Z" fill="#0385B6"/>
<path opacity="0.1" d="M44.4224 68.1035C42.5727 67.7215 40.6607 67.948 38.9291 68.7544C37.89 69.2572 36.7655 69.5155 35.6288 69.5125C34.4921 69.5094 33.3688 69.245 32.332 68.7365C31.1051 68.1492 29.776 67.8601 28.4367 67.8892C27.0973 67.9182 25.7798 68.2646 24.5752 68.9045C23.8863 69.3007 23.1199 69.5093 22.3413 69.5124C19.1966 69.5124 16.5794 66.0545 16.0356 61.4916C16.664 60.9918 17.1979 60.364 17.608 59.6429C19.4521 56.3995 22.3085 54.3148 25.5154 54.3148C28.7222 54.3148 31.5425 56.3745 33.3769 59.5821C33.9282 60.5543 34.7007 61.3541 35.6191 61.9036C36.5375 62.4532 37.5707 62.7338 38.6179 62.7182H38.6998C41.1828 62.7146 43.3512 64.9067 44.4224 68.1035Z" fill="#0385B6"/>
<path opacity="0.1" d="M53.9873 53.782L48.9035 57.3007L51.9891 51.1751C51.1146 50.4131 50.0321 49.9915 48.9133 49.9772H48.8314C48.4782 49.9828 48.1252 49.9541 47.7766 49.8913L46.0602 51.1036L46.8005 49.6375C45.579 49.1715 44.524 48.2952 43.7869 47.1343L40.7012 49.2799L42.6437 45.3821C40.8388 43.0184 38.4083 41.5702 35.7354 41.5702C32.5285 41.5702 29.6722 43.6514 27.828 46.8947C27.2818 47.868 26.5089 48.6657 25.5882 49.2066C24.6675 49.7474 23.6319 50.0121 22.5869 49.9736H22.4133C18.8724 49.9736 16.0029 54.3541 16.0029 59.7609C16.0029 65.1677 18.8724 69.5482 22.4133 69.5482C23.1925 69.546 23.9594 69.3361 24.6473 68.9367C25.8521 68.2974 27.1698 67.9516 28.5091 67.9232C29.8484 67.8947 31.1774 68.1845 32.404 68.7722C33.4409 69.2807 34.5642 69.5451 35.7009 69.5482C36.8375 69.5513 37.962 69.293 39.0012 68.7901C40.2188 68.2132 41.5358 67.929 42.8628 67.9568C44.1899 67.9845 45.496 68.3236 46.6924 68.951C47.3738 69.3404 48.131 69.5452 48.9002 69.5482C52.4411 69.5482 55.3106 65.1641 55.3106 59.7609C55.3353 57.6784 54.8802 55.6224 53.9873 53.782Z" fill="#0385B6"/>
<path opacity="0.1" d="M250.008 32.5088C251.303 32.2406 252.642 32.4 253.854 32.9665C254.58 33.3202 255.366 33.503 256.162 33.503C256.957 33.503 257.743 33.3202 258.469 32.9665C259.328 32.5554 260.259 32.3531 261.197 32.3734C262.134 32.3938 263.057 32.6364 263.9 33.0845C264.382 33.3618 264.918 33.5078 265.463 33.51C267.664 33.51 269.498 31.0891 269.878 27.8958C269.439 27.5455 269.065 27.106 268.778 26.6013C267.494 24.3235 265.486 22.8538 263.235 22.8538C260.985 22.8538 259.016 24.2841 257.726 26.5405C257.341 27.2212 256.801 27.7819 256.16 28.1684C255.518 28.5549 254.796 28.7542 254.063 28.7469H254.008C252.265 28.7433 250.745 30.2774 250.008 32.5088Z" fill="#0385B6"/>
<path opacity="0.1" d="M243.3 22.4962L246.857 24.9528L244.695 20.6617C245.308 20.1297 246.065 19.8353 246.847 19.8249H246.906C247.153 19.828 247.4 19.8077 247.643 19.7641L248.849 20.6009L248.331 19.5746C249.189 19.2564 249.934 18.6523 250.46 17.8474L252.619 19.3422L251.253 16.6352C252.517 14.9796 254.201 13.964 256.091 13.964C258.335 13.964 260.349 15.423 261.627 17.6937C262.009 18.3722 262.549 18.9281 263.191 19.305C263.834 19.6819 264.557 19.8662 265.286 19.8392H265.404C267.883 19.8392 269.891 22.9038 269.891 26.6907C269.891 30.4776 267.883 33.5386 265.404 33.5386C264.859 33.536 264.323 33.39 263.841 33.1131C262.998 32.6647 262.075 32.4221 261.137 32.4024C260.199 32.3826 259.269 32.5861 258.41 32.9987C257.684 33.3511 256.898 33.5331 256.103 33.5331C255.308 33.5331 254.521 33.3511 253.795 32.9987C252.942 32.5948 252.02 32.3959 251.091 32.4157C250.162 32.4354 249.247 32.6733 248.41 33.1131C247.932 33.3838 247.402 33.526 246.864 33.5279C244.387 33.5279 242.376 30.4633 242.376 26.68C242.359 25.223 242.676 23.7845 243.3 22.4962Z" fill="#0385B6"/>
<path opacity="0.1" d="M206.658 277.807C227.463 277.807 244.328 274.605 244.328 270.655C244.328 266.705 227.463 263.503 206.658 263.503C185.854 263.503 168.988 266.705 168.988 270.655C168.988 274.605 185.854 277.807 206.658 277.807Z" fill="#0385B6"/>
<path d="M186.942 236.684L128.574 235.865L128.747 234.23L131.568 207.272H182.828L186.598 234.23L186.887 236.276L186.942 236.684Z" fill="#D0D2D5"/>
<path opacity="0.1" d="M186.887 236.276H157.76L128.574 235.865L128.747 234.23H186.598L186.887 236.276Z" fill="black"/>
<path d="M196.298 234.642H118.845V236.684H196.298V234.642Z" fill="#D0D2D5"/>
<path d="M44.1996 187.057V203.821C44.1996 205.224 44.7104 206.57 45.6195 207.563C46.5287 208.556 47.7618 209.113 49.0476 209.113H265.345C266.631 209.113 267.864 208.556 268.773 207.563C269.682 206.57 270.193 205.224 270.193 203.821V187.057H44.1996Z" fill="#D0D2D5"/>
<path opacity="0.8" d="M57.1417 54.1431C57.8382 54.1431 58.4028 53.5267 58.4028 52.7664C58.4028 52.006 57.8382 51.3896 57.1417 51.3896C56.4452 51.3896 55.8806 52.006 55.8806 52.7664C55.8806 53.5267 56.4452 54.1431 57.1417 54.1431Z" fill="#FA5959"/>
<path opacity="0.8" d="M60.6106 54.1431C61.3071 54.1431 61.8717 53.5267 61.8717 52.7664C61.8717 52.006 61.3071 51.3896 60.6106 51.3896C59.9141 51.3896 59.3495 52.006 59.3495 52.7664C59.3495 53.5267 59.9141 54.1431 60.6106 54.1431Z" fill="#FED253"/>
<path opacity="0.8" d="M64.0828 54.1431C64.7793 54.1431 65.3439 53.5267 65.3439 52.7664C65.3439 52.006 64.7793 51.3896 64.0828 51.3896C63.3863 51.3896 62.8217 52.006 62.8217 52.7664C62.8217 53.5267 63.3863 54.1431 64.0828 54.1431Z" fill="#8CCF4D"/>
<path d="M168.799 104.203C165.939 100.054 161.795 97.4369 157.183 97.4369C152.571 97.4369 148.427 100.054 145.568 104.203C146.2 105.895 147.135 107.433 148.319 108.726C149.782 110.323 151.584 111.499 153.565 112.151C155.545 112.802 157.643 112.909 159.67 112.461C161.698 112.013 163.592 111.025 165.185 109.584C166.778 108.143 168.019 106.294 168.799 104.203Z" fill="#0385B6"/>
<path d="M143.481 106.273C143.661 106.415 143.854 106.535 144.058 106.631C146.252 111.476 150.799 115.184 156.017 115.495V138.471C152.07 138.213 148.909 136.043 146.252 132.656C146.023 132.846 145.853 133.017 145.695 133.178C145.475 133.406 145.321 133.7 145.253 134.023C145.184 134.347 145.205 134.684 145.312 134.995C145.456 135.422 145.494 135.884 145.421 136.332C145.347 136.781 145.166 137.2 144.896 137.546C144.625 137.893 144.275 138.155 143.881 138.305C143.488 138.456 143.064 138.489 142.655 138.402C142.245 138.315 141.865 138.11 141.551 137.809C141.238 137.508 141.004 137.122 140.873 136.69C140.741 136.258 140.718 135.795 140.804 135.349C140.891 134.904 141.084 134.491 141.365 134.154C141.449 134.053 141.541 133.96 141.64 133.876C141.697 133.819 141.76 133.77 141.827 133.729C142.187 132.306 143.042 131.022 144.431 129.846C142.868 126.929 141.912 123.673 141.63 120.309C141.428 120.311 141.225 120.325 141.024 120.351C140.751 120.391 140.493 120.513 140.279 120.702C140.065 120.891 139.902 121.141 139.809 121.424C139.658 121.863 139.399 122.249 139.062 122.539C138.724 122.83 138.32 123.014 137.894 123.071C137.467 123.129 137.034 123.058 136.642 122.866C136.25 122.674 135.913 122.369 135.668 121.983C135.424 121.597 135.28 121.146 135.254 120.677C135.227 120.209 135.319 119.742 135.518 119.326C135.718 118.911 136.018 118.563 136.385 118.32C136.753 118.077 137.175 117.948 137.605 117.948C137.7 117.95 137.795 117.957 137.89 117.97C138.241 117.693 138.632 117.481 139.046 117.34C139.854 117.064 140.695 116.916 141.542 116.901C141.625 114.515 142.038 112.157 142.767 109.906C142.238 109.578 141.739 109.195 141.277 108.762C140.826 108.323 140.457 107.793 140.189 107.203C140.047 106.904 139.83 106.656 139.563 106.488C139.358 106.353 139.171 106.188 139.007 105.998C138.715 105.655 138.515 105.232 138.428 104.774C138.341 104.317 138.37 103.842 138.512 103.401C138.654 102.96 138.903 102.569 139.234 102.272C139.564 101.974 139.962 101.781 140.386 101.712C140.809 101.643 141.242 101.702 141.637 101.882C142.032 102.062 142.375 102.357 142.628 102.734C142.881 103.111 143.035 103.556 143.073 104.021C143.112 104.487 143.033 104.955 142.846 105.375C142.992 105.723 143.21 106.03 143.481 106.273Z" fill="#0385B6"/>
<path d="M228.071 266.485C227.881 266.156 227.641 265.865 227.36 265.624C225.929 264.147 225.264 261.98 224.91 259.856C224.556 257.731 224.455 255.564 223.888 253.487C223.58 252.422 223.194 251.385 222.735 250.387C222.408 249.621 221.995 248.123 221.396 247.587C221.278 247.476 221.136 247.4 220.983 247.368C220.7 246.711 220.296 246.125 219.797 245.645C218.86 244.719 217.717 243.982 217.091 242.784C216.919 242.369 216.707 241.974 216.459 241.608C216.037 241.1 215.368 240.892 214.979 240.356C214.471 239.662 214.585 238.668 214.651 237.785C214.716 236.902 214.651 235.843 213.95 235.378C213.531 235.096 212.99 235.124 212.555 234.874C211.899 234.517 211.641 233.615 211.654 232.811C211.667 232.006 211.896 231.223 211.955 230.419C212.139 227.858 210.592 225.312 211.189 222.83C211.415 221.89 211.932 221.075 212.315 220.199C212.449 219.907 212.559 219.603 212.643 219.29C213.665 219.733 214.739 220.015 215.833 220.131C214.029 215.711 214.487 210.576 213.645 205.827L213.753 205.666C214.604 204.442 215.086 202.96 215.136 201.425C215.136 199.658 214.379 198.006 214.038 196.276C213.747 194.806 213.76 193.268 213.383 191.824C213.122 190.926 212.775 190.06 212.348 189.242C211.94 188.414 211.511 187.6 211.061 186.799C210.642 185.283 210.221 183.767 209.8 182.251C209.21 180.123 208.604 177.96 207.458 176.122C207.038 175.449 206.911 174.083 206.265 173.676C205.741 173.38 205.147 173.266 204.562 173.35C203.651 172.792 202.852 171.988 202.737 170.886C202.726 170.646 202.748 170.405 202.803 170.171H202.914C204.356 170.028 205.086 168.641 205.836 167.425C207.048 165.458 206.586 162.798 205.836 160.559C205.65 159.853 205.313 159.204 204.854 158.668C203.802 157.595 202.138 157.831 200.782 157.312C200.327 157.141 199.901 156.88 199.436 156.758C198.535 156.529 197.591 156.851 196.766 157.305C195.941 157.759 195.171 158.346 194.306 158.703C193.441 159.061 192.373 159.343 192.16 160.312C192.101 160.639 192.126 160.977 192.232 161.289C192.431 161.91 192.781 162.462 193.245 162.884C192.876 163.712 192.677 164.618 192.661 165.539C192.645 166.46 192.811 167.374 193.15 168.218C193.488 169.061 193.99 169.815 194.622 170.426C195.253 171.038 195.998 171.492 196.805 171.759C197.054 172.195 197.287 172.639 197.5 173.093C197.88 173.894 198.201 174.838 198.07 175.696C197.833 175.971 197.614 176.264 197.415 176.572C196.474 178.003 195.94 179.68 195.449 181.353C194.789 183.49 194.261 185.673 193.867 187.886C193.068 189.742 192.092 191.516 191.512 193.465C190.474 193.466 189.44 193.315 188.439 193.014L185.675 192.331C184.712 192.092 183.709 191.834 182.956 191.141C182.556 190.783 182.245 190.307 181.839 189.953C181.433 189.599 180.617 189.185 180.172 189.478C180.09 189.532 180.014 189.595 179.946 189.667C179.539 188.77 179.153 187.879 178.681 187.01C178.003 185.795 176.994 184.682 175.717 184.45C174.936 184.313 174.137 184.516 173.493 185.015C172.746 185.594 172.277 186.803 172.837 187.618C172.977 187.8 173.13 187.969 173.293 188.126C173.672 188.603 174.011 189.116 174.305 189.66C175.361 191.278 176.94 192.398 178.724 192.793L178.609 193.15C178.377 193.894 177.882 194.792 178.006 195.564L190.303 200.159C191.092 200.509 191.929 200.71 192.779 200.756C193.111 200.753 193.441 200.705 193.762 200.613V201.3V201.328C193.795 206.045 193.107 210.729 192.979 215.443C192.956 216.304 192.979 217.231 193.477 217.903C194.034 218.639 195.023 218.786 195.885 218.618C196.092 218.58 196.295 218.53 196.494 218.468C196.785 219.654 196.996 220.863 197.123 222.083L197.935 228.47C198.04 229.123 198.083 229.787 198.063 230.451C197.968 231.949 197.244 233.29 196.72 234.674C196.196 236.058 195.885 237.713 196.573 239.008C196.789 239.408 197.087 239.748 197.28 240.163C197.526 240.805 197.638 241.499 197.608 242.194C197.658 244.12 197.706 246.049 197.752 247.98C197.609 247.954 197.462 247.986 197.339 248.069C196.658 248.649 196.733 251.406 196.684 252.26C196.632 253.691 196.684 255.15 196.612 256.594C196.527 258.541 196.24 260.471 195.757 262.348C195.639 262.958 195.381 263.525 195.007 263.996C194.624 264.36 194.167 264.619 193.674 264.751C192.042 265.309 190.335 265.563 188.626 265.502C187.935 265.477 187.214 265.405 186.572 265.691C185.93 265.978 185.413 266.764 185.645 267.479C185.845 268.08 186.451 268.366 186.998 268.592C188.248 269.072 189.454 269.678 190.601 270.401C191.043 270.729 191.508 271.018 191.993 271.263C192.458 271.445 192.939 271.574 193.428 271.649L199.236 272.743C200.425 272.965 201.856 273.101 202.613 272.028C203.022 271.449 203.081 270.662 203.062 269.925C203.029 268.495 202.767 267.04 202.937 265.609C203.067 264.764 203.271 263.934 203.547 263.131C204.125 261.255 204.706 259.38 205.289 257.506C205.872 255.625 206.462 253.726 206.688 251.753C206.77 251.037 206.763 250.222 206.262 249.775C206.135 249.662 205.988 249.579 205.83 249.532C205.81 247.808 205.604 246.081 205.692 244.357C205.715 243.928 205.754 243.499 205.787 243.067C206.091 243.382 206.362 243.732 206.596 244.111C207.156 245.069 207.363 246.335 208.218 246.971C208.945 247.515 210.022 247.486 210.533 248.273C210.698 248.575 210.821 248.902 210.9 249.242C211.197 250.085 211.642 250.857 212.211 251.513C212.406 252.298 212.677 253.058 213.02 253.78C213.502 254.893 213.983 256.003 214.461 257.109C214.953 258.303 215.499 259.469 216.099 260.603C216.557 261.317 216.926 262.093 217.196 262.913C217.658 264.679 216.905 266.618 215.712 267.919C214.52 269.221 212.948 269.968 211.398 270.666C211.235 270.726 211.085 270.823 210.959 270.952C210.825 271.125 210.754 271.347 210.759 271.574C210.759 272.4 211.382 273.108 212.096 273.362C212.826 273.576 213.591 273.606 214.333 273.451C218.519 272.897 222.693 271.781 226.394 269.561C226.948 269.274 227.438 268.861 227.832 268.348C228.022 268.09 228.145 267.781 228.187 267.453C228.229 267.125 228.189 266.791 228.071 266.485Z" fill="url(#paint0_linear)"/>
<path d="M210.38 186.295C211.078 187.466 211.733 188.665 212.345 189.893C212.773 190.705 213.121 191.564 213.383 192.456C213.763 193.887 213.753 195.414 214.038 196.873C214.366 198.589 215.133 200.227 215.133 201.986C215.082 203.511 214.599 204.98 213.75 206.192C212.903 207.393 211.934 208.484 210.861 209.446C208.387 202.45 207.006 195.052 206.773 187.557C206.74 186.52 206.734 185.451 207.081 184.482C207.294 183.874 208.316 182.208 208.974 182.862C209.213 183.102 209.276 184.182 209.423 184.543C209.699 185.154 210.019 185.739 210.38 186.295Z" fill="#2F2E41"/>
<path opacity="0.1" d="M210.38 186.295C211.078 187.466 211.733 188.665 212.345 189.893C212.773 190.705 213.121 191.564 213.383 192.456C213.763 193.887 213.753 195.414 214.038 196.873C214.366 198.589 215.133 200.227 215.133 201.986C215.082 203.511 214.599 204.98 213.75 206.192C212.903 207.393 211.934 208.484 210.861 209.446C208.387 202.45 207.006 195.052 206.773 187.557C206.74 186.52 206.734 185.451 207.081 184.482C207.294 183.874 208.316 182.208 208.974 182.862C209.213 183.102 209.276 184.182 209.423 184.543C209.699 185.154 210.019 185.739 210.38 186.295Z" fill="black"/>
<path d="M124.02 137.509C121.429 140.334 121.118 141.578 119.562 142.14C118.006 142.701 112.408 145.866 114.167 149.374L118.897 152.785L119.035 152.885L119.759 155.26L112.605 169.163C112.605 169.163 100.813 163.277 99.6563 171.984C98.4999 180.692 99.2337 183.07 98.9225 187.718C98.6113 192.367 99.0241 193.712 97.9857 193.712C96.9473 193.712 96.5378 190.658 96.5378 190.658C96.5378 190.658 96.4723 190.518 96.3577 190.257C94.8148 186.756 84.3426 161.056 101.117 143.391C101.117 143.391 108.887 142.833 110.757 133.107C112.048 126.384 116.562 126.963 119.562 128.333C120.538 128.75 121.446 129.333 122.255 130.06C122.983 130.812 123.63 131.652 124.184 132.563C125.039 134.037 125.504 135.885 124.02 137.509Z" fill="#D0D2D5"/>
<path opacity="0.1" d="M119.035 152.885L119.759 155.26L112.605 169.163C112.605 169.163 100.813 163.277 99.6563 171.984C98.5 180.692 99.2337 183.07 98.9225 187.718C98.6113 192.367 99.0241 193.712 97.9857 193.712C96.9473 193.712 96.5378 190.658 96.5378 190.658C96.5378 190.658 96.4723 190.518 96.3577 190.257C95.8369 185.909 93.1967 160.473 102.768 161.825C102.768 161.825 110.535 165.787 111.776 164.207C112.759 162.955 117.122 155.757 118.897 152.803L119.035 152.885Z" fill="black"/>
<path opacity="0.1" d="M124.184 132.542L119.454 138.41C119.454 138.41 113.961 146.434 112.821 146.095C112.48 146.013 112.132 145.969 111.783 145.962C111.402 145.93 111.038 145.782 110.732 145.533C110.426 145.285 110.191 144.946 110.054 144.558C109.917 144.169 109.883 143.747 109.957 143.338C110.031 142.93 110.21 142.553 110.472 142.25C112.346 140.105 115.799 136.032 116.025 135.127C116.251 134.222 118.449 130.257 119.549 128.315C120.524 128.732 121.433 129.315 122.242 130.042C122.974 130.792 123.626 131.631 124.184 132.542Z" fill="black"/>
<path d="M258.014 216.966C257.211 218.718 253.1 225.291 251.302 228.162L250.46 229.514C250.46 229.514 250.133 231.888 244.764 228.945C239.395 226.002 113.253 167.897 113.253 167.897L112.398 165.093L118.622 154.92L256.877 213.233C256.877 213.233 259.052 214.702 258.014 216.966Z" fill="#454B69"/>
<path opacity="0.1" d="M251.302 228.162L250.46 229.514C250.46 229.514 250.133 231.888 244.764 228.945C239.395 226.002 113.253 167.897 113.253 167.897L112.398 165.093L251.302 228.162Z" fill="black"/>
<path d="M175.216 190.207C173.935 189.978 172.513 190.089 171.517 190.997C170.915 191.554 170.535 192.344 170.456 193.2C170.371 194.191 170.898 195.367 171.809 195.442C172.028 195.445 172.247 195.429 172.464 195.396C173.039 195.393 173.614 195.446 174.18 195.553C175.296 195.668 176.421 195.488 177.46 195.031C178.499 194.573 179.422 193.849 180.152 192.921C180.935 191.849 179.903 191.384 178.979 191.169C177.715 190.876 176.48 190.429 175.216 190.207Z" fill="#FBBEBE"/>
<path d="M197.123 222.501L197.935 228.802C198.039 229.453 198.081 230.113 198.06 230.773C197.965 232.257 197.241 233.587 196.72 234.96C196.199 236.333 195.882 237.978 196.573 239.251C196.786 239.648 197.084 239.988 197.277 240.399C197.523 241.035 197.634 241.723 197.605 242.412L197.827 251.352C200.356 251.54 202.894 251.525 205.42 251.305C205.519 251.311 205.616 251.278 205.695 251.213C205.762 251.12 205.796 251.005 205.79 250.887C205.902 248.795 205.568 246.7 205.676 244.608C205.715 243.843 205.813 243.081 205.826 242.312C205.866 239.197 204.457 236.147 204.883 233.068C205.017 232.291 205.192 231.524 205.407 230.769C206.753 225.405 206.468 219.769 206.17 214.23C206.175 214.141 206.152 214.053 206.105 213.98C206.056 213.927 205.995 213.891 205.928 213.876C204.495 213.407 202.979 213.321 201.51 213.626C200.04 213.931 198.659 214.618 197.483 215.628C197.126 215.943 196.225 216.247 195.99 216.623C195.662 217.145 196.091 217.667 196.281 218.221C196.702 219.611 196.984 221.046 197.123 222.501Z" fill="#3F3D56"/>
<path opacity="0.1" d="M197.123 222.501L197.935 228.802C198.039 229.453 198.081 230.113 198.06 230.773C197.965 232.257 197.241 233.587 196.72 234.96C196.199 236.333 195.882 237.978 196.573 239.251C196.786 239.648 197.084 239.988 197.277 240.399C197.523 241.035 197.634 241.723 197.605 242.412L197.827 251.352C200.356 251.54 202.894 251.525 205.42 251.305C205.519 251.311 205.616 251.278 205.695 251.213C205.762 251.12 205.796 251.005 205.79 250.887C205.902 248.795 205.568 246.7 205.676 244.608C205.715 243.843 205.813 243.081 205.826 242.312C205.866 239.197 204.457 236.147 204.883 233.068C205.017 232.291 205.192 231.524 205.407 230.769C206.753 225.405 206.468 219.769 206.17 214.23C206.175 214.141 206.152 214.053 206.105 213.98C206.056 213.927 205.995 213.891 205.928 213.876C204.495 213.407 202.979 213.321 201.51 213.626C200.04 213.931 198.659 214.618 197.483 215.628C197.126 215.943 196.225 216.247 195.99 216.623C195.662 217.145 196.091 217.667 196.281 218.221C196.702 219.611 196.984 221.046 197.123 222.501Z" fill="black"/>
<path d="M212.312 220.603C211.929 221.472 211.415 222.28 211.185 223.213C210.589 225.677 212.132 228.219 211.949 230.744C211.89 231.541 211.664 232.317 211.647 233.115C211.631 233.912 211.899 234.799 212.548 235.167C212.984 235.41 213.531 235.385 213.94 235.664C214.631 236.126 214.71 237.173 214.641 238.053C214.572 238.933 214.458 239.916 214.969 240.603C215.359 241.136 216.027 241.343 216.446 241.847C216.695 242.209 216.908 242.6 217.078 243.013C217.704 244.207 218.847 244.937 219.784 245.874C220.721 246.811 221.513 248.184 221.094 249.482C220.786 250.433 219.921 251.019 219.089 251.466C217.571 252.285 215.969 252.904 214.317 253.308C214.14 253.367 213.952 253.378 213.77 253.34C213.585 253.267 213.421 253.144 213.292 252.983C212.325 251.949 211.326 250.866 210.881 249.475C210.801 249.137 210.678 248.815 210.514 248.516C210.003 247.733 208.925 247.762 208.198 247.222C207.346 246.589 207.14 245.334 206.583 244.386C206.026 243.438 205.211 242.873 204.618 242.04C203.615 240.653 203.37 238.8 202.652 237.216C202.348 236.544 201.958 235.915 201.715 235.214C201.471 234.374 201.32 233.504 201.267 232.625C200.805 228.448 199.629 224.243 200.369 220.109C200.533 219.201 200.785 218.321 200.89 217.384C201.07 215.764 200.785 214.105 201.005 212.489C201.01 212.286 201.057 212.087 201.143 211.907C201.229 211.727 201.35 211.57 201.499 211.448C201.676 211.361 201.869 211.319 202.063 211.323C204.005 211.21 205.952 211.258 207.887 211.466C208.869 211.57 209.97 211.788 210.56 212.664C211.061 213.415 211.035 214.42 211.195 215.332C211.395 216.455 211.916 217.066 212.463 217.946C213.01 218.825 212.715 219.694 212.312 220.603Z" fill="#3F3D56"/>
<path d="M204.755 249.661C205.273 249.661 205.846 249.625 206.246 249.982C206.744 250.429 206.75 251.248 206.671 251.946C206.442 253.905 205.856 255.79 205.269 257.667L203.527 263.249C203.251 264.046 203.047 264.87 202.918 265.709C202.747 267.14 203.009 268.57 203.042 270C203.042 270.716 202.999 271.509 202.59 272.085C201.85 273.126 200.405 273.004 199.216 272.8L193.415 271.728C192.926 271.656 192.445 271.528 191.98 271.345C191.496 271.101 191.031 270.815 190.588 270.49C189.44 269.774 188.234 269.176 186.985 268.702C186.441 268.481 185.832 268.198 185.635 267.601C185.403 266.886 185.92 266.099 186.562 265.813C187.204 265.527 187.922 265.598 188.616 265.62C190.324 265.679 192.029 265.428 193.661 264.876C194.152 264.745 194.608 264.487 194.991 264.125C195.379 263.649 195.644 263.067 195.757 262.441C196.251 260.577 196.546 258.657 196.635 256.719C196.704 255.289 196.658 253.859 196.71 252.428C196.743 251.581 196.668 248.852 197.349 248.27C197.87 247.833 200.012 249.038 200.716 249.214C202.04 249.545 203.397 249.695 204.755 249.661Z" fill="#2F2E41"/>
<path d="M223.865 253.637C224.432 255.686 224.521 257.853 224.887 259.959C225.254 262.065 225.903 264.215 227.334 265.681C227.613 265.922 227.853 266.212 228.045 266.539C228.166 266.845 228.207 267.182 228.164 267.512C228.12 267.842 227.994 268.152 227.799 268.409C227.404 268.918 226.914 269.329 226.361 269.614C222.663 271.817 218.5 272.929 214.304 273.48C213.562 273.631 212.799 273.601 212.07 273.39C211.356 273.126 210.723 272.425 210.737 271.602C210.73 271.377 210.8 271.156 210.933 270.984C211.061 270.857 211.211 270.76 211.375 270.701C212.921 270.008 214.49 269.253 215.686 267.973C216.882 266.693 217.632 264.755 217.17 263.017C216.896 262.203 216.525 261.432 216.066 260.724C215.467 259.6 214.921 258.444 214.428 257.259L212.987 253.959C212.564 252.993 212.139 251.999 212.066 250.934C213.877 251.022 215.685 250.706 217.38 250.004C218.171 249.652 218.907 249.169 219.564 248.573C220.121 248.066 220.629 247.118 221.379 247.78C221.982 248.309 222.362 249.8 222.716 250.555C223.175 251.546 223.56 252.577 223.865 253.637Z" fill="#2F2E41"/>
<path d="M202.744 171.68C202.888 173.053 204.107 173.958 205.27 174.502L197.909 177.066C198.384 176.072 198.001 174.856 197.529 173.847C197.145 173.049 196.707 172.283 196.219 171.555C196.147 171.444 196.065 171.305 196.117 171.176C196.164 171.092 196.238 171.03 196.324 171.001C197.837 170.264 199.396 169.503 201.05 169.234C201.529 169.159 202.433 168.952 202.79 169.481C203.147 170.01 202.675 171.047 202.744 171.68Z" fill="#FBBEBE"/>
<path opacity="0.1" d="M202.744 171.68C202.888 173.053 204.107 173.958 205.27 174.502L197.909 177.066C198.384 176.072 198.001 174.856 197.529 173.847C197.145 173.049 196.707 172.283 196.219 171.555C196.147 171.444 196.065 171.305 196.117 171.176C196.164 171.092 196.238 171.03 196.324 171.001C197.837 170.264 199.396 169.503 201.05 169.234C201.529 169.159 202.433 168.952 202.79 169.481C203.147 170.01 202.675 171.047 202.744 171.68Z" fill="black"/>
<path d="M198.466 172.792C201.654 172.792 204.238 169.971 204.238 166.492C204.238 163.012 201.654 160.191 198.466 160.191C195.278 160.191 192.694 163.012 192.694 166.492C192.694 169.971 195.278 172.792 198.466 172.792Z" fill="#FBBEBE"/>
<path d="M193.464 218.343C194.024 219.076 195.01 219.219 195.872 219.058C197.886 218.7 199.534 217.08 201.506 216.497C203.923 215.782 206.482 216.701 208.765 217.828C211.048 218.954 213.318 220.331 215.814 220.524C213.557 215.031 214.847 208.423 212.689 202.884C212.161 201.529 211.424 200.223 211.307 198.757C211.159 196.937 211.991 195.181 212.119 193.372C212.237 191.759 211.791 190.154 211.365 188.616C210.839 186.728 210.313 184.84 209.787 182.952C209.197 180.838 208.591 178.689 207.448 176.873C207.025 176.204 206.898 174.849 206.255 174.444C204.854 173.561 202.728 174.673 201.208 174.734C199.688 174.795 198.302 175.975 197.415 177.309C196.474 178.718 195.94 180.395 195.449 182.054C194.667 184.525 194.083 187.065 193.703 189.646C193.654 190.032 193.612 190.418 193.579 190.808C193.251 194.48 193.729 198.174 193.756 201.865V201.89C193.788 206.571 193.101 211.223 192.973 215.9C192.96 216.755 192.979 217.688 193.464 218.343Z" fill="#2F2E41"/>
<path opacity="0.1" d="M193.765 201.868C194.896 201.557 195.918 200.76 196.795 199.887C197.556 199.144 198.231 198.304 198.807 197.384C199.531 196.147 200.113 194.818 200.539 193.426C201.752 189.702 202.523 185.824 202.832 181.886C202.918 180.813 202.944 179.662 202.357 178.811C202.028 178.35 201.566 178.024 201.045 177.886C200.525 177.749 199.977 177.807 199.491 178.053C198.718 178.464 198.217 179.297 197.752 180.094C196.831 181.675 195.904 183.277 195.312 185.036C195.05 185.816 194.856 186.617 194.601 187.4C194.341 188.172 194.041 188.928 193.703 189.664C193.654 190.05 193.611 190.436 193.579 190.826C193.274 194.498 193.739 198.178 193.765 201.868Z" fill="black"/>
<path d="M202.341 178.121C202.927 178.972 202.901 180.134 202.819 181.192C202.51 185.13 201.74 189.008 200.526 192.732C200.104 194.136 199.522 195.477 198.794 196.723C198.217 197.641 197.542 198.482 196.782 199.226C195.669 200.334 194.313 201.325 192.802 201.339C191.953 201.295 191.115 201.096 190.326 200.749L178.026 196.179C177.902 195.414 178.396 194.52 178.629 193.783L179.284 191.663C179.471 191.076 179.687 190.443 180.175 190.125C180.663 189.807 181.436 190.243 181.842 190.597C182.248 190.951 182.556 191.416 182.956 191.777C183.713 192.464 184.712 192.721 185.675 192.957L188.436 193.633C189.437 193.932 190.471 194.083 191.509 194.08C192.278 191.512 193.743 189.252 194.571 186.706C194.827 185.927 195.02 185.122 195.285 184.343C195.875 182.583 196.805 180.985 197.726 179.401C198.188 178.607 198.689 177.774 199.465 177.359C199.952 177.11 200.503 177.051 201.026 177.189C201.548 177.327 202.012 177.656 202.341 178.121Z" fill="#2F2E41"/>
<path d="M200.307 167.915C200.263 167.5 200.145 167.099 199.96 166.735C199.863 166.552 199.716 166.408 199.539 166.323C199.362 166.238 199.166 166.217 198.977 166.263C198.4 166.459 198.207 167.432 197.605 167.464C197.198 167.486 196.907 167.035 196.779 166.613C196.651 166.191 196.583 165.709 196.278 165.412C196.066 165.239 195.822 165.117 195.564 165.054C194.165 164.571 192.721 163.681 192.255 162.161C192.146 161.853 192.12 161.516 192.18 161.192C192.393 160.23 193.49 159.941 194.326 159.594C195.161 159.247 195.963 158.653 196.782 158.203C197.601 157.752 198.551 157.434 199.452 157.663C199.909 157.82 200.358 158.002 200.798 158.21C202.154 158.725 203.815 158.485 204.867 159.554C205.326 160.085 205.663 160.727 205.849 161.428C206.583 163.652 207.048 166.291 205.833 168.244C205.083 169.449 204.356 170.826 202.914 170.972C201.237 171.126 200.572 169.467 200.307 167.915Z" fill="#2F2E41"/>
<g opacity="0.1">
<path opacity="0.1" d="M197.745 165.855C197.618 165.433 197.549 164.95 197.247 164.654C197.035 164.48 196.792 164.359 196.533 164.296C195.131 163.813 193.69 162.923 193.222 161.403C193.115 161.094 193.09 160.758 193.15 160.434C193.182 160.281 193.241 160.137 193.323 160.008C192.789 160.262 192.324 160.599 192.193 161.192C192.133 161.516 192.159 161.853 192.268 162.161C192.734 163.681 194.178 164.571 195.577 165.054C195.835 165.117 196.079 165.239 196.291 165.412C196.596 165.709 196.661 166.188 196.792 166.613C196.923 167.039 197.211 167.486 197.618 167.464C198.024 167.443 198.22 167.039 198.479 166.699C198.122 166.649 197.863 166.248 197.745 165.855Z" fill="black"/>
<path opacity="0.1" d="M203.877 170.203C202.194 170.372 201.529 168.698 201.257 167.157C201.221 166.744 201.11 166.342 200.929 165.977C200.832 165.795 200.685 165.651 200.508 165.566C200.332 165.481 200.135 165.46 199.947 165.505C199.648 165.663 199.397 165.911 199.223 166.22C199.373 166.236 199.518 166.289 199.646 166.376C199.775 166.463 199.883 166.581 199.963 166.721C200.149 167.085 200.267 167.486 200.31 167.901C200.576 169.442 201.24 171.119 202.931 170.947C203.599 170.867 204.215 170.518 204.66 169.967C204.413 170.093 204.149 170.173 203.877 170.203Z" fill="black"/>
</g>
<path d="M271.346 236.723C277.187 236.723 281.923 235.729 281.923 234.502C281.923 233.276 277.187 232.282 271.346 232.282C265.504 232.282 260.769 233.276 260.769 234.502C260.769 235.729 265.504 236.723 271.346 236.723Z" fill="#0385B6"/>
<path d="M271.169 235.318C271.849 235.318 272.401 234.53 272.401 233.558C272.401 232.587 271.849 231.799 271.169 231.799C270.489 231.799 269.937 232.587 269.937 233.558C269.937 234.53 270.489 235.318 271.169 235.318Z" fill="#3F3D56"/>
<path d="M271.169 233.165C271.849 233.165 272.401 232.377 272.401 231.405C272.401 230.434 271.849 229.646 271.169 229.646C270.489 229.646 269.937 230.434 269.937 231.405C269.937 232.377 270.489 233.165 271.169 233.165Z" fill="#3F3D56"/>
<path d="M271.169 231.016C271.849 231.016 272.401 230.228 272.401 229.256C272.401 228.285 271.849 227.497 271.169 227.497C270.489 227.497 269.937 228.285 269.937 229.256C269.937 230.228 270.489 231.016 271.169 231.016Z" fill="#3F3D56"/>
<path d="M271.169 228.863C271.849 228.863 272.401 228.075 272.401 227.104C272.401 226.132 271.849 225.344 271.169 225.344C270.489 225.344 269.937 226.132 269.937 227.104C269.937 228.075 270.489 228.863 271.169 228.863Z" fill="#3F3D56"/>
<path d="M271.169 226.71C271.849 226.71 272.401 225.923 272.401 224.951C272.401 223.979 271.849 223.192 271.169 223.192C270.489 223.192 269.937 223.979 269.937 224.951C269.937 225.923 270.489 226.71 271.169 226.71Z" fill="#3F3D56"/>
<path d="M271.169 224.561C271.849 224.561 272.401 223.773 272.401 222.802C272.401 221.83 271.849 221.042 271.169 221.042C270.489 221.042 269.937 221.83 269.937 222.802C269.937 223.773 270.489 224.561 271.169 224.561Z" fill="#3F3D56"/>
<path d="M271.169 222.408C271.849 222.408 272.401 221.621 272.401 220.649C272.401 219.677 271.849 218.89 271.169 218.89C270.489 218.89 269.937 219.677 269.937 220.649C269.937 221.621 270.489 222.408 271.169 222.408Z" fill="#3F3D56"/>
<path d="M275.778 205.941C275.946 205.707 276.099 205.461 276.236 205.205L273 204.625L276.502 204.65C276.836 203.852 277.018 202.989 277.037 202.111C277.056 201.234 276.912 200.362 276.613 199.547L271.916 202.208L276.246 198.732C275.84 197.969 275.294 197.304 274.642 196.781C273.991 196.258 273.248 195.886 272.459 195.69C271.67 195.494 270.853 195.476 270.058 195.64C269.263 195.803 268.507 196.143 267.838 196.639C267.169 197.134 266.6 197.775 266.167 198.521C265.734 199.267 265.446 200.102 265.322 200.975C265.197 201.848 265.239 202.739 265.443 203.593C265.648 204.447 266.011 205.247 266.511 205.941C266.248 206.304 266.022 206.698 265.836 207.114L270.039 209.499L265.558 207.858C265.245 208.871 265.168 209.954 265.334 211.008C265.501 212.062 265.905 213.054 266.511 213.894C265.828 214.844 265.403 215.984 265.285 217.185C265.167 218.386 265.361 219.598 265.845 220.684C266.328 221.77 267.082 222.686 268.02 223.327C268.958 223.967 270.041 224.307 271.148 224.307C272.254 224.307 273.338 223.967 274.275 223.327C275.213 222.686 275.967 221.77 276.45 220.684C276.934 219.598 277.128 218.386 277.01 217.185C276.892 215.984 276.468 214.844 275.784 213.894C276.603 212.759 277.048 211.357 277.048 209.912C277.048 208.468 276.603 207.065 275.784 205.93L275.778 205.941Z" fill="#0385B6"/>
<path opacity="0.1" d="M265.24 209.911C265.239 211.357 265.687 212.761 266.511 213.894C265.828 214.844 265.403 215.984 265.285 217.185C265.167 218.386 265.361 219.598 265.845 220.684C266.328 221.77 267.082 222.686 268.02 223.327C268.958 223.967 270.041 224.307 271.148 224.307C272.254 224.307 273.338 223.967 274.275 223.327C275.213 222.686 275.967 221.77 276.45 220.684C276.934 219.598 277.128 218.386 277.01 217.185C276.892 215.984 276.468 214.844 275.784 213.894C276.567 212.796 265.24 209.188 265.24 209.911Z" fill="black"/>
<path d="M53.6171 281C62.0276 281 68.8456 279.569 68.8456 277.803C68.8456 276.037 62.0276 274.606 53.6171 274.606C45.2067 274.606 38.3886 276.037 38.3886 277.803C38.3886 279.569 45.2067 281 53.6171 281Z" fill="#0385B6"/>
<path d="M53.3616 278.98C54.3403 278.98 55.1337 277.844 55.1337 276.444C55.1337 275.044 54.3403 273.909 53.3616 273.909C52.3829 273.909 51.5895 275.044 51.5895 276.444C51.5895 277.844 52.3829 278.98 53.3616 278.98Z" fill="#3F3D56"/>
<path d="M53.3616 275.883C54.3403 275.883 55.1337 274.748 55.1337 273.347C55.1337 271.947 54.3403 270.812 53.3616 270.812C52.3829 270.812 51.5895 271.947 51.5895 273.347C51.5895 274.748 52.3829 275.883 53.3616 275.883Z" fill="#3F3D56"/>
<path d="M53.3616 272.786C54.3403 272.786 55.1337 271.651 55.1337 270.251C55.1337 268.851 54.3403 267.715 53.3616 267.715C52.3829 267.715 51.5895 268.851 51.5895 270.251C51.5895 271.651 52.3829 272.786 53.3616 272.786Z" fill="#3F3D56"/>
<path d="M53.3616 269.689C54.3403 269.689 55.1337 268.554 55.1337 267.154C55.1337 265.754 54.3403 264.619 53.3616 264.619C52.3829 264.619 51.5895 265.754 51.5895 267.154C51.5895 268.554 52.3829 269.689 53.3616 269.689Z" fill="#3F3D56"/>
<path d="M53.3616 266.593C54.3403 266.593 55.1337 265.457 55.1337 264.057C55.1337 262.657 54.3403 261.522 53.3616 261.522C52.3829 261.522 51.5895 262.657 51.5895 264.057C51.5895 265.457 52.3829 266.593 53.3616 266.593Z" fill="#3F3D56"/>
<path d="M53.3616 263.492C54.3403 263.492 55.1337 262.357 55.1337 260.957C55.1337 259.557 54.3403 258.422 53.3616 258.422C52.3829 258.422 51.5895 259.557 51.5895 260.957C51.5895 262.357 52.3829 263.492 53.3616 263.492Z" fill="#3F3D56"/>
<path d="M53.3616 260.395C54.3403 260.395 55.1337 259.26 55.1337 257.86C55.1337 256.46 54.3403 255.325 53.3616 255.325C52.3829 255.325 51.5895 256.46 51.5895 257.86C51.5895 259.26 52.3829 260.395 53.3616 260.395Z" fill="#3F3D56"/>
<path d="M59.998 236.669C60.2379 236.328 60.4567 235.969 60.6532 235.596L55.9952 234.76L61.0331 234.803C61.516 233.654 61.7793 232.41 61.8069 231.146C61.8345 229.883 61.6258 228.626 61.1936 227.454L54.4393 231.295L60.663 226.288C60.0802 225.184 59.2952 224.223 58.3571 223.465C57.419 222.707 56.3478 222.169 55.2104 221.883C54.0731 221.597 52.8939 221.57 51.7466 221.803C50.5992 222.037 49.5083 222.526 48.5419 223.24C47.5754 223.955 46.7542 224.879 46.1295 225.955C45.5047 227.031 45.0899 228.237 44.9108 229.496C44.7317 230.755 44.7923 232.041 45.0887 233.273C45.385 234.505 45.9109 235.658 46.6334 236.658C46.2509 237.181 45.9214 237.747 45.6507 238.346L51.7008 241.779L45.2511 239.415C44.7991 240.881 44.6899 242.447 44.9336 243.97C45.1774 245.493 45.7662 246.926 46.6465 248.137C45.661 249.505 45.0479 251.148 44.8773 252.878C44.7067 254.608 44.9856 256.356 45.682 257.921C46.3784 259.486 47.4642 260.806 48.8153 261.729C50.1664 262.653 51.7282 263.142 53.3223 263.142C54.9163 263.142 56.4781 262.653 57.8292 261.729C59.1803 260.806 60.2662 259.486 60.9626 257.921C61.659 256.356 61.9378 254.608 61.7672 252.878C61.5967 251.148 60.9836 249.505 59.998 248.137C61.176 246.503 61.8164 244.484 61.8164 242.405C61.8164 240.326 61.176 238.307 59.998 236.673V236.669Z" fill="#0385B6"/>
<path opacity="0.1" d="M44.8285 242.416C44.8288 244.492 45.4692 246.507 46.6465 248.137C45.661 249.505 45.0479 251.148 44.8773 252.878C44.7067 254.608 44.9856 256.356 45.682 257.921C46.3784 259.486 47.4642 260.806 48.8153 261.729C50.1664 262.653 51.7282 263.142 53.3223 263.142C54.9163 263.142 56.4781 262.653 57.8292 261.729C59.1803 260.806 60.2662 259.486 60.9626 257.921C61.659 256.356 61.9378 254.608 61.7672 252.878C61.5967 251.148 60.9836 249.505 59.998 248.137C61.1281 246.557 44.8285 241.361 44.8285 242.416Z" fill="black"/>
<defs>
<linearGradient id="paint0_linear" x1="202.155" y1="274.04" x2="196.99" y2="156.742" gradientUnits="userSpaceOnUse">
<stop stop-color="#808080" stop-opacity="0.25"/>
<stop offset="0.54" stop-color="#808080" stop-opacity="0.12"/>
<stop offset="1" stop-color="#808080" stop-opacity="0.1"/>
</linearGradient>
</defs>
</svg>
