<svg width="343" height="285" viewBox="0 0 343 285" fill="none" xmlns="http://www.w3.org/2000/svg">
<rect width="340" height="285" rx="20" fill="#00D49C" fill-opacity="0.2"/>
<g clip-path="url(#clip0)">
<path opacity="0.1" d="M333.894 264.724C333.575 265.058 333.247 265.378 332.916 265.695C331.695 266.863 330.42 267.913 329.101 268.838C322.167 273.774 313.626 276.183 305.304 277.819C286.641 281.498 267.584 282.211 248.608 282.911C197.341 284.814 145.937 286.708 94.8003 282.329C74.5973 280.6 53.942 277.689 35.6304 268.829C33.008 267.561 30.4348 266.163 27.9109 264.636C22.8099 261.535 17.9099 257.768 13.8344 253.279C9.9924 249.06 6.90106 244.209 5.04507 238.699C1.17351 227.216 3.2216 214.319 7.63991 203.068C9.48672 198.502 11.5608 194.131 13.8462 189.99C17.2508 183.653 21.0071 177.515 24.4413 171.187C36.653 148.651 44.6207 120.187 33.3489 97.102C30.0979 90.4701 25.4254 84.6483 22.7863 77.7254C19.4142 68.8661 19.6772 59.0322 20.75 49.4599C20.886 48.2534 21.0456 47.0553 21.1904 45.8572C23.0316 31.6949 26.4598 16.4316 37.0726 7.58912C48.0963 -1.59926 63.7451 -1.1352 77.4315 2.15119C98.7103 7.26428 118.34 17.9419 138.162 27.5859C157.984 37.2299 178.745 46.0386 200.544 46.992C219.79 47.8357 242.242 41.5625 255.015 25.2824C267.428 9.47067 290.746 8.26834 307.562 17.8195C319.088 24.3754 327.703 36.1836 331.335 49.4599C332.069 52.1181 332.599 54.8821 332.916 57.7033C333.211 60.2722 333.31 62.8791 333.212 65.4784C333.161 66.744 333.064 68.0308 332.916 69.2753C330.109 95.4862 309.891 116.158 297.602 139.572C291.597 151.009 287.356 164.745 291.485 177.076C297.782 195.866 319.685 202.545 332.916 216.534C335.388 219.051 337.58 222.087 339.418 225.537C345.816 237.99 343.449 254.798 333.894 264.724Z" fill="#00D49C"/>
<path opacity="0.1" d="M161.908 278.377C205.92 278.377 241.598 276.646 241.598 274.512C241.598 272.378 205.92 270.648 161.908 270.648C117.897 270.648 82.2192 272.378 82.2192 274.512C82.2192 276.646 117.897 278.377 161.908 278.377Z" fill="#00D49C"/>
<path d="M225.222 271.939C225.222 271.939 242.363 240.944 241.036 210.135C240.478 197.2 242.709 184.324 247.695 173.495C250.066 168.365 252.763 163.556 255.751 159.13" stroke="#00D49C" stroke-width="2" stroke-miterlimit="10"/>
<path d="M254.991 139.703C253.78 144.015 255.727 159.641 255.727 159.641C255.727 159.641 264.709 150.279 265.92 145.972C266.209 144.947 266.353 143.851 266.345 142.747C266.336 141.642 266.176 140.551 265.872 139.535C265.568 138.519 265.127 137.599 264.574 136.826C264.021 136.054 263.367 135.444 262.649 135.033C261.931 134.621 261.163 134.416 260.389 134.427C259.616 134.439 258.851 134.669 258.14 135.102C257.428 135.536 256.783 136.166 256.242 136.955C255.701 137.744 255.274 138.678 254.986 139.703H254.991Z" fill="#00D49C"/>
<path d="M239.242 158.388C239.866 162.944 247.452 174.55 247.452 174.55C247.452 174.55 251.427 159.725 250.804 155.169C250.489 153.003 249.588 151.101 248.298 149.876C247.007 148.651 245.43 148.201 243.909 148.625C242.388 149.048 241.045 150.311 240.171 152.138C239.297 153.966 238.964 156.211 239.242 158.388Z" fill="#00D49C"/>
<path d="M228.162 199.394C230.311 202.878 240.962 207.409 240.962 207.409C240.962 207.409 239.151 191.749 237.002 188.265C236.491 187.436 235.871 186.759 235.177 186.273C234.482 185.787 233.728 185.5 232.956 185.43C232.185 185.36 231.411 185.508 230.679 185.864C229.947 186.221 229.272 186.78 228.691 187.51C228.111 188.239 227.637 189.124 227.296 190.115C226.956 191.106 226.755 192.183 226.706 193.285C226.657 194.386 226.76 195.491 227.01 196.535C227.26 197.58 227.651 198.544 228.162 199.373V199.394Z" fill="#00D49C"/>
<path d="M224.669 233.114C226.374 237.067 236.337 244.125 236.337 244.125C236.337 244.125 236.405 228.25 234.7 224.297C234.297 223.348 233.767 222.522 233.14 221.867C232.513 221.212 231.801 220.741 231.045 220.48C230.29 220.219 229.506 220.175 228.738 220.349C227.971 220.523 227.235 220.912 226.573 221.493C225.911 222.075 225.337 222.838 224.883 223.738C224.428 224.638 224.103 225.658 223.926 226.738C223.749 227.818 223.724 228.938 223.851 230.032C223.979 231.126 224.257 232.174 224.669 233.114Z" fill="#00D49C"/>
<path d="M258.706 181.966C255.695 183.725 244.736 181.051 244.736 181.051C244.736 181.051 251.238 168.167 254.241 166.408C255.681 165.602 257.285 165.637 258.707 166.505C260.129 167.374 261.254 169.005 261.841 171.048C262.427 173.091 262.427 175.381 261.84 177.424C261.254 179.466 260.128 181.098 258.706 181.966Z" fill="#00D49C"/>
<path d="M254.273 221.327C251.022 221.723 241.134 214.488 241.134 214.488C241.134 214.488 250.032 204.971 253.271 204.574C254.049 204.461 254.835 204.569 255.583 204.894C256.331 205.218 257.026 205.752 257.628 206.464C258.23 207.176 258.727 208.052 259.089 209.041C259.452 210.03 259.673 211.112 259.739 212.223C259.806 213.335 259.716 214.455 259.477 215.517C259.237 216.579 258.851 217.563 258.343 218.41C257.834 219.258 257.212 219.952 256.513 220.453C255.815 220.953 255.053 221.251 254.273 221.327Z" fill="#00D49C"/>
<path d="M246.27 258.743C243.123 259.911 232.513 255.169 232.513 255.169C232.513 255.169 240.155 243.644 243.303 242.471C244.798 241.979 246.369 242.34 247.681 243.476C248.993 244.612 249.942 246.434 250.327 248.554C250.712 250.674 250.503 252.925 249.743 254.828C248.983 256.731 247.733 258.136 246.258 258.743H246.27Z" fill="#00D49C"/>
<path opacity="0.25" d="M254.991 139.703C253.78 144.015 255.727 159.641 255.727 159.641C255.727 159.641 264.709 150.279 265.92 145.972C266.209 144.947 266.353 143.851 266.345 142.747C266.336 141.642 266.176 140.551 265.872 139.535C265.568 138.519 265.127 137.599 264.574 136.826C264.021 136.054 263.367 135.444 262.649 135.033C261.931 134.621 261.163 134.416 260.389 134.427C259.616 134.439 258.851 134.669 258.14 135.102C257.428 135.536 256.783 136.166 256.242 136.955C255.701 137.744 255.274 138.678 254.986 139.703H254.991Z" fill="black"/>
<path opacity="0.25" d="M239.242 158.388C239.866 162.944 247.452 174.55 247.452 174.55C247.452 174.55 251.427 159.725 250.804 155.169C250.489 153.003 249.588 151.101 248.298 149.876C247.007 148.651 245.43 148.201 243.909 148.625C242.388 149.048 241.045 150.311 240.171 152.138C239.297 153.966 238.964 156.211 239.242 158.388Z" fill="black"/>
<path opacity="0.25" d="M228.162 199.394C230.311 202.878 240.962 207.409 240.962 207.409C240.962 207.409 239.151 191.749 237.002 188.265C236.491 187.436 235.871 186.759 235.177 186.273C234.482 185.787 233.728 185.5 232.956 185.43C232.185 185.36 231.411 185.508 230.679 185.864C229.947 186.221 229.272 186.78 228.691 187.51C228.111 188.239 227.637 189.124 227.296 190.115C226.956 191.106 226.755 192.183 226.706 193.285C226.657 194.386 226.76 195.491 227.01 196.535C227.26 197.58 227.651 198.544 228.162 199.373V199.394Z" fill="black"/>
<path opacity="0.25" d="M224.669 233.114C226.374 237.067 236.337 244.125 236.337 244.125C236.337 244.125 236.405 228.25 234.7 224.297C234.297 223.348 233.767 222.522 233.14 221.867C232.513 221.212 231.801 220.741 231.045 220.48C230.29 220.219 229.506 220.175 228.738 220.349C227.971 220.523 227.235 220.912 226.573 221.493C225.911 222.075 225.337 222.838 224.883 223.738C224.428 224.638 224.103 225.658 223.926 226.738C223.749 227.818 223.724 228.938 223.851 230.032C223.979 231.126 224.257 232.174 224.669 233.114Z" fill="black"/>
<path opacity="0.25" d="M258.706 181.966C255.695 183.725 244.736 181.051 244.736 181.051C244.736 181.051 251.238 168.167 254.241 166.408C255.681 165.602 257.285 165.637 258.707 166.505C260.129 167.374 261.254 169.005 261.841 171.048C262.427 173.091 262.427 175.381 261.84 177.424C261.254 179.466 260.128 181.098 258.706 181.966Z" fill="black"/>
<path opacity="0.25" d="M254.273 221.327C251.022 221.723 241.134 214.488 241.134 214.488C241.134 214.488 250.032 204.971 253.271 204.574C254.049 204.461 254.835 204.569 255.583 204.894C256.331 205.218 257.026 205.752 257.628 206.464C258.23 207.176 258.727 208.052 259.089 209.041C259.452 210.03 259.673 211.112 259.739 212.223C259.806 213.335 259.716 214.455 259.477 215.517C259.237 216.579 258.851 217.563 258.343 218.41C257.834 219.258 257.212 219.952 256.513 220.453C255.815 220.953 255.053 221.251 254.273 221.327Z" fill="black"/>
<path opacity="0.25" d="M246.27 258.743C243.123 259.911 232.513 255.169 232.513 255.169C232.513 255.169 240.155 243.644 243.303 242.471C244.798 241.979 246.369 242.34 247.681 243.476C248.993 244.612 249.942 246.434 250.327 248.554C250.712 250.674 250.503 252.925 249.743 254.828C248.983 256.731 247.733 258.136 246.258 258.743H246.27Z" fill="black"/>
<path d="M225.37 270.644C225.37 270.644 249.84 252.229 257.371 223.293C260.533 211.143 266.237 200.664 273.859 193.648C277.485 190.33 281.316 187.493 285.305 185.172" stroke="#00D49C" stroke-width="2" stroke-miterlimit="10"/>
<path d="M290.122 166.969C287.793 170.204 285.136 185.62 285.136 185.62C285.136 185.62 296.003 182.245 298.335 179.021C299.43 177.459 300.051 175.344 300.062 173.134C300.072 170.924 299.473 168.796 298.394 167.212C297.314 165.628 295.841 164.714 294.293 164.668C292.745 164.623 291.247 165.449 290.122 166.969Z" fill="#00D49C"/>
<path d="M270.422 174.946C269.697 179.473 273.339 194.47 273.339 194.47C273.339 194.47 281.179 183.219 281.909 178.692C282.099 177.607 282.135 176.479 282.016 175.374C281.897 174.269 281.624 173.208 281.214 172.255C280.804 171.302 280.265 170.475 279.629 169.823C278.992 169.171 278.271 168.707 277.507 168.458C276.743 168.209 275.952 168.18 275.181 168.372C274.409 168.565 273.672 168.975 273.013 169.579C272.353 170.183 271.785 170.969 271.341 171.891C270.897 172.812 270.587 173.851 270.427 174.946H270.422Z" fill="#00D49C"/>
<path d="M248.658 206.026C249.633 210.455 258.08 220.791 258.08 220.791C258.08 220.791 260.87 205.426 259.894 200.997C259.675 199.921 259.308 198.919 258.813 198.049C258.319 197.179 257.708 196.459 257.015 195.931C256.323 195.403 255.564 195.077 254.783 194.974C254.001 194.87 253.213 194.991 252.465 195.328C251.717 195.666 251.023 196.213 250.425 196.938C249.827 197.664 249.337 198.552 248.983 199.552C248.628 200.552 248.418 201.642 248.363 202.76C248.308 203.877 248.411 204.999 248.664 206.059L248.658 206.026Z" fill="#00D49C"/>
<path d="M235.885 234.835C236.322 239.434 243.424 251.647 243.424 251.647C243.424 251.647 247.993 237.177 247.561 232.574C247.457 231.48 247.204 230.426 246.814 229.471C246.425 228.517 245.907 227.682 245.292 227.013C244.676 226.345 243.975 225.856 243.227 225.574C242.479 225.293 241.699 225.224 240.933 225.373C240.166 225.521 239.428 225.884 238.759 226.439C238.091 226.995 237.506 227.734 237.037 228.612C236.569 229.491 236.226 230.493 236.029 231.561C235.832 232.628 235.784 233.741 235.888 234.835H235.885Z" fill="#00D49C"/>
<path d="M281.507 207.751C278.256 207.62 268.994 198.833 268.994 198.833C268.994 198.833 278.59 190.817 281.841 190.944C283.387 191.037 284.846 191.996 285.901 193.613C286.956 195.229 287.523 197.374 287.479 199.582C287.435 201.791 286.784 203.886 285.666 205.414C284.549 206.943 283.055 207.782 281.507 207.751Z" fill="#00D49C"/>
<path d="M266.281 241.172C263.207 239.657 256.212 227.322 256.212 227.322C256.212 227.322 267.046 223.765 270.123 225.28C271.567 226.043 272.744 227.582 273.402 229.569C274.06 231.555 274.148 233.83 273.646 235.907C273.144 237.985 272.092 239.699 270.715 240.683C269.339 241.667 267.747 241.842 266.281 241.172Z" fill="#00D49C"/>
<path d="M248.363 270.749C245.153 269.998 236.795 259.527 236.795 259.527C236.795 259.527 247.056 253.406 250.266 254.157C251.785 254.552 253.135 255.782 254.025 257.583C254.915 259.384 255.274 261.612 255.024 263.788C254.774 265.963 253.937 267.911 252.691 269.213C251.445 270.515 249.89 271.067 248.363 270.749Z" fill="#00D49C"/>
<path d="M227.515 273.217H224.894L205.719 131.919L203.26 273.217H200.476L197.361 132.156L178.677 273.217H175.728L188.427 127.988L188.841 123.267L213.752 119.289L214.526 127.988L227.515 273.217Z" fill="#464353"/>
<path d="M174.599 90.9641H158.743V105H174.599V90.9641Z" fill="#464353"/>
<path d="M250.742 84.8258L260.329 79.2993H262.43C262.737 79.2993 263.031 79.4731 263.247 79.7824C263.464 80.0918 263.586 80.5114 263.586 80.9488V119.491C263.586 119.929 263.464 120.348 263.247 120.657C263.031 120.967 262.737 121.141 262.43 121.141H260.329L250.742 115.441V84.8258Z" fill="#464353"/>
<path d="M250.742 86.5808H231.138V113.686H250.742V86.5808Z" fill="#464353"/>
<path d="M209.73 35.6693H197.11V38.943H209.73V35.6693Z" fill="#0385B6"/>
<path d="M218.232 39.9091H182.711V76.9284H218.232V39.9091Z" fill="#0385B6"/>
<path opacity="0.1" d="M218.232 72.5452H182.711V76.9326H218.232V72.5452Z" fill="black"/>
<path opacity="0.1" d="M231.629 86.5808H230.834V113.686H231.629V86.5808Z" fill="black"/>
<path opacity="0.1" d="M174.599 90.9641H169.19V105H174.599V90.9641Z" fill="black"/>
<path opacity="0.1" d="M214.526 127.988H188.427L188.841 123.267L213.752 119.289L214.526 127.988Z" fill="black"/>
<path d="M227.973 73.2455H172.843C171.097 73.2455 169.681 75.2665 169.681 77.7595V122.769C169.681 125.262 171.097 127.283 172.843 127.283H227.973C229.72 127.283 231.136 125.262 231.136 122.769V77.7595C231.136 75.2665 229.72 73.2455 227.973 73.2455Z" fill="#0385B6"/>
<path d="M250.555 84.8259H250.742V115.441H250.555C250.149 115.441 249.758 115.21 249.471 114.8C249.183 114.389 249.022 113.832 249.022 113.252V87.0154C249.022 86.4347 249.183 85.8778 249.471 85.4672C249.758 85.0565 250.149 84.8259 250.555 84.8259Z" fill="#0385B6"/>
<path d="M260.329 79.312H262.318C262.654 79.312 262.977 79.5027 263.214 79.8421C263.452 80.1815 263.586 80.6418 263.586 81.1218V119.352C263.586 119.832 263.452 120.292 263.214 120.632C262.977 120.971 262.654 121.162 262.318 121.162H260.329V79.312Z" fill="#0385B6"/>
<path opacity="0.1" d="M161.572 90.9641H158.743V105H161.572V90.9641Z" fill="black"/>
<path d="M158.95 86.5808H157.676C156.501 86.5808 155.548 87.9407 155.548 89.6183V107.404C155.548 109.082 156.501 110.442 157.676 110.442H158.95C160.125 110.442 161.078 109.082 161.078 107.404V89.6183C161.078 87.9407 160.125 86.5808 158.95 86.5808Z" fill="#0385B6"/>
<path d="M182.711 65.175C192.487 65.175 200.411 53.8631 200.411 39.9091C200.411 25.9551 192.487 14.6432 182.711 14.6432C172.936 14.6432 165.012 25.9551 165.012 39.9091C165.012 53.8631 172.936 65.175 182.711 65.175Z" fill="#464353"/>
<path d="M182.711 58.8596C190.043 58.8596 195.987 50.3752 195.987 39.9091C195.987 29.443 190.043 20.9586 182.711 20.9586C175.38 20.9586 169.436 29.443 169.436 39.9091C169.436 50.3752 175.38 58.8596 182.711 58.8596Z" fill="#FF005C"/>
<path d="M215.528 58.8596C222.656 58.8596 228.434 50.6113 228.434 40.4364C228.434 30.2616 222.656 22.0133 215.528 22.0133C208.4 22.0133 202.622 30.2616 202.622 40.4364C202.622 50.6113 208.4 58.8596 215.528 58.8596Z" fill="#464353"/>
<path d="M215.528 54.2528C220.874 54.2528 225.207 48.067 225.207 40.4365C225.207 32.8059 220.874 26.6201 215.528 26.6201C210.183 26.6201 205.849 32.8059 205.849 40.4365C205.849 48.067 210.183 54.2528 215.528 54.2528Z" fill="#FF005C"/>
<path d="M214.526 83.7121C215.465 83.7121 216.226 82.6261 216.226 81.2863C216.226 79.9466 215.465 78.8606 214.526 78.8606C213.588 78.8606 212.827 79.9466 212.827 81.2863C212.827 82.6261 213.588 83.7121 214.526 83.7121Z" fill="#FF005C"/>
<path opacity="0.5" d="M219.932 83.7121C220.87 83.7121 221.631 82.6261 221.631 81.2863C221.631 79.9466 220.87 78.8606 219.932 78.8606C218.993 78.8606 218.232 79.9466 218.232 81.2863C218.232 82.6261 218.993 83.7121 219.932 83.7121Z" fill="#00D49C"/>
<path d="M198.543 89.6563L198.422 89.3146C199.172 89.6701 199.891 90.1426 200.568 90.7236C200.272 87.0576 190.422 76.7639 188.649 76.7639C186.876 76.7639 184.904 72.3933 184.904 72.3933C184.904 72.3933 179.783 71.2669 178.994 70.073C178.204 68.8791 172.885 69.5752 171.605 69.9971C170.325 70.4189 168.354 68.8707 168.354 68.8707C168.354 68.8707 167.269 66.3394 165.892 66.3394C164.515 66.3394 163.04 63.5213 163.04 63.5213C163.04 63.5213 161.755 61.8338 160.573 61.5469C159.39 61.2601 157.913 59.4376 157.221 58.0243C156.53 56.611 153.084 55.915 151.115 56.3368C149.147 56.7587 143.824 55.7631 143.824 55.7631C145.991 54.354 146.514 50.9706 146.514 50.9706C144.575 50.8272 139.48 44.7185 139.48 44.7185C139.48 44.7185 139.69 46.6928 139.932 49.4477L139.604 48.8444L139.56 48.895C139.456 46.9297 139.441 44.9568 139.515 42.9888C139.515 42.8369 139.533 42.685 139.539 42.5289C140.801 40.951 141.736 38.9108 142.245 36.6289C142.753 34.347 142.815 31.9101 142.424 29.5817C142.37 29.2611 142.308 28.9489 142.237 28.6409C142.614 28.8648 143.013 29.007 143.419 29.0628H143.629C143.874 29.0651 144.116 28.9933 144.34 28.8522C144.563 28.7112 144.763 28.504 144.927 28.2444C144.982 28.1444 145.031 28.037 145.072 27.9237C145.082 27.9022 145.09 27.8796 145.098 27.8562C145.133 27.7527 145.163 27.6455 145.187 27.5356C145.195 27.4968 145.202 27.4573 145.207 27.4175C145.222 27.3312 145.234 27.2439 145.243 27.1559C145.243 27.0842 145.243 27.0083 145.243 26.9323C145.243 26.8564 145.243 26.8226 145.243 26.7678C145.231 26.1192 145.13 25.4802 144.947 24.8863C144.637 23.7978 144.191 22.722 144.223 21.545C144.223 21.448 144.238 21.3552 144.247 21.2624C144.33 20.3385 144.67 19.4821 144.874 18.5919V18.5539C144.903 18.4232 144.927 18.2924 144.947 18.1616C144.957 18.123 144.965 18.0835 144.971 18.0435C144.993 17.889 145.008 17.7325 145.015 17.5752C145.015 17.5752 145.015 17.5541 145.015 17.5415C145.092 15.778 144.096 14.2382 142.967 13.5252C141.957 12.884 140.801 12.711 139.876 11.8377C138.821 10.8463 138.242 9.12932 137.461 7.70761C136.327 5.64044 134.55 4.09638 132.733 4.39169C131.613 4.5731 130.596 5.41263 129.482 5.73747C127.788 6.2395 125.997 5.50966 124.313 6.07075C123.904 6.16776 123.532 6.4663 123.261 6.91449C123.148 7.14068 123.075 7.40272 123.048 7.67808C123.024 7.9329 123.024 8.19107 123.048 8.44589V8.46698C123.067 8.71013 123.098 8.95116 123.14 9.18838L123.166 9.33604C123.166 9.38667 123.181 9.43307 123.19 9.48369C123.199 9.53432 123.228 9.68197 123.246 9.779C123.278 9.94353 123.305 10.1081 123.335 10.2768V10.3359C123.361 10.5088 123.388 10.6818 123.409 10.859C123.456 11.2243 123.488 11.5934 123.503 11.9643C123.573 13.0081 123.415 14.0571 123.051 14.968C122.312 16.6555 120.743 17.4022 120.06 19.1614C119.899 19.5859 119.798 20.052 119.765 20.5325C119.752 20.6922 119.747 20.8529 119.75 21.0135V21.0767C119.75 21.216 119.75 21.3552 119.776 21.4986C119.775 21.5323 119.775 21.5661 119.776 21.5999C119.791 21.725 119.811 21.8489 119.835 21.9711C119.835 22.0133 119.85 22.0513 119.859 22.0892C119.892 22.2336 119.931 22.3745 119.977 22.5111C120.294 23.4519 120.891 24.2281 121.015 25.2491C121.015 25.2786 121.015 25.3081 121.029 25.3419C121.097 26.1097 120.876 26.8606 120.76 27.6158C120.745 27.7076 120.733 27.8006 120.725 27.8942C120.725 27.9237 120.725 27.9533 120.725 27.9828C120.725 28.0123 120.725 28.1094 120.725 28.1769C120.725 28.2444 120.725 28.2486 120.725 28.2865C120.725 28.3245 120.725 28.4004 120.725 28.4553C120.723 28.4946 120.723 28.5341 120.725 28.5734C120.725 28.6283 120.725 28.6831 120.725 28.7337C120.725 28.7844 120.725 28.8097 120.725 28.8476C120.725 28.8856 120.743 28.9531 120.755 29.0037L120.775 29.1092C120.789 29.1595 120.805 29.2088 120.823 29.2569L120.855 29.3497C120.877 29.4008 120.9 29.4501 120.926 29.4973C120.937 29.5208 120.949 29.5433 120.961 29.5648C121.002 29.6326 121.047 29.6935 121.097 29.7462C121.505 30.1681 122.141 30.0584 122.475 30.59C122.512 30.6543 122.544 30.7252 122.569 30.8009L122.587 30.8515C122.611 30.9258 122.63 31.0036 122.643 31.0836C122.69 31.4006 122.69 31.7283 122.643 32.0454C122.525 32.8892 122.274 33.657 122.141 34.4838C122.114 34.6526 122.096 34.8256 122.082 34.9985C122.082 35.0787 122.082 35.1546 122.067 35.2306V35.2812C122.067 35.3529 122.067 35.4288 122.067 35.5006C122.067 35.5723 122.067 35.5385 122.067 35.5596C122.067 35.6651 122.067 35.7748 122.084 35.8802C122.102 35.9857 122.084 35.9815 122.102 36.0279L122.12 36.1502C122.12 36.2051 122.141 36.2599 122.152 36.3148L122.179 36.4202C122.194 36.4793 122.215 36.5384 122.232 36.5974C122.241 36.625 122.251 36.6518 122.262 36.6776C122.292 36.7639 122.327 36.8459 122.368 36.9223C122.726 37.6141 123.314 37.8462 123.935 37.8504C124.287 37.8475 124.637 37.791 124.981 37.6816C125.058 37.939 125.137 38.1963 125.223 38.4452C125.652 39.6766 126.213 40.8042 126.887 41.7865C126.887 41.9172 126.869 42.0438 126.857 42.1788C126.789 43.1407 126.707 44.1742 126.612 45.2163C125.847 44.7142 125.256 44.5202 125.022 44.883C124.032 46.4355 125.022 51.7933 125.022 51.7933C125.022 51.7933 120.19 51.7933 119.008 53.3415C117.826 54.8898 115.659 53.3415 115.659 53.3415C115.659 53.3415 111.226 54.0503 111.522 55.3201C111.817 56.59 109.158 55.3201 109.158 55.3201C109.158 55.3201 107.284 55.6028 107.384 57.4295C107.485 59.2562 104.527 60.1042 104.92 61.374C105.313 62.6438 103.146 63.4834 103.146 63.4834C103.146 63.4834 100.98 63.3441 101.769 65.1708C101.769 65.1708 100.587 69.1196 99.6028 69.3896C98.6187 69.6596 97.3361 72.9122 97.3361 72.9122C97.3361 72.9122 93.5413 73.8994 93.7127 75.5911C93.8842 77.2828 87.8788 89.3863 87.8788 89.3863C87.8788 89.3863 85.9076 95.187 87.2877 99.4184C88.6679 103.65 89.652 106.468 89.9476 108.016C90.2431 109.564 93.825 116.382 93.7955 117.652C93.7955 118.048 94.6821 120.183 95.8909 122.891L95.5362 123.415L94.7589 124.558C94.7589 124.558 92.2942 133.299 95.2495 133.721C97.7469 134.075 99.5408 134.333 100.451 133.978C100.599 133.929 100.739 133.842 100.865 133.721L100.9 133.683C101.976 135.948 102.739 137.53 102.739 137.53C102.739 137.53 102.845 137.307 103.034 136.923L103.33 137.526C103.33 137.526 103.566 137.045 103.968 136.261C103.838 140.095 103.82 143.875 103.82 143.875C103.82 143.875 105.103 143.593 104.512 152.051C103.921 160.51 108.058 167.416 108.058 167.416V179.967C108.058 179.967 108.058 180.283 108.1 180.81C108.209 182.612 108.569 186.86 109.633 189.67C111.014 193.331 109.633 202.921 109.633 202.921C109.633 202.921 109.542 210.742 109.873 220.496C109.873 220.762 109.894 221.036 109.902 221.306C103.927 228.435 97.5163 237.885 97.5163 237.885C97.8302 238.011 98.1291 238.203 98.4029 238.455L98.0453 239.109L96.4169 241.973L95.1579 244.192L97.1528 252.963L99.3309 251.748C99.3309 251.748 100.513 254.672 100.265 256.654C100.227 257.013 100.125 257.351 99.9693 257.637C99.8941 257.781 99.8416 257.947 99.8156 258.123C99.2452 261.299 101.624 274.997 105.398 275.592C105.398 275.592 106.678 276.196 107.089 274.55C107.287 273.757 107.284 272.441 106.841 270.302C106.841 270.302 104.846 266.868 106.137 263.168C106.894 261.004 108.144 258.106 109.048 256.06L109.421 255.216C110.233 256.68 110.733 257.621 110.733 257.621L113.635 253.166C113.697 253.355 113.759 253.541 113.824 253.718C114.041 254.339 114.292 254.934 114.575 255.499L116.543 266.64L117.338 266.387C117.32 266.657 117.309 266.944 117.297 267.231C117.232 269.23 117.297 271.825 117.944 273.677C118.429 275.094 119.247 276.082 120.583 276.035C125.164 275.875 126.494 272.335 126.494 272.335V263.476L128.069 262.974C128.069 262.974 127.954 243.509 127.549 232.654C127.549 232.414 127.531 232.182 127.522 231.954C127.522 231.92 127.522 231.886 127.522 231.857L137.639 216.328L138.416 215.885C144.918 212.219 145.018 202.773 145.018 202.773C145.018 202.773 145.018 197.559 145.804 193.188C146.591 188.817 145.905 166.116 144.427 160.48C142.95 154.844 142.456 148.491 142.456 148.491C142.456 148.491 143.934 145.538 142.456 143.078C142.039 142.342 141.691 141.531 141.422 140.665L143.346 140.213L144.454 139.952L145.045 139.808C144.749 143.538 144.699 146.402 145.4 147.086C147.569 149.195 154.857 142.15 154.857 142.15C152.197 142.15 150.719 113.813 151.26 113.108C151.801 112.404 152.608 98.2034 151.901 95.6722C151.195 93.141 154.381 81.839 154.381 81.839L154.872 80.8012C154.872 80.8012 166.498 88.0447 167.778 89.4327C169.057 90.8207 173.097 86.0577 173.786 87.9013C174.475 89.7449 178.81 92.4913 178.81 92.4913C178.81 92.4913 185.215 91.5674 185.903 93.8244C186.592 96.0814 190.732 101.367 190.732 101.367C190.734 100.128 190.787 98.89 190.889 97.6592C190.975 97.9503 191.057 98.2456 191.146 98.5452C193.108 105.173 196.374 113.564 199.4 109.05C202.829 103.92 200.219 94.4361 198.543 89.6563ZM110.919 119.609V119.689L110.895 119.656L110.919 119.609ZM108.626 87.0913L107.373 105.953L104.911 109.594L104.615 110.041L102.071 106.088C102.071 106.088 100.788 105.244 102.071 103.692C103.353 102.14 99.9043 98.6295 99.9043 98.6295C99.9043 98.6295 99.8038 96.0983 101.086 95.3895C102.369 94.6808 104.042 90.0318 104.042 90.0318L108.673 86.6568L108.626 87.0913ZM125.105 183.633C125.195 183.514 125.294 183.41 125.4 183.325C125.953 182.877 126.308 183.367 126.491 184.227C126.732 185.67 126.659 187.183 126.281 188.564C125.593 190.821 127.268 199.845 127.268 199.845C127.268 199.845 125.099 201.25 124.706 203.933C124.648 204.263 124.547 204.574 124.41 204.853C124.384 204.617 124.36 204.389 124.336 204.169C124.144 202.482 124.041 201.393 124.041 201.393C123.688 199.222 123.621 196.976 123.843 194.77C124.156 192.057 124.789 186.548 125.025 184.459C125.084 183.953 125.117 183.649 125.12 183.616L125.105 183.633Z" fill="url(#paint0_linear)"/>
<path d="M138.842 46.2794L139.48 45.6719L141.28 51.0929L140.588 52.2531H138.496C138.496 52.2531 138.57 49.3 138.62 49.1945C138.67 49.089 138.842 46.2794 138.842 46.2794Z" fill="#464353"/>
<path d="M126.485 261.16V272.762C126.485 272.762 125.155 276.293 120.574 276.453C120.018 276.5 119.465 276.299 118.993 275.878C118.52 275.457 118.15 274.837 117.935 274.103C117.297 272.255 117.223 269.665 117.288 267.67C117.321 266.671 117.395 265.677 117.51 264.691L126.485 261.16Z" fill="#3F3D56"/>
<path opacity="0.1" d="M126.485 261.16V264.75L117.288 267.67C117.321 266.671 117.395 265.677 117.51 264.691L126.485 261.16Z" fill="black"/>
<path d="M128.06 263.409L116.534 267.066L114.566 255.954C114.284 255.391 114.033 254.797 113.815 254.178C113.688 253.824 113.564 253.448 113.446 253.056C111.3 246.049 110.346 233.409 109.938 222.656C109.917 222.112 109.896 221.572 109.879 221.04C109.548 211.312 109.639 203.507 109.639 203.507C109.639 203.507 111.019 193.943 109.639 190.29C108.575 187.472 108.215 183.236 108.105 181.43C108.076 180.895 108.064 180.587 108.064 180.587L108.277 179.789L109.146 176.507H118.704L124.26 183.219L125.105 184.24L125.01 185.084C124.771 187.168 124.138 192.677 123.828 195.369C123.606 197.57 123.673 199.81 124.026 201.976C124.026 201.976 124.141 203.047 124.322 204.747C124.366 205.169 124.416 205.616 124.472 206.101C125.179 212.337 126.503 223.723 127.067 226.444C127.224 227.191 127.363 229.064 127.466 231.599C127.49 232.106 127.511 232.633 127.531 233.186C127.945 243.994 128.06 263.409 128.06 263.409Z" fill="#0385B6"/>
<path opacity="0.1" d="M126.485 272.643V272.762C126.485 272.762 125.155 276.293 120.574 276.453C120.018 276.5 119.465 276.299 118.993 275.878C118.52 275.457 118.15 274.837 117.935 274.103C119.989 274.824 123.323 275.289 126.485 272.643Z" fill="black"/>
<path d="M199.386 109.847C196.348 114.348 193.097 105.979 191.131 99.3678C190.029 95.6469 189.337 92.4786 189.337 92.4786L197.423 87.5933C197.423 87.5933 197.92 88.7197 198.543 90.5042C200.219 95.2714 202.829 104.73 199.386 109.847Z" fill="#A1616A"/>
<path d="M139.524 43.9464C139.395 48.1227 139.614 52.3062 140.177 56.4085C140.177 56.4085 123.728 58.9398 125.205 55.2864C126.071 53.1432 126.633 47.4859 126.946 43.1617C127.174 40.099 127.274 37.7069 127.274 37.7069C127.274 37.7069 143.035 28.7084 140.671 36.3021C139.965 38.5676 139.637 41.2507 139.524 43.9464Z" fill="#A1616A"/>
<path d="M140.913 104.363L138.703 142.049L148.849 139.661L147.075 108.581L147.666 100.283L140.913 104.363Z" fill="#464353"/>
<path opacity="0.1" d="M148.849 139.72L144.442 140.758L138.7 142.108L139.105 135.231L140.913 104.422L143.216 103.03L144.847 102.047L147.666 100.342L147.075 108.641L148.849 139.72Z" fill="black"/>
<path d="M106.128 263.577C104.837 267.269 106.832 270.694 106.832 270.694C107.275 272.833 107.278 274.141 107.08 274.913C106.669 276.554 105.39 275.951 105.39 275.951C101.364 275.318 98.9261 259.818 99.9605 258.042C100.995 256.266 99.331 252.187 99.331 252.187L97.1529 253.398L95.158 244.648L96.417 242.433L98.0454 239.573L99.1478 237.632L110.157 254.03C110.157 254.03 109.687 255.039 109.04 256.486C108.135 258.515 106.885 261.426 106.128 263.577Z" fill="#3F3D56"/>
<path opacity="0.1" d="M127.54 233.165L113.815 254.178C111.41 247.47 110.375 234.013 109.938 222.652C112.494 219.614 114.962 216.998 116.83 215.737C116.83 215.737 123.149 209.211 124.481 206.08C125.188 212.316 126.512 223.702 127.076 226.423C127.262 227.317 127.416 229.828 127.54 233.165Z" fill="black"/>
<path opacity="0.1" d="M124.26 183.215L108.277 179.785L109.146 176.503H118.704L124.26 183.215Z" fill="black"/>
<path opacity="0.1" d="M127.487 231.578L113.458 253.056C111.3 246.049 110.346 233.409 109.938 222.656C109.917 222.112 109.897 221.572 109.879 221.04C112.459 217.969 114.956 215.328 116.83 214.054C116.83 214.054 122.726 207.966 124.331 204.73C124.375 205.152 124.425 205.599 124.481 206.085C125.188 212.32 126.512 223.706 127.076 226.427C127.233 227.17 127.363 229.043 127.487 231.578Z" fill="black"/>
<path opacity="0.1" d="M110.157 254.039C110.157 254.039 109.687 255.047 109.039 256.494C106.69 252.254 101.119 242.492 98.0454 239.581L99.1478 237.641L110.157 254.039Z" fill="black"/>
<path d="M145.793 193.795C145.007 198.158 145.007 203.359 145.007 203.359C145.007 203.359 144.906 212.78 138.404 216.437L137.627 216.859L110.733 258.047C110.733 258.047 100.782 239.484 97.5312 238.358C97.5312 238.358 110.632 219.091 116.839 214.872C116.839 214.872 124.328 207.139 124.721 204.469C125.114 201.798 127.283 200.389 127.283 200.389C127.283 200.389 125.607 191.391 126.296 189.138C126.674 187.761 126.747 186.252 126.506 184.814C126.323 183.97 125.968 183.468 125.415 183.911C125.309 183.997 125.209 184.1 125.12 184.219L108.079 180.561V168.061C108.079 168.061 103.941 161.172 104.533 152.735C105.124 144.297 103.841 144.58 103.841 144.58C103.841 144.58 103.903 130.329 104.745 129.139C105.588 127.95 113.679 122.499 113.679 122.499L139.049 128.933L140.095 135.86C140.095 135.86 140.981 141.369 142.459 143.816C143.937 146.263 142.459 149.212 142.459 149.212C142.459 149.212 142.953 155.54 144.43 161.172C145.908 166.804 146.582 189.438 145.793 193.795Z" fill="#0385B6"/>
<path opacity="0.1" d="M140.671 36.3021C139.965 38.5676 139.637 41.2675 139.524 43.9464C137.755 46.1347 135.465 47.2727 133.126 47.1268C130.787 46.9809 128.575 45.5621 126.946 43.1617C127.174 40.099 127.274 37.7069 127.274 37.7069C127.274 37.7069 143.035 28.7084 140.671 36.3021Z" fill="black"/>
<path d="M142.687 33.657C142.685 36.9916 141.791 40.1995 140.188 42.6248C138.585 45.05 136.393 46.5095 134.061 46.7047C131.729 46.8999 129.433 45.8161 127.642 43.6749C125.851 41.5338 124.701 38.4969 124.427 35.1854C124.152 31.8739 124.774 28.5378 126.166 25.8593C127.557 23.1807 129.613 21.3621 131.912 20.7752C134.212 20.1883 136.582 20.8775 138.537 22.7018C140.493 24.5262 141.886 27.3479 142.432 30.59C142.602 31.5944 142.687 32.6239 142.687 33.657Z" fill="#A1616A"/>
<path opacity="0.1" d="M135.254 56.4085C135.254 56.4085 128.669 52.0506 128.258 51.4853C127.848 50.92 114.188 100.988 114.188 100.988L110.346 125.878C110.346 125.878 130.835 138.391 135.269 136.703C139.702 135.016 140.095 136.703 140.095 136.703C140.095 136.703 144.628 100.422 146.106 97.1909C147.584 93.9594 144.726 61.0491 144.726 61.0491L139.604 51.4811L135.254 56.4085Z" fill="black"/>
<path opacity="0.1" d="M135.254 54.7211C135.254 54.7211 128.669 50.3631 128.258 49.7978C127.848 49.2325 114.188 99.3003 114.188 99.3003L110.346 124.191C110.346 124.191 130.835 136.703 135.269 135.016C139.702 133.328 140.095 135.016 140.095 135.016C140.095 135.016 144.628 98.735 146.106 95.5034C147.584 92.2719 144.726 59.3617 144.726 59.3617L139.604 49.7936L135.254 54.7211Z" fill="black"/>
<path d="M146.088 96.3472C145.793 97.018 145.346 99.102 144.847 101.988C144.498 103.996 144.12 106.388 143.733 108.961C141.989 120.575 140.08 135.864 140.08 135.864C140.08 135.864 139.959 135.349 139.105 135.172C138.413 135.029 137.237 135.109 135.263 135.864C130.83 137.551 110.337 125.035 110.337 125.035L110.928 121.238L114.179 100.144C114.179 100.144 127.874 50.0805 128.267 50.6458C128.507 50.9875 131.066 52.7551 133.017 54.0672C134.261 54.9109 135.263 55.5648 135.263 55.5648L139.4 50.8989L139.628 50.6416L144.726 60.2054C144.726 60.2054 147.566 93.1114 146.088 96.3472Z" fill="#00D49C"/>
<path opacity="0.1" d="M130.425 60.488C131.016 63.7322 129.638 69.0647 129.638 69.0647C129.638 69.0647 124.91 85.6612 123.53 93.3308C122.15 101 114.256 116.458 114.256 116.458C114.256 116.458 113.097 118.116 111.475 120.423C111.294 120.681 111.105 120.947 110.916 121.225L114.167 100.131C114.167 100.131 127.862 50.0678 128.255 50.6331C128.495 50.9748 131.054 52.7425 133.005 54.0545C131.784 55.6407 130.032 58.3407 130.425 60.488Z" fill="black"/>
<path d="M129.833 60.4881C130.425 63.7323 129.047 69.0647 129.047 69.0647C129.047 69.0647 124.319 85.6612 122.939 93.3308C121.558 101 113.665 116.458 113.665 116.458C113.665 116.458 112.506 118.116 110.884 120.423C110.691 120.698 110.49 120.98 110.292 121.267C107.124 125.769 102.671 132.08 101.279 133.923C101.075 134.198 100.936 134.375 100.877 134.434C100.751 134.555 100.611 134.642 100.463 134.691C99.5526 135.046 97.7587 134.788 95.2614 134.434C92.306 134.012 94.7708 125.296 94.7708 125.296L95.548 124.153L96.2573 123.107L104.308 111.281L104.899 110.391L107.361 106.767L108.614 87.9519L108.643 87.5005C108.643 87.5005 108.277 86.3066 107.712 84.4841C106.208 79.5525 103.253 70.035 102.171 66.9596C102.047 66.601 101.949 66.3352 101.876 66.1707C101.876 66.1496 101.861 66.1285 101.852 66.1116C101.063 64.2849 103.229 64.4241 103.229 64.4241C103.229 64.4241 105.398 63.5804 105.002 62.3148C104.606 61.0491 107.565 60.2054 107.467 58.3787C107.37 56.552 109.24 56.2693 109.24 56.2693C109.24 56.2693 111.9 57.5349 111.605 56.2693C111.309 55.0037 115.742 54.2992 115.742 54.2992C115.742 54.2992 117.908 55.8475 119.091 54.2992C120.273 52.7509 125.123 52.7551 125.123 52.7551C125.123 52.7551 124.133 47.41 125.123 45.8617C126.113 44.3135 133.537 52.7551 133.537 52.7551C133.537 52.7551 129.242 57.2481 129.833 60.4881Z" fill="#464353"/>
<path opacity="0.1" d="M105.206 132.485C105.206 132.485 113.384 148.938 119.097 143.597C124.809 138.256 111.413 124.33 111.413 124.33L105.206 132.485Z" fill="black"/>
<path d="M105.206 131.641C105.206 131.641 113.384 148.094 119.097 142.753C124.809 137.412 111.413 123.486 111.413 123.486L105.206 131.641Z" fill="#A1616A"/>
<path opacity="0.1" d="M144.442 140.699C145.066 132.932 146.874 121.263 145.4 117.723C144.67 115.968 144.129 112.623 143.733 108.961C143.52 106.991 143.352 104.928 143.216 102.971C142.855 97.7773 142.74 93.3308 142.74 93.3308C142.74 93.3308 139.193 70.7522 139.882 66.1116C140.313 63.2091 139.817 55.936 139.385 50.8989L139.613 50.6415L144.711 60.2054C144.711 60.2054 147.566 93.1114 146.088 96.3472C145.793 97.018 145.346 99.102 144.847 101.988L147.666 100.3L147.075 108.598L148.849 139.678L144.442 140.699Z" fill="black"/>
<path d="M139.48 45.6719C139.48 45.6719 144.575 51.7679 146.514 51.9071C146.514 51.9071 145.991 55.2821 143.824 56.6912C143.824 56.6912 149.144 57.6952 151.115 57.2607C153.087 56.8262 156.533 57.5349 157.221 58.9482C157.91 60.3615 159.405 62.1755 160.587 62.454C161.77 62.7324 163.055 64.4241 163.055 64.4241L154.381 82.7038C154.381 82.7038 151.228 93.9551 151.916 96.4864C152.605 99.0176 151.816 113.222 151.275 113.922C150.734 114.623 152.212 142.892 154.872 142.892C154.872 142.892 147.584 149.925 145.414 147.816C143.245 145.706 148.175 122.925 146.005 117.719C143.836 112.513 143.346 93.3266 143.346 93.3266C143.346 93.3266 139.799 70.7522 140.491 66.1116C141.182 61.471 139.48 45.6719 139.48 45.6719Z" fill="#464353"/>
<path opacity="0.1" d="M198.543 90.5042C195.91 89.3314 191.876 89.2977 191.131 99.3636C190.029 95.6427 189.337 92.4744 189.337 92.4744L197.423 87.5891C197.423 87.5891 197.92 88.7197 198.543 90.5042Z" fill="black"/>
<path d="M158.223 63.5804L163.055 64.4241C163.055 64.4241 164.533 67.238 165.907 67.238C167.281 67.238 168.369 69.7692 168.369 69.7692C168.369 69.7692 170.34 71.3133 171.62 70.8914C172.9 70.4695 178.219 69.7734 179.008 70.9673C179.797 72.1612 184.919 73.2834 184.919 73.2834C184.919 73.2834 186.89 77.6414 188.664 77.6414C190.437 77.6414 200.287 87.9097 200.583 91.5631C200.583 91.5631 190.83 82.7038 190.732 102.182C190.732 102.182 186.595 96.9083 185.903 94.6597C185.212 92.4111 178.81 93.3266 178.81 93.3266C178.81 93.3266 174.478 90.5802 173.786 88.7535C173.095 86.9268 169.058 91.6644 167.778 90.2764C166.498 88.8885 154.872 81.666 154.872 81.666L151.275 72.0178L158.223 63.5804Z" fill="#464353"/>
<path d="M135.942 80.6662C136.404 80.6662 136.779 80.1317 136.779 79.4723C136.779 78.8129 136.404 78.2784 135.942 78.2784C135.48 78.2784 135.106 78.8129 135.106 79.4723C135.106 80.1317 135.48 80.6662 135.942 80.6662Z" fill="#3F3D56"/>
<path d="M135.106 105.595C135.568 105.595 135.942 105.06 135.942 104.401C135.942 103.741 135.568 103.207 135.106 103.207C134.644 103.207 134.27 103.741 134.27 104.401C134.27 105.06 134.644 105.595 135.106 105.595Z" fill="#3F3D56"/>
<path d="M135.942 92.4744C136.404 92.4744 136.779 91.9399 136.779 91.2805C136.779 90.6211 136.404 90.0866 135.942 90.0866C135.48 90.0866 135.106 90.6211 135.106 91.2805C135.106 91.9399 135.48 92.4744 135.942 92.4744Z" fill="#3F3D56"/>
<path d="M133.528 118.715C133.99 118.715 134.364 118.18 134.364 117.521C134.364 116.862 133.99 116.327 133.528 116.327C133.066 116.327 132.691 116.862 132.691 117.521C132.691 118.18 133.066 118.715 133.528 118.715Z" fill="#3F3D56"/>
<path opacity="0.1" d="M107.095 274.934C106.684 276.575 105.404 275.972 105.404 275.972C101.379 275.339 98.9409 259.84 99.9753 258.063C101.01 256.287 99.331 252.187 99.331 252.187L97.1529 253.398L95.158 244.648L96.417 242.433C97.6701 245.534 99.464 249.993 99.8866 251.132C100.689 253.494 101.07 256.103 100.995 258.726C100.927 261.468 103.155 274.58 107.095 274.934Z" fill="black"/>
<path opacity="0.1" d="M142.432 30.5731C142.231 30.476 142.031 30.3621 141.841 30.2482C141.165 29.8559 140.452 29.4045 140.042 28.5607C139.666 27.7761 139.545 26.6708 138.96 26.2236C138.286 25.7089 137.482 26.405 136.752 26.6455C135.883 26.9365 134.979 26.5906 134.134 26.1476C132.875 25.4853 131.116 24.2661 129.825 25.5275C128.82 26.5062 129.21 28.5818 128.953 30.0626C128.554 32.3618 126.843 33.8595 126.521 36.184C126.376 37.2091 126.47 38.4621 125.888 39.0991C125.718 39.272 125.525 39.3927 125.321 39.4535C124.75 37.8041 124.43 36.0013 124.38 34.1631C124.331 32.3249 124.554 30.4924 125.035 28.7855C125.515 27.0787 126.243 25.5357 127.169 24.2575C128.096 22.9792 129.201 21.9945 130.413 21.3675C131.625 20.7406 132.915 20.4856 134.2 20.6191C135.486 20.7527 136.737 21.2718 137.872 22.1426C139.007 23.0133 140.001 24.2162 140.788 25.6725C141.576 27.1289 142.139 28.8059 142.441 30.5942L142.432 30.5731Z" fill="black"/>
<path d="M134.128 25.2912C134.964 25.7342 135.874 26.0801 136.746 25.7848C137.488 25.5359 138.277 24.8398 138.951 25.3629C139.542 25.8144 139.66 26.9154 140.033 27.7001C140.443 28.5439 141.156 29.0164 141.835 29.3876C142.342 29.725 142.884 29.9416 143.44 30.0289C143.718 30.0677 143.999 30.0145 144.26 29.8732C144.522 29.732 144.757 29.5067 144.947 29.2146C145.474 28.3076 145.314 26.9492 145.001 25.865C144.687 24.7808 144.244 23.7008 144.277 22.528C144.315 21.1358 145.021 19.925 145.08 18.5371C145.157 16.7779 144.161 15.2422 143.032 14.5293C142.022 13.8922 140.866 13.7151 139.941 12.8418C138.886 11.8546 138.307 10.1418 137.526 8.72431C136.392 6.66135 134.615 5.12152 132.798 5.41683C131.678 5.59824 130.661 6.43355 129.547 6.75839C127.853 7.26042 126.063 6.53058 124.378 7.09167C123.971 7.18308 123.599 7.47395 123.326 7.91432C122.912 8.70744 123.125 9.81696 123.308 10.7704C123.636 12.4874 123.775 14.4322 123.122 15.9425C122.383 17.6511 120.814 18.3725 120.131 20.1275C119.934 20.6424 119.825 21.2167 119.813 21.8033C119.801 22.39 119.887 22.9723 120.063 23.5025C120.388 24.4728 121.018 25.2617 121.115 26.329C121.183 27.0968 120.962 27.8436 120.846 28.5945C120.731 29.3454 120.763 30.282 121.198 30.7039C121.632 31.1257 122.241 31.0203 122.575 31.5476C122.676 31.757 122.743 31.9963 122.77 32.2476C122.797 32.4989 122.784 32.7557 122.732 32.9988C122.614 33.8426 122.362 34.6062 122.229 35.433C122.144 35.8386 122.12 36.2654 122.159 36.6851C122.199 37.1048 122.3 37.5078 122.457 37.8672C123.03 38.9725 124.189 38.905 125.117 38.6097C125.385 38.5489 125.64 38.4049 125.864 38.1879C126.456 37.5508 126.352 36.2979 126.497 35.2727C126.819 32.9524 128.53 31.4464 128.929 29.1514C129.186 27.6706 128.796 25.5908 129.801 24.612C131.107 23.4097 132.869 24.6289 134.128 25.2912Z" fill="#464353"/>
<path opacity="0.1" d="M132.691 177.908C132.691 177.908 141.968 186.345 142.264 189.581L132.691 177.908Z" fill="black"/>
<path opacity="0.1" d="M132.216 184.658C132.216 184.658 142.855 191.969 142.264 194.5L132.216 184.658Z" fill="black"/>
<path opacity="0.1" d="M131.509 191.125C131.509 191.125 137.521 195.626 137.914 198.297L131.509 191.125Z" fill="black"/>
<path opacity="0.1" d="M134.072 201.25C134.072 201.25 138.011 206.173 138.8 204.908C139.589 203.642 134.072 201.25 134.072 201.25Z" fill="black"/>
<path opacity="0.1" d="M128.554 204.346C128.554 204.346 131.625 211.375 130.147 211.797C128.669 212.219 128.554 204.346 128.554 204.346Z" fill="black"/>
<path opacity="0.1" d="M115.074 79.4723C115.074 79.4723 109.852 83.9694 111.427 85.0958C113.003 86.2222 115.074 79.4723 115.074 79.4723Z" fill="black"/>
<path opacity="0.1" d="M115.074 62.8759C115.074 62.8759 109.755 76.7976 112.216 75.8147C114.678 74.8317 115.074 62.8759 115.074 62.8759Z" fill="black"/>
<path opacity="0.1" d="M171.605 76.7976C171.605 76.7976 168.354 82.2567 168.945 85.2351L171.605 76.7976Z" fill="black"/>
<path opacity="0.1" d="M180.093 79.4723C180.093 79.4723 175.214 85.6569 175.929 86.3615L180.093 79.4723Z" fill="black"/>
<path opacity="0.1" d="M183.131 87.0702C183.131 87.0702 182.638 91.137 183.427 91.2889L183.131 87.0702Z" fill="black"/>
<path opacity="0.05" d="M129.884 172.875C128.628 175.195 128.628 179.308 128.06 180.996C127.75 181.924 127.058 183.527 126.497 184.826C126.314 183.983 125.959 183.481 125.406 183.924C125.043 180.055 124.402 173.377 124.195 172.031C123.899 170.133 127.15 165.07 127.15 165.07C127.15 165.07 130.327 166.019 131.14 168.34C131.953 170.66 131.14 170.559 129.884 172.875Z" fill="black"/>
<path opacity="0.1" d="M113.481 124.052C109.935 124.752 103.335 138.252 103.335 138.252C103.335 138.252 102.47 136.455 101.267 133.944C99.7536 130.759 97.7202 126.418 96.2426 123.128L104.902 110.379L106.477 112.8C106.477 112.8 109.533 117.158 109.533 118.002C109.533 118.331 110.124 119.331 110.875 120.423C112.024 122.124 113.481 124.052 113.481 124.052Z" fill="black"/>
<path opacity="0.1" d="M102.171 66.9596C102.047 66.601 101.949 66.3352 101.876 66.1707L105.694 66.5335L107.718 84.4715C106.208 79.5524 103.253 70.035 102.171 66.9596Z" fill="black"/>
<path opacity="0.1" d="M110.287 121.28C107.118 125.781 102.665 132.092 101.273 133.936C101.069 134.21 100.93 134.387 100.871 134.446C100.745 134.567 100.605 134.655 100.457 134.704C99.065 131.784 97.079 127.578 95.5422 124.157L96.2515 123.111L104.308 111.281L105.304 112.813C105.304 112.813 108.36 117.171 108.36 118.015C108.36 118.42 109.314 119.888 110.287 121.28Z" fill="black"/>
<path d="M106.291 66.5335L101.858 66.1116C101.858 66.1116 100.676 70.0477 99.6915 70.3303C98.7074 70.613 97.4247 73.8445 97.4247 73.8445C97.4247 73.8445 93.63 74.8317 93.7955 76.5192C93.961 78.2067 87.9616 90.2764 87.9616 90.2764C87.9616 90.2764 85.9903 96.0645 87.3705 100.283C88.7507 104.502 89.7348 107.316 90.0303 108.86C90.3259 110.404 93.8251 117.158 93.7955 118.424C93.766 119.689 102.739 138.252 102.739 138.252C102.739 138.252 109.338 124.752 112.884 124.047C112.884 124.047 108.945 118.846 108.945 118.002C108.945 117.158 105.913 112.8 105.913 112.8L102.071 106.894C102.071 106.894 100.788 106.05 102.071 104.502C103.353 102.954 99.9043 99.4395 99.9043 99.4395C99.9043 99.4395 99.8038 96.9083 101.086 96.2038C102.369 95.4992 104.042 90.8629 104.042 90.8629L108.673 87.4879L106.291 66.5335Z" fill="#464353"/>
<path opacity="0.1" d="M89.3625 94.5163C89.3625 94.5163 94.6822 92.9722 94.7797 93.9552C94.8773 94.9381 89.3625 94.5163 89.3625 94.5163Z" fill="black"/>
<path opacity="0.1" d="M93.7956 102.182C93.7956 102.182 98.3055 103.025 98.1075 104.401C97.9095 105.776 93.7956 102.182 93.7956 102.182Z" fill="black"/>
<path opacity="0.1" d="M97.5223 78.2742C97.5223 78.2742 101.858 87.0365 102.449 85.2224L97.5223 78.2742Z" fill="black"/>
<g opacity="0.1">
<path opacity="0.1" d="M123.574 12.9852C123.601 11.9631 123.511 10.9415 123.308 9.96041C123.223 9.54547 123.158 9.12258 123.113 8.69479C123.075 9.4096 123.142 10.1278 123.308 10.8042C123.448 11.5164 123.538 12.2472 123.574 12.9852Z" fill="black"/>
<path opacity="0.1" d="M144.3 22.2664C144.415 21.0008 145.024 19.8491 145.08 18.5539C145.089 18.3385 145.083 18.1223 145.063 17.9085C144.947 19.2163 144.312 20.3764 144.277 21.7053C144.273 21.893 144.281 22.0808 144.3 22.2664Z" fill="black"/>
<path opacity="0.1" d="M144.948 28.3836C144.757 28.6756 144.522 28.901 144.261 29.0422C143.999 29.1834 143.718 29.2366 143.44 29.1978C142.884 29.1105 142.342 28.8939 141.835 28.5565C141.156 28.1642 140.444 27.7128 140.033 26.869C139.657 26.0844 139.536 24.9833 138.951 24.5319C138.277 24.0172 137.473 24.7133 136.743 24.9537C135.874 25.2491 134.97 24.9031 134.128 24.4602C132.869 23.7978 131.107 22.5786 129.816 23.8358C128.811 24.8145 129.201 26.8944 128.944 28.3751C128.545 30.6701 126.834 32.172 126.512 34.4965C126.367 35.5216 126.462 36.7746 125.879 37.4116C125.654 37.6294 125.398 37.7734 125.129 37.8335C124.189 38.1288 123.03 38.1963 122.469 37.091C122.307 36.7751 122.205 36.4044 122.173 36.0152C122.097 36.6854 122.203 37.372 122.469 37.9348C123.042 39.0401 124.201 38.9726 125.129 38.6772C125.398 38.6172 125.654 38.4731 125.879 38.2554C126.47 37.6183 126.367 36.3654 126.512 35.3402C126.834 33.0199 128.545 31.5139 128.944 29.2189C129.201 27.7381 128.811 25.6583 129.816 24.6795C131.107 23.4139 132.869 24.6416 134.128 25.3039C134.964 25.7469 135.874 26.0928 136.743 25.7975C137.488 25.5486 138.277 24.8525 138.951 25.3756C139.542 25.827 139.657 26.9281 140.033 27.7128C140.444 28.5565 141.156 29.029 141.835 29.4003C142.342 29.7377 142.884 29.9543 143.44 30.0415C143.718 30.0804 143.999 30.0271 144.261 29.8859C144.522 29.7447 144.757 29.5193 144.948 29.2273C145.091 28.9531 145.193 28.6397 145.248 28.3065C145.303 27.9734 145.309 27.6277 145.267 27.2909C145.236 27.6912 145.125 28.0703 144.948 28.3836Z" fill="black"/>
<path opacity="0.1" d="M121.115 25.5022C121.018 24.4348 120.388 23.6459 120.063 22.6756C119.941 22.3103 119.863 21.918 119.833 21.5155C119.776 22.2011 119.856 22.8956 120.063 23.5194C120.379 24.4601 120.976 25.2364 121.1 26.2531C121.13 26.0051 121.135 25.7522 121.115 25.5022Z" fill="black"/>
<path opacity="0.1" d="M122.758 32.0918C122.801 31.8649 122.807 31.6275 122.778 31.3964C122.749 31.1653 122.685 30.9462 122.59 30.7545C122.256 30.2103 121.621 30.3326 121.213 29.9108C121.105 29.7887 121.015 29.637 120.948 29.4645C120.882 29.2921 120.84 29.1025 120.826 28.9067C120.761 29.5944 120.826 30.3537 121.213 30.7545C121.6 31.1553 122.256 31.0709 122.59 31.5982C122.673 31.741 122.731 31.9103 122.758 32.0918Z" fill="black"/>
</g>
<path d="M52.6032 250.588C52.6032 250.588 40.3797 249.533 41.819 261.763C41.819 261.763 41.5234 263.923 42.9066 264.906C42.9066 264.906 42.9273 263.999 44.1597 264.307C44.598 264.412 45.0434 264.441 45.4866 264.396C46.0864 264.337 46.6568 264.003 47.1121 263.442C47.1121 263.442 50.5492 261.413 51.885 253.398C51.885 253.398 52.8721 251.647 52.8337 251.2L50.7649 252.465C50.7649 252.465 51.4713 254.575 50.9157 256.355C50.9157 256.355 50.8477 252.558 50.4517 252.63C50.3719 252.651 49.3789 253.368 49.3789 253.368C49.3789 253.368 50.5935 257.068 49.6744 259.759C49.6744 259.759 50.0231 255.199 48.9976 253.634L47.5465 254.845C47.5465 254.845 48.9651 258.667 48.0017 261.789C48.0017 261.789 48.2499 257.005 47.2421 255.14L45.924 256.604C45.924 256.604 47.2569 260.371 46.4442 262.961C46.4442 262.961 46.3378 257.388 45.6403 256.971C45.6403 256.971 44.4877 258.418 44.3133 259.013C44.3133 259.013 45.2236 261.751 44.6591 263.193C44.6591 263.193 44.3133 259.481 44.0267 259.464C44.0267 259.464 42.88 261.924 42.7618 263.607C42.7618 263.607 42.812 261.101 43.7489 259.228C43.0877 259.408 42.4777 259.86 41.9933 260.527C41.9933 260.527 42.1707 258.789 44.0326 258.637C44.0326 258.637 44.9813 256.773 45.2354 256.659C45.2354 256.659 43.3824 256.439 42.2623 257.148C42.2623 257.148 43.2494 255.511 45.5723 256.254L46.8727 254.739C46.8727 254.739 44.4375 254.267 43.4031 254.79C43.4031 254.79 44.5852 253.338 47.2244 254.397L48.6371 253.191C48.6371 253.191 46.5683 252.55 45.3211 252.769C45.3211 252.769 46.6274 251.765 49.0508 252.853L50.0645 252.204C50.0645 252.204 48.5425 251.782 48.0962 251.71C47.65 251.638 47.6263 251.465 47.6263 251.465C48.5901 251.238 49.5793 251.396 50.4842 251.921C50.4842 251.921 52.6416 250.778 52.6032 250.588Z" fill="#00D49C"/>
<path opacity="0.1" d="M44.1834 268.062C48.9625 268.062 52.8368 267.127 52.8368 265.974C52.8368 264.82 48.9625 263.885 44.1834 263.885C39.4043 263.885 35.53 264.82 35.53 265.974C35.53 267.127 39.4043 268.062 44.1834 268.062Z" fill="#00D49C"/>
</g>
<defs>
<linearGradient id="paint0_linear" x1="143.981" y1="276.082" x2="143.981" y2="4.34107" gradientUnits="userSpaceOnUse">
<stop stop-color="#808080" stop-opacity="0.25"/>
<stop offset="0.54" stop-color="#808080" stop-opacity="0.12"/>
<stop offset="1" stop-color="#808080" stop-opacity="0.1"/>
</linearGradient>
<clipPath id="clip0">
<rect x="3" width="340" height="285" rx="20" fill="white"/>
</clipPath>
</defs>
</svg>
