<svg width="108" height="33" viewBox="0 0 108 33" fill="none" xmlns="http://www.w3.org/2000/svg">
<path d="M22.1958 19.8223L25.5454 2.11719H30.6553L25.1353 27H19.9741L15.9238 10.3545L11.8735 27H6.7124L1.19238 2.11719H6.30225L9.66895 19.7881L13.7705 2.11719H18.1113L22.1958 19.8223ZM57.2642 27H52.3081V0.75H57.2642V27ZM69.8594 27.3418C67.1478 27.3418 64.9375 26.5101 63.2285 24.8467C61.5309 23.1833 60.6821 20.9673 60.6821 18.1987V17.7202C60.6821 15.8631 61.041 14.2054 61.7588 12.7471C62.4766 11.2773 63.4906 10.1494 64.8008 9.36328C66.1224 8.56576 67.6263 8.16699 69.3125 8.16699C71.8418 8.16699 73.8299 8.96452 75.2769 10.5596C76.7352 12.1546 77.4644 14.4162 77.4644 17.3442V19.3608H65.6895C65.849 20.5685 66.3275 21.5369 67.125 22.2661C67.9339 22.9953 68.9536 23.3599 70.1841 23.3599C72.0868 23.3599 73.5736 22.6706 74.6445 21.292L77.0713 24.0093C76.3307 25.0575 75.3281 25.8778 74.0635 26.4702C72.7988 27.0513 71.3975 27.3418 69.8594 27.3418ZM69.2954 12.166C68.3156 12.166 67.5181 12.4964 66.9028 13.1572C66.299 13.818 65.9116 14.7637 65.7407 15.9941H72.6108V15.6011C72.5881 14.5073 72.2918 13.6642 71.7222 13.0718C71.1525 12.4679 70.3436 12.166 69.2954 12.166ZM79.5151 17.6177C79.5151 14.7352 80.1589 12.4395 81.4463 10.7305C82.7451 9.02148 84.5168 8.16699 86.7612 8.16699C88.5614 8.16699 90.0482 8.83919 91.2217 10.1836V0.75H96.1777V27H91.7173L91.478 25.0347C90.2476 26.5728 88.6639 27.3418 86.7271 27.3418C84.5509 27.3418 82.8021 26.4873 81.4805 24.7783C80.1702 23.0579 79.5151 20.6711 79.5151 17.6177ZM84.4541 17.9766C84.4541 19.7083 84.756 21.0356 85.3599 21.9585C85.9637 22.8813 86.841 23.3428 87.9917 23.3428C89.5184 23.3428 90.5951 22.6991 91.2217 21.4116V14.1143C90.6064 12.8268 89.5412 12.1831 88.0259 12.1831C85.6447 12.1831 84.4541 14.1143 84.4541 17.9766ZM105.218 27H100.262V8.50879H105.218V27ZM99.9717 3.72363C99.9717 2.98307 100.217 2.37354 100.707 1.89502C101.208 1.4165 101.886 1.17725 102.74 1.17725C103.583 1.17725 104.256 1.4165 104.757 1.89502C105.258 2.37354 105.509 2.98307 105.509 3.72363C105.509 4.47559 105.252 5.09082 104.74 5.56934C104.238 6.04785 103.572 6.28711 102.74 6.28711C101.909 6.28711 101.236 6.04785 100.724 5.56934C100.222 5.09082 99.9717 4.47559 99.9717 3.72363Z" fill="#0385B6"/>
<path d="M41.627 27.3418C38.9154 27.3418 36.7051 26.5101 34.9961 24.8467C33.2985 23.1833 32.4497 20.9673 32.4497 18.1987V17.7202C32.4497 15.8631 32.8086 14.2054 33.5264 12.7471C34.2441 11.2773 35.2581 10.1494 36.5684 9.36328C37.89 8.56576 39.3939 8.16699 41.0801 8.16699C43.6094 8.16699 45.5975 8.96452 47.0444 10.5596C48.5028 12.1546 49.2319 14.4162 49.2319 17.3442V19.3608H37.457C37.6165 20.5685 38.0951 21.5369 38.8926 22.2661C39.7015 22.9953 40.7212 23.3599 41.9517 23.3599C43.8543 23.3599 45.3411 22.6706 46.4121 21.292L48.8389 24.0093C48.0983 25.0575 47.0957 25.8778 45.8311 26.4702C44.5664 27.0513 43.165 27.3418 41.627 27.3418ZM41.063 12.166C40.0832 12.166 39.2856 12.4964 38.6704 13.1572C38.0666 13.818 37.6792 14.7637 37.5083 15.9941H44.3784V15.6011C44.3556 14.5073 44.0594 13.6642 43.4897 13.0718C42.9201 12.4679 42.1112 12.166 41.063 12.166Z" fill="#FF005C"/>
<path d="M0.594238 30.418H31.2021V32.127H0.594238V30.418ZM50.1548 30.418H107.389V32.127H50.1548V30.418Z" fill="#0385B6"/>
<path d="M31.2192 30.418H50.1377V32.127H31.2192V30.418Z" fill="#FF005C"/>
</svg>
